<svg width="141" height="28" viewBox="0 0 141 28" fill="none" xmlns="http://www.w3.org/2000/svg">
<g id="best-lawyers 1" clip-path="url(#clip0_1123_16115)">
<path id="Vector" d="M21.9117 8.26389C23.8223 8.26389 25.1567 9.69714 25.1567 11.1946C25.1567 11.7508 24.6178 11.7974 22.9562 11.7974H18.9137C19.1527 9.43655 20.2716 8.26389 21.9117 8.26389ZM27.614 17.5732C27.4768 17.5732 27.2887 17.7035 27.0046 17.9019C26.3638 18.3511 25.29 19.0998 23.644 19.0998C20.7399 19.0998 18.8627 16.8148 18.849 12.9098H26.6303C27.3769 12.9098 27.6845 12.9098 27.6845 12.2894C27.6845 11.4668 27.2926 10.2397 26.6029 9.33931C25.5153 7.88856 24.1201 7.18457 22.3311 7.18457C19.2487 7.18457 16.6484 10.4478 16.6484 14.3119C16.6484 17.9486 19.1704 20.7976 22.3918 20.7976C24.2377 20.7976 25.7642 20.1733 27.1966 18.8315C27.661 18.3881 27.8668 18.0808 27.8668 17.826C27.8668 17.6141 27.7786 17.5732 27.6159 17.5732" fill="#949494"/>
<path id="Vector_2" d="M113.851 8.26389C115.762 8.26389 117.092 9.69714 117.092 11.1946C117.092 11.7508 116.557 11.7974 114.896 11.7974H110.843C111.084 9.43655 112.201 8.26389 113.843 8.26389M119.546 17.5732C119.408 17.5732 119.22 17.7035 118.934 17.9019C118.293 18.3511 117.222 19.0998 115.574 19.0998C112.672 19.0998 110.794 16.8148 110.781 12.9079H118.554C119.303 12.9079 119.61 12.9079 119.61 12.2894C119.61 11.4668 119.218 10.2397 118.529 9.33931C117.443 7.88856 116.046 7.18457 114.257 7.18457C111.176 7.18457 108.574 10.4478 108.574 14.3119C108.574 17.9486 111.096 20.7976 114.316 20.7976C116.162 20.7976 117.688 20.1733 119.12 18.8315C119.583 18.39 119.791 18.0789 119.791 17.826C119.791 17.6121 119.702 17.5732 119.542 17.5732" fill="#949494"/>
<path id="Vector_3" d="M123.173 7.36908L122.089 7.9136C121.648 8.10513 121.189 8.24985 120.717 8.34533C120.243 8.45034 119.957 8.51452 119.957 8.84512C119.957 9.23406 120.349 9.2574 120.755 9.2574C121.719 9.2574 122.165 9.71441 122.165 10.7004V17.2813C122.165 18.3645 122.017 18.9732 121.63 19.4516C121.469 19.6493 121.269 19.8127 121.043 19.9319C120.8 20.0778 120.59 20.2042 120.59 20.4648C120.59 20.5169 120.6 20.5684 120.621 20.6164C120.641 20.6643 120.671 20.7078 120.709 20.744C120.747 20.7803 120.791 20.8087 120.84 20.8275C120.889 20.8464 120.941 20.8553 120.994 20.8537L121.219 20.8323C121.999 20.737 122.784 20.6921 123.57 20.6982C124.499 20.6982 125.226 20.7604 125.755 20.8071L126.445 20.8537C126.772 20.8537 127 20.6845 127 20.4434C127 20.0039 126.653 19.9786 126.249 19.9494C125.947 19.9444 125.649 19.8782 125.373 19.755C124.431 19.2727 124.337 18.5395 124.337 16.8535V11.7505C124.337 10.5642 125.303 9.44215 126.324 9.44215C126.82 9.4621 127.298 9.63095 127.695 9.92638C127.865 10.0624 128.068 10.151 128.283 10.1831C128.651 10.1831 129.355 9.4052 129.355 8.87818C129.355 8.31616 128.395 7.38659 127.376 7.38659C126.357 7.38659 125.524 8.06918 124.358 9.48299V7.79498C124.358 7.32435 124.358 7.01709 124.015 7.01709C123.831 7.01709 123.57 7.15711 123.175 7.37103" fill="#949494"/>
<path id="Vector_4" d="M109.084 7.25074L108.641 7.28964C108.234 7.34459 107.824 7.37317 107.414 7.3752C106.981 7.37204 106.549 7.34477 106.119 7.29352L105.531 7.25074C105.166 7.25074 105.012 7.3752 105.012 7.66691C105.012 8.05585 105.257 8.07725 105.566 8.11419L105.939 8.17643C106.405 8.30089 106.654 8.71122 106.654 9.3627C106.644 10.2355 106.493 11.1011 106.205 11.9258L104.3 17.1143C104.273 17.2271 104.22 17.2738 104.179 17.2738C104.153 17.2557 104.13 17.2327 104.113 17.206C104.096 17.1793 104.084 17.1494 104.079 17.1182L101.181 10.1134C101.029 9.74805 100.94 9.36032 100.916 8.96598C100.916 8.52258 101.198 8.24644 101.778 8.12392L101.947 8.08308C102.221 8.02085 102.439 7.97029 102.439 7.67663C102.439 7.38298 102.284 7.26047 101.92 7.26047L101.253 7.31297C100.979 7.34214 100.665 7.41604 100.287 7.43354C96.5955 7.61829 94.7516 7.43354 94.2969 7.37131C94.1284 7.34603 93.9717 7.32075 93.8384 7.29547L93.3544 7.22935C93.0017 7.22935 92.8351 7.37326 92.8351 7.67858C92.8351 8.06752 93.0801 8.08891 93.3897 8.12586L93.762 8.18809C94.2303 8.31256 94.4772 8.71122 94.4772 9.34325C94.4475 10.1607 94.2661 10.9656 93.9423 11.7178L91.8534 17.0774C91.7946 17.231 91.7202 17.2719 91.6869 17.2719C91.6535 17.2719 91.6046 17.2563 91.5418 17.0774L89.1238 9.41521C89.0688 9.25674 89.0391 9.09075 89.0356 8.9232C89.0356 8.43313 89.3844 8.27755 89.6921 8.14531C89.939 8.03446 90.1702 7.93139 90.1702 7.67274C90.1702 7.37326 90.0408 7.25658 89.7116 7.25658L89.3491 7.28769C88.8452 7.34873 88.3381 7.3799 87.8305 7.38104C87.127 7.38104 86.5509 7.33242 86.1335 7.29547L85.5026 7.25658C85.1734 7.25658 84.9833 7.31881 84.9833 7.64552C84.9833 7.97223 85.2518 8.06752 85.5614 8.19004C85.9533 8.34173 86.4314 8.53036 86.6567 9.1974L87.1976 10.7901C87.282 11.0171 87.3219 11.2581 87.3151 11.4999C87.3004 11.7014 87.2507 11.8988 87.1682 12.0834L84.8912 16.9899C84.8488 17.082 84.7976 17.1699 84.7384 17.2524C84.7168 17.2524 84.6443 17.163 84.5816 16.9626L82.1968 9.82165C82.1016 9.57309 82.0519 9.30967 82.0499 9.04377C82.0499 8.48564 82.4418 8.28338 82.7827 8.10253C83.0355 7.97417 83.2785 7.8536 83.2785 7.60468C83.2842 7.50613 83.252 7.4091 83.1883 7.33327C83.1246 7.25743 83.0343 7.20846 82.9356 7.19629L82.7142 7.2274C81.938 7.36355 81.1509 7.42865 80.3627 7.42188C79.9814 7.41748 79.6009 7.38564 79.2242 7.32658L78.6031 7.2663C78.2993 7.2663 78.1445 7.38493 78.1445 7.62024C78.1445 7.95084 78.3836 8.05585 78.6344 8.16865C78.784 8.22845 78.925 8.30756 79.0538 8.40396C79.5239 8.87166 79.8688 9.44857 80.057 10.0822L83.3118 20.1364C83.4607 20.607 83.5548 20.854 83.9467 20.854C84.27 20.854 84.37 20.644 84.5502 20.2706L87.6561 13.2327C87.7364 13.0635 87.7893 12.976 87.852 12.976C87.8873 12.976 87.9971 13.0499 88.048 13.2288L90.3779 20.2298C90.4915 20.6187 90.613 20.8132 90.954 20.8132C91.2616 20.8132 91.4184 20.5779 91.5575 20.2298L95.7548 9.66802C96.3662 8.26783 98.0886 8.14337 98.749 9.71469C99.4584 11.5097 102.229 18.534 102.229 18.534L102.315 18.7615C102.576 19.4383 102.823 20.08 102.823 20.7801C102.823 21.0388 102.746 21.8672 102.153 23.2363L102.125 23.3024C101.369 25.0527 101.097 25.0002 100.221 25.1868C98.6295 25.5252 98.2454 25.9375 98.314 26.801C98.3493 27.2502 98.99 28.032 99.7503 28.0106C101.077 27.9775 102.043 27.291 103.05 23.8819L104.085 20.9299L108.004 9.48327C108.233 8.85124 108.496 8.43507 108.762 8.2795C108.885 8.21619 109.017 8.1741 109.154 8.15503C109.379 8.11225 109.595 8.06947 109.595 7.70969C109.595 7.39271 109.444 7.26241 109.076 7.26241" fill="#949494"/>
<path id="Vector_5" d="M29.5519 11.0387C29.5519 12.6042 30.4631 13.5824 32.8067 14.5236L33.7434 14.9028C35.7284 15.6963 36.9276 16.1766 36.9276 17.5107C36.9276 18.9809 35.6951 20.0077 33.9256 20.0077C32.26 20.0077 31.0921 19.1929 30.4592 17.5943C30.3555 17.3114 30.2749 17.0207 30.2182 16.725C30.1222 16.2894 30.0634 15.9997 29.7048 15.9997C29.3462 15.9997 29.1953 16.2311 29.1953 16.6881L29.2286 19.2162C29.2286 19.9008 29.4246 19.9591 29.8792 20.0349C30.0375 20.064 30.1929 20.107 30.3436 20.1633L30.6728 20.2839C31.5924 20.7165 32.5945 20.9492 33.6121 20.9665C36.5788 20.9665 38.7363 19.1229 38.7363 16.5928C38.7363 14.9554 37.8114 13.8469 35.8322 13.1059L35.3678 12.9309C32.8459 11.9994 31.3194 11.4393 31.3194 10.0255C31.3194 8.97147 32.2816 8.26165 33.7199 8.26165C34.3117 8.26677 34.8949 8.40218 35.4276 8.6581C35.9603 8.91402 36.4291 9.28407 36.8003 9.74157C36.9369 9.92642 37.0379 10.1348 37.0981 10.3561C37.1941 10.642 37.2764 10.887 37.5841 10.887C37.8917 10.887 37.9544 10.6206 37.9544 10.3308L37.9172 8.62142C37.8819 7.86492 36.5925 7.45459 34.2881 7.45459C31.4135 7.45459 29.5578 8.86062 29.5578 11.0368" fill="#949494"/>
<path id="Vector_6" d="M41.843 4.97895C41.6313 5.36789 41.0689 6.76614 40.4497 7.04424C40.1704 7.14035 39.8773 7.19155 39.5817 7.19592C39.4513 7.20144 39.3282 7.25673 39.238 7.35023C39.1478 7.44374 39.0975 7.56822 39.0977 7.69766C39.0982 7.80228 39.1195 7.90577 39.1603 8.0022C39.2012 8.09863 39.2609 8.18612 39.3359 8.25964C39.4108 8.33316 39.4997 8.39128 39.5974 8.43067C39.695 8.47005 39.7996 8.48993 39.905 8.48916H40.6888V16.7931C40.6888 19.6849 41.6059 20.8148 43.9671 20.8148C45.9129 20.8148 47.3826 19.7179 47.3394 19.1462C47.3257 18.9517 47.0514 18.8467 46.6223 19.0762C46.0571 19.4259 45.407 19.6168 44.7411 19.6285C43.4517 19.6285 42.7816 18.8778 42.7816 17.4543V8.49499H46.4185C46.5249 8.49576 46.6305 8.47568 46.7291 8.43591C46.8277 8.39613 46.9174 8.33744 46.9931 8.2632C47.0689 8.18895 47.1291 8.10061 47.1703 8.00323C47.2116 7.90585 47.2331 7.80135 47.2336 7.69572C47.2331 7.63263 47.2201 7.57027 47.1953 7.51219C47.1705 7.45411 47.1344 7.40144 47.0891 7.35719C47.0438 7.31295 46.9901 7.278 46.9312 7.25433C46.8723 7.23066 46.8093 7.21875 46.7457 7.21926H42.7816V4.56472C42.7816 4.32747 42.7659 4.17578 42.5406 4.17578C42.3152 4.17578 42.0977 4.51805 41.843 4.98867" fill="#949494"/>
<path id="Vector_7" d="M140.998 8.82016C141.003 8.9446 140.981 9.0686 140.935 9.18449C140.89 9.30038 140.82 9.4057 140.732 9.49393C140.643 9.58215 140.537 9.65141 140.421 9.69742C140.304 9.74343 140.179 9.7652 140.054 9.76141C139.867 9.76179 139.684 9.70708 139.528 9.60418C139.372 9.50129 139.25 9.35485 139.178 9.18336C139.106 9.01187 139.087 8.82305 139.123 8.64077C139.159 8.45849 139.249 8.29094 139.381 8.1593C139.513 8.02767 139.682 7.93786 139.865 7.90124C140.049 7.86462 140.239 7.88283 140.412 7.95357C140.585 8.02431 140.733 8.14439 140.838 8.29865C140.942 8.4529 140.998 8.63439 140.998 8.82016ZM139.317 8.82016C139.314 8.91763 139.332 9.01462 139.368 9.10538C139.403 9.19614 139.457 9.27881 139.526 9.34848C139.595 9.41814 139.677 9.47338 139.768 9.51091C139.858 9.54844 139.956 9.56749 140.054 9.56693C140.153 9.57302 140.252 9.55776 140.344 9.52222C140.436 9.48668 140.519 9.4317 140.588 9.36107C140.657 9.29044 140.709 9.20585 140.742 9.11314C140.775 9.02042 140.786 8.92179 140.777 8.82405C140.782 8.72576 140.767 8.62747 140.733 8.53515C140.698 8.44283 140.645 8.35841 140.577 8.28704C140.509 8.21567 140.427 8.15883 140.335 8.11999C140.244 8.08116 140.146 8.06113 140.047 8.06113C139.948 8.06113 139.85 8.08116 139.759 8.11999C139.667 8.15883 139.585 8.21567 139.517 8.28704C139.449 8.35841 139.396 8.44283 139.361 8.53515C139.327 8.62747 139.312 8.72576 139.317 8.82405V8.82016ZM139.672 9.26939V8.34176H140.081C140.291 8.34176 140.473 8.41372 140.473 8.60819C140.472 8.65637 140.455 8.70291 140.426 8.74152C140.397 8.78013 140.357 8.80894 140.311 8.82405C140.385 8.85322 140.444 8.91934 140.444 9.06909C140.443 9.13411 140.447 9.19913 140.456 9.26356H140.228C140.214 9.19974 140.207 9.13451 140.207 9.06909C140.207 8.9524 140.177 8.90184 140.05 8.90184H139.909V9.26356L139.672 9.26939ZM139.909 8.7521H140.072C140.164 8.7521 140.226 8.72487 140.226 8.62569C140.226 8.52651 140.187 8.50318 140.072 8.50318H139.909V8.7521Z" fill="#949494"/>
<path id="Vector_8" d="M79.138 19.6056C78.1327 19.6931 77.976 19.1583 77.976 17.6317V11.9532C77.976 8.43323 76.6494 7.14194 72.9125 7.18667C72.201 7.21193 71.5014 7.37511 70.8531 7.66701C70.4333 7.87467 70.0333 8.1194 69.6578 8.39822C69.3136 8.65356 69.0166 8.96608 68.7799 9.32196C68.6838 9.44453 68.6133 9.58489 68.5726 9.73483C68.5319 9.88476 68.5218 10.0413 68.5428 10.1951C68.5839 10.4927 68.6545 10.5841 68.7858 10.5996C68.8915 10.6242 69.0014 10.6242 69.1071 10.5996C69.217 10.5786 69.3245 10.5473 69.4285 10.5063C69.626 10.437 69.8157 10.3477 69.9948 10.2399C70.1388 10.1471 70.2487 10.0107 70.3083 9.85093C70.3887 9.60637 70.4897 9.36893 70.6101 9.1411C70.6883 8.96785 70.7941 8.80827 70.9236 8.66854C71.2705 8.32432 71.9994 8.07346 72.7793 8.07346C74.8995 8.07346 75.7676 9.15861 75.7676 11.0061V13.1064C69.5813 12.8536 68.1254 15.335 68.1097 16.9122C68.0784 19.2458 70.1614 20.8794 72.1131 20.8016C74.0334 20.7297 75.0661 20.0023 76.0125 18.9814C76.4279 20.0821 77.1334 20.7316 78.2425 20.7316C79.3006 20.7316 80.0707 20.366 80.0707 19.9537C80.0727 19.4481 79.3868 19.5842 79.138 19.6056ZM75.7695 17.1708C75.3541 18.5594 73.9962 19.6737 72.4971 19.487C70.6414 19.2556 70.0261 18.1257 69.987 17.0658C69.9595 16.2393 69.8811 14.2538 75.8009 14.1099L75.7695 17.1708Z" fill="#949494"/>
<path id="Vector_9" d="M130.136 11.0387C130.136 12.6042 131.049 13.5824 133.393 14.5237L134.327 14.9029C136.314 15.6963 137.514 16.1767 137.514 17.5107C137.514 18.9809 136.281 20.0077 134.512 20.0077C132.846 20.0077 131.676 19.1929 131.045 17.5944C130.941 17.3115 130.861 17.0208 130.804 16.7251C130.708 16.2895 130.649 15.9997 130.291 15.9997C129.932 15.9997 129.781 16.2253 129.781 16.6823L129.817 19.2104C129.817 19.895 130.012 19.9533 130.467 20.0291C130.625 20.0584 130.779 20.1014 130.93 20.1575L131.261 20.2781C132.18 20.7107 133.182 20.9434 134.2 20.9607C137.165 20.9723 139.32 19.1287 139.32 16.5987C139.32 14.9612 138.397 13.8527 136.418 13.1118L135.954 12.9368C133.43 12.0052 131.905 11.4452 131.905 10.0314C131.905 8.97733 132.868 8.26751 134.306 8.26751C134.898 8.27277 135.481 8.40823 136.013 8.66414C136.546 8.92005 137.015 9.29004 137.386 9.74743C137.523 9.93228 137.624 10.1406 137.684 10.362C137.778 10.6478 137.862 10.8929 138.17 10.8929C138.478 10.8929 138.536 10.6264 138.536 10.3367L138.499 8.62728C138.464 7.87078 137.173 7.46045 134.87 7.46045C131.996 7.46045 130.138 8.86648 130.138 11.0426" fill="#949494"/>
<path id="Vector_10" d="M11.138 9.40707C11.9335 8.98277 12.5954 8.34845 13.0505 7.57421C13.5056 6.79997 13.7362 5.91593 13.7167 5.0198C13.7167 1.87325 11.3124 0.000488281 7.28162 0.000488281C6.55855 0.000488281 5.87859 0.0393826 5.22411 0.0782769L3.54675 0.150231C2.63165 0.150231 1.90662 0.0880004 1.37167 0.0471614L0.629009 0.000488281C0.195953 0.000488281 0 0.0685533 0 0.451662C0 0.782264 0.276294 0.840605 0.623131 0.906725C1.00031 0.955782 1.35996 1.09455 1.67148 1.31123C2.41806 1.86936 2.54739 2.63558 2.54739 3.95409V16.7892C2.54739 18.063 2.44941 18.7767 1.88703 19.3737C1.65659 19.6115 1.37629 19.7961 1.06598 19.9144C0.764217 20.0486 0.527114 20.1536 0.527114 20.4647C0.527114 20.6864 0.705431 20.9198 0.873951 20.9198L1.29525 20.8828C2.14093 20.7868 2.99144 20.7387 3.84264 20.7389C4.29137 20.7389 4.82241 20.7875 5.45141 20.8439C6.30969 20.9198 7.28554 21.0054 8.41814 21.0054C12.7291 21.0054 15.4215 18.5414 15.4215 14.5664C15.4352 11.7796 13.9127 9.95159 11.138 9.40707ZM4.82045 2.67447C4.82045 1.29372 5.18492 1.08564 6.44098 1.08564C9.44298 1.08564 11.7062 3.14509 11.7062 5.87742C11.7062 8.11773 10.4854 9.07064 7.61866 9.07064H5.62581C4.89295 9.07064 4.82045 8.87617 4.82045 8.07105V2.67447ZM8.06347 19.5935C5.56507 19.5935 4.82045 19.1676 4.82045 17.3726V11.2157C4.82045 10.2978 4.92626 10.185 5.7669 10.185H7.47953C11.1301 10.185 13.2268 12.0966 13.2268 15.424C13.2268 18.4753 11.428 19.6013 8.06347 19.6013V19.5935Z" fill="#949494"/>
<path id="Vector_11" d="M58.4547 0.0318477C57.5891 0.133876 56.7182 0.183881 55.8465 0.181591C55.1982 0.174824 54.5507 0.134579 53.9066 0.0610184L53.1777 0.000732292C52.7975 0.000732292 52.6055 0.0785209 52.6055 0.484966C52.6055 0.811678 52.8445 0.862241 53.1463 0.926417C53.4997 0.977189 53.8328 1.12163 54.1104 1.34453C54.9138 2.01935 54.9138 2.71944 54.9138 3.99518V16.8634C54.9138 17.9835 54.8668 18.7672 54.2476 19.4537C54.0361 19.6771 53.7797 19.854 53.4951 19.973C53.1894 20.1149 52.9464 20.2335 52.9464 20.6089C52.9448 20.7007 52.976 20.7901 53.0345 20.8613C53.0929 20.9325 53.1749 20.9808 53.2658 20.9978L53.5931 20.9745C54.1809 20.9278 55.5918 20.817 57.8825 20.817C59.3443 20.817 60.5553 20.8831 61.5253 20.9356L63.0929 20.9978C64.5586 20.9978 65.4737 20.57 66.2477 19.5237C66.8767 18.67 67.2118 17.5615 67.2118 17.1006C67.2118 16.7681 67.0942 16.5541 66.9179 16.5541C66.7415 16.5541 66.5671 16.7681 66.3535 17.0578C66.0402 17.5263 65.6415 17.9326 65.1778 18.2558C64.1981 18.8995 62.0876 19.6501 59.3149 19.6501C57.618 19.6501 57.1594 19.2612 57.1594 17.8124V3.99518C57.1594 2.76612 57.1888 1.98823 57.7943 1.40287C58.0156 1.22456 58.2709 1.09228 58.5448 1.01393C58.8877 0.893356 59.1836 0.786397 59.1836 0.430514C59.1901 0.372676 59.1834 0.31413 59.1641 0.259192C59.1447 0.204253 59.1132 0.154322 59.0719 0.113078C59.0305 0.0718348 58.9803 0.0403301 58.9251 0.0208864C58.8698 0.00144264 58.8108 -0.00544459 58.7525 0.000732292L58.4547 0.0318477Z" fill="#949494"/>
</g>
<defs>
<clipPath id="clip0_1123_16115">
<rect width="141" height="28" fill="white" transform="translate(0 0.000488281)"/>
</clipPath>
</defs>
</svg>
