<svg width="112" height="33" viewBox="0 0 112 33" fill="none" xmlns="http://www.w3.org/2000/svg">
<g id="chambers_blue_nopadding 1" clip-path="url(#clip0_1123_16091)">
<g id="Clip path group">
<mask id="mask0_1123_16091" style="mask-type:luminance" maskUnits="userSpaceOnUse" x="0" y="0" width="112" height="34">
<g id="clip0_2226_337166">
<path id="Vector" d="M112 0.000488281H0V33.0005H112V0.000488281Z" fill="white"/>
</g>
</mask>
<g mask="url(#mask0_1123_16091)">
<g id="Group">
<path id="Vector_2" d="M11.6861 2.00379C12.3972 2.29931 13.0921 2.70976 13.7871 3.25155C13.981 3.39931 14.1426 3.4814 14.2719 3.4814C14.6113 3.4814 14.8376 2.95603 14.9346 1.9217H15.5164C15.4517 3.10379 15.4194 5.18886 15.4194 8.19334H14.8376C14.6921 6.91274 14.482 5.94409 14.2234 5.27095C13.9649 4.59782 13.5285 4.00677 12.9144 3.51424C12.4942 3.10379 11.9931 2.79185 11.4275 2.562C10.8618 2.34857 10.28 2.23364 9.66587 2.23364C7.95274 2.23364 6.67597 3.08737 5.83557 4.79483C4.99516 6.5023 4.59112 8.62021 4.59112 11.165C4.59112 13.6933 5.02749 15.7948 5.90021 17.4858C6.77294 19.1769 8.06587 20.0306 9.779 20.0306C10.3608 20.0306 10.9265 19.9157 11.5083 19.7022C12.0739 19.4888 12.5588 19.1769 12.9467 18.75C13.577 18.2739 14.0133 17.6664 14.2558 16.9276C14.4982 16.2053 14.6921 15.1381 14.8376 13.7426H15.4194C15.4194 16.8784 15.4517 19.0455 15.5164 20.2769H14.9346C14.8861 19.7187 14.8053 19.3246 14.7245 19.0948C14.6275 18.8649 14.4982 18.75 14.3366 18.75C14.2073 18.75 14.0295 18.8157 13.8032 18.9634C13.0436 19.5217 12.3002 19.9321 11.6053 20.2276C10.9103 20.5067 10.0699 20.6545 9.08405 20.6545C7.27395 20.6545 5.70627 20.2769 4.3487 19.5381C2.99112 18.7993 1.94062 17.7157 1.19718 16.3038C0.453748 14.8918 0.0820312 13.2172 0.0820312 11.2635C0.0820312 9.35901 0.46991 7.68439 1.22951 6.20677C1.9891 4.74558 3.05577 3.59633 4.42951 2.79185C5.80324 1.98737 7.35476 1.57692 9.11637 1.57692C10.1022 1.5605 10.975 1.70827 11.6861 2.00379Z" fill="#949494"/>
<path id="Vector_3" d="M21.5633 8.91541C22.3229 7.30646 23.7128 6.50198 25.7168 6.50198C27.0421 6.50198 27.9794 6.84676 28.5289 7.51989C28.8198 7.84825 29.0299 8.27512 29.1592 8.80049C29.2885 9.32586 29.3532 10.0154 29.3532 10.8856V17.8632C29.3532 18.5691 29.4663 19.0617 29.7087 19.3244C29.9511 19.5871 30.3713 19.7184 30.9855 19.7184V20.2602C29.2077 20.1945 25.9269 20.1945 24.2946 20.2602V19.7184C24.8118 19.7184 25.1673 19.5871 25.3612 19.3244C25.5713 19.0617 25.6683 18.5691 25.6683 17.8632V9.80198C25.6683 9.09601 25.5552 8.55422 25.3289 8.19303C25.1027 7.83183 24.6825 7.65123 24.0845 7.65123C23.3734 7.65123 22.7754 7.93034 22.2905 8.48855C21.8057 9.04676 21.5633 9.76914 21.5633 10.6229V17.8632C21.5633 18.5691 21.6602 19.0617 21.8703 19.3244C22.0804 19.5871 22.436 19.7184 22.937 19.7184V20.2602C21.3047 20.1945 18.0239 20.1945 16.2461 20.2602V19.7184C16.8441 19.7184 17.2643 19.5871 17.5067 19.3244C17.7491 19.0617 17.8784 18.5691 17.8784 17.8632V3.10347C17.8784 2.31541 17.7491 1.72437 17.5067 1.36317C17.2643 1.00198 16.8441 0.821384 16.2461 0.821384V0.279593C16.7956 0.328846 17.3128 0.361682 17.8299 0.361682C19.3168 0.361682 20.5451 0.246757 21.5633 0.000488281V8.91541Z" fill="#949494"/>
<path id="Vector_4" d="M64.3881 19.324C64.6305 19.5867 65.0507 19.718 65.6487 19.718V20.2598C63.9517 20.1942 60.7517 20.1942 59.1194 20.2598V19.718C59.5719 19.718 59.8952 19.5867 60.0729 19.324C60.2507 19.0613 60.3477 18.5688 60.3477 17.8464V9.80165C60.3477 9.07926 60.2346 8.53747 60.0245 8.17628C59.8143 7.81508 59.4103 7.6509 58.8123 7.6509C58.182 7.6509 57.6325 7.91359 57.1638 8.45538C56.6952 8.99717 56.4204 9.65389 56.3396 10.4255V10.8852V17.8628C56.3396 18.5688 56.4527 19.0613 56.6628 19.324C56.8729 19.5867 57.2608 19.718 57.8265 19.718V20.2598C56.1941 20.1942 53.075 20.1942 51.4426 20.2598V19.718C51.8952 19.718 52.2184 19.5867 52.3962 19.324C52.5739 19.0613 52.6709 18.5688 52.6709 17.8628V9.80165C52.6709 9.07926 52.5739 8.53747 52.3962 8.17628C52.2022 7.81508 51.8467 7.6509 51.2972 7.6509C50.6184 7.6509 50.0366 7.94642 49.5517 8.52105C49.0669 9.09568 48.8245 9.81807 48.8245 10.6554V17.8628C48.8245 18.5688 48.9214 19.0613 49.0992 19.324C49.277 19.5867 49.6002 19.718 50.0527 19.718V20.2598C48.5497 20.1942 45.3497 20.1942 43.5234 20.2598V19.718C44.1376 19.718 44.5578 19.5867 44.8002 19.324C45.0426 19.0613 45.1558 18.5688 45.1558 17.8628V9.70314C45.1558 8.91508 45.0426 8.32404 44.8002 7.96284C44.5578 7.60165 44.1376 7.42105 43.5234 7.42105V6.87926C44.0729 6.92851 44.5901 6.96135 45.1073 6.96135C46.6265 6.96135 47.8709 6.84642 48.8406 6.60016V8.9315C49.584 7.32254 50.9093 6.51807 52.8002 6.51807C54.0931 6.51807 55.0305 6.86284 55.6123 7.53598C55.9356 7.88075 56.1457 8.40613 56.2426 9.09568C56.679 8.15986 57.2608 7.50314 57.9719 7.10911C58.683 6.71508 59.5234 6.51807 60.477 6.51807C61.7699 6.51807 62.7073 6.86284 63.2891 7.53598C63.5638 7.84792 63.7578 8.27478 63.8709 8.80016C63.984 9.34195 64.0487 10.0315 64.0487 10.9016V17.8792C64.0164 18.5688 64.1295 19.0613 64.3881 19.324Z" fill="#949494"/>
<path id="Vector_5" d="M77.4136 8.22586C78.2701 9.37511 78.6903 11.0333 78.6903 13.2169C78.6903 15.7617 78.1408 17.6333 77.058 18.8318C75.9752 20.0303 74.5691 20.6378 72.8398 20.6378C71.66 20.6378 70.7065 20.3423 69.9792 19.7348C69.3651 19.6856 68.751 19.7512 68.1368 19.9482C67.5227 20.1453 67.0378 20.3915 66.6823 20.7035L66.2944 20.4736C66.4075 20.0468 66.4722 19.5542 66.4722 19.0288V3.10347C66.4722 2.31541 66.3429 1.72437 66.1004 1.36317C65.858 1.00198 65.4378 0.821384 64.8398 0.821384V0.279593C65.3732 0.328846 65.8903 0.361682 66.4237 0.361682C67.9105 0.361682 69.1388 0.246757 70.157 0.000488281V8.96467C70.5126 8.17661 71.0297 7.55273 71.7085 7.14228C72.3873 6.71541 73.1792 6.50198 74.052 6.50198C75.4419 6.50198 76.557 7.07661 77.4136 8.22586ZM74.1328 18.4871C74.5853 17.4199 74.8277 15.7781 74.8277 13.5945C74.8277 11.4602 74.6338 9.94974 74.2459 9.01392C73.858 8.09452 73.2924 7.63482 72.5651 7.63482C72.0156 7.63482 71.5146 7.83183 71.0782 8.24228C70.6257 8.65273 70.3186 9.19452 70.1732 9.88407V19.4065C70.7388 19.8662 71.3691 20.1124 72.0641 20.1124C72.9853 20.096 73.6802 19.5542 74.1328 18.4871Z" fill="#949494"/>
<path id="Vector_6" d="M90.2801 16.4349L90.7326 16.5826C90.3932 17.699 89.7791 18.6677 88.9064 19.4557C88.0336 20.2438 86.9346 20.6378 85.6256 20.6378C83.8155 20.6378 82.3932 20.0468 81.3266 18.8811C80.2599 17.7155 79.7266 15.9915 79.7266 13.7094C79.7266 11.3781 80.2922 9.58852 81.4397 8.35718C82.5872 7.12583 84.0902 6.50195 85.9811 6.50195C89.1811 6.50195 90.7811 8.42285 90.7811 12.2646H83.6054C83.5892 12.5273 83.573 12.9378 83.573 13.4796C83.573 14.6124 83.7346 15.5646 84.0417 16.3363C84.3488 17.0916 84.769 17.6498 85.27 17.9946C85.771 18.3393 86.3043 18.5199 86.8862 18.5199C88.3084 18.5199 89.4235 17.814 90.2801 16.4349ZM84.3165 8.20942C83.9124 8.98106 83.67 10.1631 83.5569 11.7721H87.5649C87.5973 10.4094 87.468 9.27658 87.1771 8.39001C86.8862 7.50345 86.4336 7.06016 85.8357 7.06016C85.2215 7.06016 84.7205 7.43777 84.3165 8.20942Z" fill="#949494"/>
<path id="Vector_7" d="M101.447 7.2079C101.835 7.6676 102.029 8.24223 102.029 8.89895C102.029 9.53924 101.851 10.0646 101.479 10.4751C101.108 10.8855 100.639 11.0825 100.041 11.0825C99.4591 11.0825 99.0066 10.9348 98.6672 10.6228C98.3278 10.3273 98.15 9.91686 98.15 9.42432C98.15 8.58701 98.5217 7.91387 99.2652 7.40492C99.2005 7.3885 99.0874 7.37208 98.9581 7.37208C98.7803 7.37208 98.651 7.3885 98.5541 7.42133C97.9076 7.51984 97.3581 7.93029 96.9056 8.61984C96.4531 9.30939 96.2268 10.0154 96.2268 10.7542V17.6333C96.2268 18.4213 96.4207 18.9795 96.8086 19.2915C97.1965 19.6034 97.7945 19.7512 98.6349 19.7512V20.293C98.3924 20.293 98.1985 20.2766 98.0531 20.2601C96.3238 20.2109 93.0753 20.2109 91.443 20.2601C91.3137 20.2766 91.1359 20.293 90.9258 20.293V19.7512C91.5399 19.7512 91.9601 19.6198 92.2026 19.3572C92.445 19.0945 92.5581 18.6019 92.5581 17.896V9.70342C92.5581 8.91536 92.445 8.32432 92.2026 7.96313C91.9601 7.60193 91.5399 7.42133 90.9258 7.42133V6.87954C91.4753 6.9288 91.9925 6.96163 92.5096 6.96163C94.0288 6.96163 95.2733 6.84671 96.243 6.60044V9.01387C96.5662 8.27507 97.0349 7.6676 97.649 7.2079C98.2632 6.7482 98.9581 6.51835 99.7177 6.51835C100.477 6.50193 101.059 6.7482 101.447 7.2079Z" fill="#949494"/>
<path id="Vector_8" d="M108.51 6.74853C109.059 6.91271 109.463 7.0933 109.754 7.30674C109.932 7.42166 110.077 7.48733 110.206 7.48733C110.352 7.48733 110.497 7.40524 110.594 7.24106C110.708 7.07688 110.772 6.84703 110.804 6.53509H111.338C111.273 7.42166 111.241 8.93211 111.241 11.0993H110.708C110.562 9.96644 110.223 8.99778 109.705 8.22614C109.188 7.4545 108.429 7.07688 107.443 7.07688C106.926 7.07688 106.505 7.22465 106.182 7.52017C105.843 7.81569 105.681 8.22614 105.681 8.73509C105.681 9.32614 105.875 9.83509 106.263 10.2455C106.651 10.6724 107.265 11.1814 108.105 11.7888L108.849 12.3306C109.883 13.1187 110.659 13.8411 111.144 14.4649C111.645 15.0888 111.887 15.8605 111.887 16.7963C111.887 17.5515 111.677 18.2246 111.241 18.8157C110.804 19.4067 110.223 19.85 109.495 20.162C108.768 20.4739 107.96 20.6217 107.071 20.6217C106.134 20.6217 105.342 20.4411 104.679 20.0799C104.13 19.8008 103.742 19.6202 103.499 19.5381C103.322 19.4888 103.176 19.5381 103.047 19.7023C102.918 19.8664 102.821 20.1127 102.756 20.4411H102.223C102.287 19.456 102.32 17.7321 102.32 15.253H102.853C103.192 18.4381 104.34 20.0306 106.295 20.0306C106.796 20.0306 107.217 19.8829 107.556 19.5709C107.912 19.2754 108.073 18.7993 108.073 18.1918C108.073 17.7157 107.96 17.2724 107.75 16.8948C107.54 16.5172 107.265 16.1724 106.942 15.8769C106.619 15.5814 106.134 15.1709 105.487 14.662C104.728 14.0381 104.146 13.5455 103.742 13.1515C103.338 12.7739 102.998 12.3142 102.724 11.8052C102.449 11.2963 102.303 10.7052 102.303 10.0649C102.303 8.96494 102.724 8.07838 103.58 7.43808C104.437 6.79778 105.471 6.48584 106.699 6.48584C107.378 6.50226 107.96 6.58435 108.51 6.74853Z" fill="#949494"/>
<path id="Vector_9" d="M30.5781 24.972C30.0286 24.972 29.5922 24.9556 29.2851 24.9392V25.2019C29.6245 25.2183 29.867 25.2676 30.0286 25.3332C30.1902 25.3989 30.3033 25.5303 30.3518 25.678C30.4003 25.8422 30.4326 26.0885 30.4326 26.4168V30.6198L26.4084 24.9228C26.0851 24.9556 25.6973 24.9556 25.2447 24.9556C24.7437 24.9556 24.3559 24.9392 24.0649 24.9228V25.1855C24.372 25.2019 24.5821 25.2347 24.7276 25.284C24.873 25.3332 24.9538 25.4317 25.0185 25.5795C25.067 25.7273 25.0993 25.9571 25.0993 26.2855V31.2437C25.0993 31.572 25.067 31.8183 25.0185 31.9825C24.97 32.1467 24.873 32.2616 24.7276 32.3437C24.5821 32.4094 23.7256 32.8362 23.2084 31.6541L20.2508 24.8735H20.0569L17.2609 31.2929C17.1155 31.6213 16.97 31.9004 16.8084 32.0974C16.6468 32.2944 16.4528 32.4258 16.2266 32.4914V32.7541C16.4528 32.7213 18.2144 32.7213 18.473 32.7541V32.4914C18.1336 32.4586 17.875 32.3765 17.7296 32.2616C17.568 32.1303 17.5033 31.9661 17.5033 31.7362C17.5033 31.5228 17.568 31.2437 17.7134 30.9153L18.1498 29.9467H21.2205L21.867 31.4079C21.9801 31.6705 22.0447 31.8676 22.0447 32.0153C22.0447 32.1795 21.9639 32.2944 21.8185 32.3601C21.673 32.4258 21.4468 32.475 21.1235 32.4914V32.7541C21.4791 32.7213 26.2468 32.7213 26.5377 32.7541V32.4914C26.1983 32.475 25.9559 32.4258 25.7942 32.3601C25.6326 32.2944 25.5195 32.1631 25.471 32.0153C25.4225 31.8511 25.3902 31.6049 25.3902 31.2765V25.7273L30.4326 32.8362H30.7235V26.4332C30.7235 26.1049 30.7559 25.8586 30.8043 25.6944C30.8528 25.5303 30.9498 25.4153 31.0952 25.3332C31.2407 25.2676 31.4508 25.2183 31.7579 25.2019V24.9392C31.4831 24.9556 31.0791 24.972 30.5781 24.972ZM18.2468 29.684L19.6851 26.4332L21.1074 29.684H18.2468Z" fill="#949494"/>
<path id="Vector_10" d="M38.5607 25.9077C39.2233 26.548 39.5466 27.5003 39.5466 28.7316C39.5466 29.5361 39.3849 30.2421 39.0617 30.8495C38.7385 31.457 38.2698 31.9167 37.6718 32.2451C37.0577 32.5734 36.3304 32.7376 35.4738 32.7376L34.7466 32.7212C34.2779 32.7048 33.9223 32.6883 33.7122 32.6883C33.0173 32.6883 32.5001 32.7048 32.1445 32.7212V32.4585C32.4516 32.4421 32.6617 32.4092 32.8072 32.36C32.9526 32.3107 33.0334 32.2122 33.0981 32.0645C33.1466 31.9167 33.1789 31.6868 33.1789 31.3585V26.2854C33.1789 25.957 33.1466 25.7271 33.0981 25.5794C33.0496 25.4316 32.9526 25.3331 32.8072 25.2839C32.6617 25.2346 32.4516 25.2018 32.1445 25.1854V24.9227C32.4354 24.9555 32.8395 24.9555 33.3728 24.9555L34.4395 24.9391C35.0051 24.9227 35.393 24.9062 35.587 24.9062C36.9122 24.9391 37.8981 25.2674 38.5607 25.9077ZM34.6819 25.251C34.5526 25.3167 34.4556 25.4152 34.4072 25.5794C34.3587 25.7271 34.3263 25.957 34.3263 26.2689V31.3913C34.3263 31.7033 34.3587 31.9331 34.4072 32.0809C34.4556 32.2286 34.5526 32.3436 34.6819 32.4092C34.8112 32.4749 35.0051 32.4913 35.2799 32.4913C36.0395 32.4913 36.6536 32.36 37.09 32.0809C37.5264 31.8018 37.8334 31.3913 38.0112 30.8495C38.189 30.3077 38.2698 29.6182 38.2698 28.7645C38.2698 27.5167 38.0435 26.5973 37.591 26.0227C37.1385 25.448 36.3627 25.1525 35.2637 25.1525C35.0213 25.1689 34.8274 25.2018 34.6819 25.251Z" fill="#949494"/>
<path id="Vector_11" d="M45.6745 29.0602V31.3751C45.6745 31.7035 45.7069 31.9333 45.7715 32.0811C45.8362 32.2288 45.9493 32.3273 46.1271 32.3766C46.2887 32.4259 46.5634 32.4587 46.9513 32.4751V32.7378C46.5149 32.705 43.8321 32.705 43.4766 32.7378V32.4751C43.7836 32.4587 43.9937 32.4259 44.1392 32.3766C44.2846 32.3273 44.3655 32.2288 44.4301 32.0811C44.4786 31.9333 44.5109 31.7035 44.5109 31.3751V25.0214C44.5109 24.693 44.4786 24.4632 44.4301 24.3154C44.3816 24.1676 44.2846 24.0691 44.1392 24.0199C43.9937 23.9706 43.7836 23.9378 43.4766 23.9214V23.6587C43.8321 23.6915 44.3493 23.6915 45.0119 23.6915L46.3695 23.6751C46.5311 23.6587 46.7089 23.6587 46.919 23.6587C47.9048 23.6587 48.6644 23.8885 49.1816 24.3482C49.6988 24.8079 49.9574 25.4154 49.9574 26.187C49.9574 26.6632 49.8604 27.1065 49.6503 27.5333C49.4402 27.9602 49.1008 28.3214 48.5998 28.6169C48.1149 28.9124 47.4523 29.0602 46.6442 29.0602H45.6745ZM46.0301 24.0035C45.9008 24.0691 45.8038 24.1676 45.7554 24.3318C45.7069 24.4796 45.6745 24.7094 45.6745 25.0214V28.8139H46.5149C47.3392 28.8139 47.9048 28.5841 48.2281 28.1408C48.5513 27.6975 48.6968 27.09 48.6968 26.3348C48.6968 25.4975 48.5351 24.89 48.2119 24.496C47.8887 24.102 47.3553 23.905 46.5958 23.905C46.3533 23.905 46.1594 23.9378 46.0301 24.0035Z" fill="#949494"/>
<path id="Vector_12" d="M70.5772 26.4494C70.5772 26.8927 70.5933 27.2375 70.6095 27.5002H70.3186C70.2701 26.9091 70.1893 26.4494 70.0762 26.1211C69.963 25.8091 69.7853 25.5793 69.5428 25.4315C69.3004 25.2837 68.9449 25.2181 68.4923 25.2181H67.6842V31.227C67.6842 31.5882 67.7166 31.8509 67.7812 32.0151C67.8459 32.1793 67.959 32.2942 68.1368 32.3434C68.2984 32.4091 68.5731 32.442 68.961 32.4584V32.7211C68.5247 32.6882 65.6479 32.6882 65.2438 32.7211V32.4584C65.6156 32.442 65.8903 32.4091 66.0681 32.3434C66.2297 32.2778 66.359 32.1793 66.4236 32.0151C66.4883 31.8509 66.5206 31.5882 66.5206 31.227V25.2181H65.7125C65.26 25.2181 64.9044 25.2837 64.662 25.4315C64.4196 25.5793 64.2418 25.8091 64.1287 26.1211C64.0156 26.433 63.9347 26.8927 63.8863 27.5002H63.5954C63.6277 27.2211 63.6277 26.8763 63.6277 26.4494C63.6277 26.0061 63.5954 25.4972 63.5469 24.939C64.2418 24.9718 65.4378 24.9718 67.1024 24.9718C68.7671 24.9718 69.9469 24.9554 70.658 24.939C70.6095 25.4972 70.5772 26.0061 70.5772 26.4494Z" fill="#949494"/>
<path id="Vector_13" d="M78.6611 25.2018C78.3702 25.2182 78.144 25.2674 77.9985 25.3331C77.8531 25.3988 77.7561 25.5301 77.7076 25.6943C77.6591 25.8585 77.6268 26.1048 77.6268 26.4331V32.8033H77.3359L72.2935 25.6943V31.2436C72.2935 31.5719 72.3258 31.8182 72.3743 31.9824C72.4228 32.1465 72.5359 32.2615 72.6975 32.3271C72.8591 32.3928 73.1015 32.4421 73.4409 32.4585V32.7212C73.1339 32.6883 71.2591 32.6883 70.9844 32.7212V32.4585C71.2753 32.4421 71.5015 32.3928 71.647 32.3271C71.7925 32.2615 71.8894 32.1301 71.9379 31.966C71.9864 31.8018 72.0187 31.5555 72.0187 31.2271V26.2689C72.0187 25.9406 71.9864 25.7107 71.9379 25.563C71.8894 25.4152 71.7925 25.3167 71.647 25.2674C71.5015 25.2182 71.2914 25.1854 70.9844 25.1689V24.9062C71.2591 24.9391 71.647 24.9391 72.1642 24.9391C72.6167 24.9391 73.0046 24.9227 73.3278 24.9062L77.3521 30.6033V26.4331C77.3521 26.1048 77.3197 25.8585 77.2712 25.6943C77.2228 25.5301 77.1096 25.4152 76.948 25.3495C76.7864 25.2839 76.544 25.2346 76.2046 25.2182V24.9555C76.5116 24.9883 76.9318 24.9883 77.4975 24.9883C77.9985 24.9883 78.3864 24.9719 78.6773 24.9555V25.2018H78.6611Z" fill="#949494"/>
<path id="Vector_14" d="M85.3343 32.7375C84.7848 32.7046 79.8393 32.7046 79.0312 32.7375V32.4748C79.3383 32.4584 79.5484 32.4255 79.6939 32.3763C79.8393 32.327 79.9201 32.2285 79.9848 32.0808C80.0333 31.933 80.0656 31.7031 80.0656 31.3748V26.3017C80.0656 25.9733 80.0333 25.7434 79.9848 25.5957C79.9363 25.4479 79.8393 25.3494 79.6939 25.3002C79.5484 25.2509 79.3383 25.2181 79.0312 25.2017V24.939C79.8232 24.9718 81.003 24.9718 82.5706 24.9718C83.7504 24.9718 84.5909 24.9554 85.0757 24.939C85.0111 25.4479 84.9949 25.9076 84.9949 26.3181C84.9949 26.6464 85.011 26.9091 85.0272 27.1061H84.7363C84.6717 26.4002 84.5262 25.9076 84.2999 25.6449C84.0737 25.3658 83.6858 25.2345 83.1686 25.2345H82.2474C81.9403 25.2345 81.7302 25.2509 81.5848 25.3002C81.4393 25.3494 81.3585 25.4479 81.2939 25.5957C81.2454 25.7434 81.2131 25.9733 81.2131 26.3017V28.6822H82.2636C82.5383 28.6822 82.7323 28.6166 82.8777 28.4688C83.0232 28.3211 83.1201 28.1733 83.1686 28.0091C83.2171 27.8449 83.2656 27.6315 83.3141 27.3688H83.605C83.5727 27.6643 83.5727 27.9763 83.5727 28.3211V28.8136C83.5727 29.142 83.605 29.6181 83.6535 30.242H83.3626C83.3141 29.8315 83.2171 29.5031 83.0717 29.2733C82.9262 29.0434 82.6676 28.9285 82.2797 28.9285H81.2292V31.3584C81.2292 31.6867 81.2616 31.9166 81.31 32.0643C81.3585 32.2121 81.4555 32.3106 81.6009 32.3599C81.7464 32.4091 81.9565 32.4255 82.2636 32.4255H83.1848C83.605 32.4255 83.9444 32.3599 84.1868 32.2285C84.4292 32.0972 84.6232 31.8673 84.7363 31.5718C84.8656 31.2763 84.9464 30.8494 84.9949 30.2912H85.2858C85.2535 30.5211 85.2535 30.833 85.2535 31.2106C85.2373 31.6703 85.2696 32.1628 85.3343 32.7375Z" fill="#949494"/>
<path id="Vector_15" d="M96.985 24.8735C97.1951 24.9556 97.4214 25.0705 97.6476 25.2183C97.8254 25.3332 97.9709 25.3989 98.084 25.3989C98.1648 25.3989 98.2133 25.3496 98.2618 25.2676C98.3103 25.1855 98.3426 25.0377 98.3587 24.8407H98.6497C98.6012 25.284 98.585 26.072 98.585 27.2049H98.2941C98.2456 26.5974 98.0517 26.072 97.7123 25.6452C97.3729 25.2183 96.8719 25.0049 96.2254 25.0049C95.7729 25.0049 95.4173 25.1198 95.1264 25.3661C94.8355 25.6123 94.6901 25.9079 94.6901 26.2691C94.6901 26.5317 94.7547 26.7616 94.884 26.9586C95.0133 27.1556 95.1749 27.3198 95.385 27.4676C95.5951 27.6153 95.886 27.7795 96.2577 27.9929L96.6779 28.2228C97.1951 28.5019 97.6153 28.7646 97.9385 28.978C98.2618 29.2079 98.5042 29.4541 98.6981 29.7332C98.8921 30.0123 98.989 30.3571 98.989 30.7347C98.989 31.4243 98.7466 31.9661 98.2456 32.3437C97.7608 32.7213 97.1305 32.9183 96.4032 32.9183C95.9992 32.9183 95.6759 32.8691 95.4173 32.787C95.1588 32.7049 94.9163 32.5899 94.6739 32.4422C94.4961 32.3273 94.3507 32.2616 94.2375 32.2616C94.1567 32.2616 94.1082 32.3108 94.0598 32.3929C94.0113 32.475 93.979 32.6228 93.9628 32.8198H93.6719C93.7042 32.3929 93.7204 31.4571 93.7204 29.9959H94.0113C94.0759 30.784 94.286 31.4243 94.6416 31.9168C94.9971 32.4094 95.5628 32.6556 96.3062 32.6556C96.7264 32.6556 97.0981 32.5407 97.4052 32.2944C97.7123 32.0482 97.8739 31.687 97.8739 31.2108C97.8739 30.9317 97.7931 30.6855 97.6315 30.4556C97.4699 30.2422 97.2598 30.0452 96.985 29.8646C96.7103 29.7004 96.3385 29.487 95.8537 29.2243C95.1587 28.8631 94.6416 28.5019 94.2699 28.1407C93.9143 27.7795 93.7204 27.3198 93.7204 26.7452C93.7204 26.1049 93.9466 25.6288 94.4153 25.2676C94.8678 24.9228 95.4335 24.7422 96.0961 24.7422C96.484 24.7586 96.7749 24.7914 96.985 24.8735Z" fill="#949494"/>
<path id="Vector_16" d="M43.0233 19.2423C42.7647 19.4229 42.5385 19.505 42.3445 19.505C42.1183 19.505 41.9728 19.4229 41.892 19.2423C41.8112 19.0617 41.7789 18.7826 41.7789 18.3558V11.296C41.7789 10.3437 41.7142 9.58852 41.5849 9.04673C41.4556 8.48852 41.2132 8.02882 40.8253 7.65121C40.4213 7.24076 39.9041 6.94524 39.29 6.76464C38.6758 6.58404 37.9486 6.50195 37.1243 6.50195C36.3162 6.50195 35.589 6.58404 34.9102 6.7318C34.2314 6.87956 33.6657 7.10942 33.2132 7.3721C32.7445 7.66762 32.389 7.97956 32.1466 8.32434C31.9203 8.66912 31.8072 9.07956 31.8072 9.55568C31.8072 10.1303 31.9688 10.6064 32.292 10.984C32.6152 11.3617 33.0678 11.5587 33.6657 11.5587C34.2314 11.5587 34.7001 11.3781 35.088 11.0333C35.4758 10.6885 35.6698 10.2288 35.6698 9.63777C35.6698 9.17807 35.5405 8.76762 35.2819 8.42285C35.0233 8.07807 34.6516 7.81539 34.1668 7.65121C34.587 7.24076 35.2173 7.02733 36.0253 7.02733C36.7203 7.02733 37.2375 7.22434 37.5769 7.63479C37.9162 8.04524 38.0779 8.60345 38.0779 9.32583V11.3452C38.0779 11.8049 37.8678 12.1825 37.4314 12.4452C36.995 12.7079 36.3162 13.0034 35.3789 13.3318C34.49 13.6437 33.7627 13.9393 33.1971 14.2184C32.6314 14.4975 32.1466 14.8915 31.7425 15.4005C31.3385 15.9094 31.1445 16.5498 31.1445 17.3378C31.1445 18.2737 31.4193 19.0289 31.9526 19.5871C32.4859 20.1453 33.294 20.4408 34.393 20.4408C36.0415 20.4408 37.2859 19.7349 38.1425 18.3393C38.1587 18.9796 38.3526 19.4886 38.7243 19.8662C39.096 20.2438 39.7587 20.4408 40.696 20.4408C41.6981 20.4408 42.5546 20.1781 43.2657 19.6692L43.0233 19.2423ZM38.094 17.7319C37.593 18.4378 37.0274 18.799 36.3647 18.799C35.896 18.799 35.5082 18.6349 35.2173 18.2901C34.9263 17.9453 34.7809 17.4363 34.7809 16.714C34.7809 15.9094 34.9587 15.2855 35.2981 14.8423C35.6375 14.4154 36.1385 13.9721 36.8011 13.5452C37.4637 13.1348 37.9001 12.7572 38.1102 12.4124V17.7319H38.094Z" fill="#949494"/>
<path id="Vector_17" d="M93.1741 32.1793C92.9802 32.3763 92.7863 32.4584 92.6246 32.4584C92.4954 32.4584 92.3984 32.3927 92.3176 32.2778C92.2368 32.1464 92.156 31.9494 92.0913 31.6375L91.8166 30.4718C91.7034 30.0121 91.5257 29.6837 91.2671 29.4867C91.0085 29.2897 90.6529 29.142 90.2004 29.0763C90.0873 29.0599 89.9418 29.0434 89.764 29.027C90.6529 28.9121 91.2994 28.6494 91.6873 28.239C92.0752 27.8285 92.2691 27.3688 92.2691 26.8763C92.2691 26.3017 92.0105 25.842 91.5257 25.4808C91.0246 25.1196 90.2974 24.939 89.36 24.939C89.1822 24.939 89.0045 24.939 88.8752 24.9554L87.5822 24.9718C86.9034 24.9718 86.4024 24.9554 86.0469 24.939V25.2017C86.3539 25.2181 86.564 25.2509 86.7095 25.3002C86.855 25.3494 86.9358 25.4479 87.0004 25.5957C87.0489 25.7434 87.0812 25.9733 87.0812 26.3017V31.3748C87.0812 31.7031 87.0489 31.933 87.0004 32.0808C86.9519 32.2285 86.855 32.327 86.7095 32.3763C86.564 32.4255 86.3539 32.4584 86.0469 32.4748V32.7375C86.4024 32.7046 88.8752 32.7046 89.263 32.7375V32.4748C88.956 32.4584 88.7459 32.4255 88.6004 32.3763C88.455 32.327 88.3741 32.2285 88.3095 32.0808C88.261 31.933 88.2287 31.7031 88.2287 31.3748V29.1255H88.956C89.4085 29.1255 89.7479 29.2076 89.9903 29.3718C90.2166 29.536 90.3943 29.8479 90.5075 30.3405L90.8954 31.9494C91.057 32.6061 91.4933 32.9181 92.1883 32.9181C92.4792 32.9181 92.7216 32.8524 92.9317 32.7375C93.0933 32.639 93.2226 32.524 93.3519 32.3763L93.1741 32.1793ZM88.2287 28.8793V26.3017C88.2287 25.9897 88.2448 25.7599 88.2933 25.6121C88.3418 25.4643 88.4065 25.3494 88.5196 25.2837C88.6327 25.2181 88.8105 25.2017 89.0368 25.2017C89.7317 25.2017 90.2327 25.3494 90.5398 25.6614C90.8469 25.9569 91.0085 26.4166 91.0085 27.0405C91.0085 27.6315 90.8792 28.0912 90.6044 28.4031C90.3297 28.7315 89.8287 28.8793 89.0853 28.8793H88.2287Z" fill="#949494"/>
<path id="Vector_18" d="M63.8094 32.1797C63.6155 32.3767 63.4215 32.4752 63.2599 32.4752C63.1306 32.4752 63.0336 32.4095 62.9528 32.2946C62.872 32.1633 62.7912 31.9663 62.7266 31.6543L62.4518 30.4886C62.3387 30.0289 62.1609 29.7006 61.9023 29.5036C61.6437 29.3066 61.2882 29.1588 60.8357 29.0931C60.7225 29.0767 60.5771 29.0603 60.3993 29.0439C61.2882 28.9289 61.9347 28.6663 62.3225 28.2558C62.7104 27.8454 62.9044 27.3857 62.9044 26.8931C62.9044 26.3185 62.6458 25.8588 62.1609 25.4976C61.6599 25.1364 60.9326 24.9558 59.9953 24.9558C59.8175 24.9558 59.6397 24.9558 59.5104 24.9722L58.2175 24.9886C57.5387 24.9886 57.0377 24.9722 56.6821 24.9558V25.2185C56.9892 25.2349 57.1993 25.2677 57.3448 25.317C57.4902 25.3663 57.571 25.4648 57.6357 25.6125C57.6842 25.7603 57.7165 25.9901 57.7165 26.3185V31.3916C57.7165 31.72 57.6842 31.9498 57.6357 32.0976C57.5872 32.2454 57.4902 32.3439 57.3448 32.3931C57.1993 32.4424 56.2619 32.82 55.8256 31.6707L52.868 24.8901H52.6741L49.8781 31.3095C49.7326 31.6379 49.5872 31.917 49.4256 32.114C49.2639 32.311 49.07 32.4424 48.8438 32.508V32.7707C49.07 32.7379 50.8316 32.7379 51.0902 32.7707V32.508C50.7508 32.4752 50.4922 32.3931 50.3468 32.2782C50.1852 32.1469 50.1205 31.9827 50.1205 31.7528C50.1205 31.5394 50.1852 31.2603 50.3306 30.9319L50.767 29.9633H53.8377L54.4842 31.4245C54.5973 31.6871 54.6619 31.8842 54.6619 32.0319C54.6619 32.1961 54.5811 32.311 54.4357 32.3767C54.2902 32.4424 54.064 32.4916 53.7407 32.508V32.7707C54.0963 32.7379 59.5266 32.7379 59.9145 32.7707V32.508C59.6074 32.4916 59.3973 32.4588 59.2518 32.4095C59.1064 32.3603 59.0256 32.2618 58.9609 32.114C58.9124 31.9663 58.8801 31.7364 58.8801 31.408V29.1588H59.6074C60.0599 29.1588 60.3993 29.2409 60.6417 29.4051C60.868 29.5692 61.0458 29.8812 61.1589 30.3737L61.5468 31.9827C61.7084 32.6394 62.1448 32.9513 62.8397 32.9513C63.1306 32.9513 63.373 32.8857 63.5831 32.7707C63.7448 32.6722 63.8741 32.5573 64.0033 32.3931L63.8094 32.1797ZM50.8478 29.6842L52.2862 26.4334L53.7084 29.6842H50.8478ZM58.8801 28.8797V26.3021C58.8801 25.9901 58.8963 25.7603 58.9448 25.6125C58.9932 25.4648 59.0579 25.3498 59.171 25.2842C59.2842 25.2185 59.4619 25.2021 59.6882 25.2021C60.3831 25.2021 60.8842 25.3498 61.1912 25.6618C61.4983 25.9573 61.6599 26.417 61.6599 27.0409C61.6599 27.6319 61.5306 28.0916 61.2559 28.4036C60.9811 28.7319 60.4801 28.8797 59.7367 28.8797H58.8801Z" fill="#949494"/>
</g>
</g>
</g>
</g>
<defs>
<clipPath id="clip0_1123_16091">
<rect width="112" height="33" fill="white" transform="translate(0 0.000488281)"/>
</clipPath>
</defs>
</svg>
