<svg width="40" height="40" viewBox="0 0 40 40" fill="none" xmlns="http://www.w3.org/2000/svg">
<g id="socials">
<rect id="Rectangle 1" width="40" height="40" rx="20" fill="#274497"/>
<g id="Group 35076">
<rect id="Rectangle 39953" x="10" y="10" width="20" height="20" rx="6" fill="white"/>
<g id="instagram">
<path d="M19.9815 14.8253C17.0899 14.8253 14.8008 17.1145 14.8008 20.006C14.8008 22.8976 17.0899 25.1867 19.9815 25.1867C22.8731 25.1867 25.1622 22.8976 25.1622 20.006C25.1622 17.1145 22.8731 14.8253 19.9815 14.8253ZM19.9815 23.3795C18.1743 23.3795 16.608 21.9337 16.608 20.006C16.608 18.1988 18.0538 16.6325 19.9815 16.6325C21.7887 16.6325 23.355 18.0783 23.355 20.006C23.355 21.8133 21.7887 23.3795 19.9815 23.3795Z" fill="#274497"/>
<path d="M25.2827 15.9096C25.9481 15.9096 26.4875 15.3702 26.4875 14.7048C26.4875 14.0394 25.9481 13.5 25.2827 13.5C24.6173 13.5 24.0779 14.0394 24.0779 14.7048C24.0779 15.3702 24.6173 15.9096 25.2827 15.9096Z" fill="#274497"/>
</g>
</g>
</g>
</svg>
