<svg width="43" height="52" viewBox="0 0 43 52" fill="none" xmlns="http://www.w3.org/2000/svg">
<path d="M12.5601 2.89561L9.15625 5.14178V13.2453V21.3487L10.8841 22.5236C11.8344 23.1629 13.303 24.1824 14.1669 24.7698C15.0136 25.3745 15.7392 25.8583 15.7911 25.8583C15.8429 25.8583 15.8947 22.2472 15.8947 17.824C15.8947 13.4008 15.9293 9.78962 15.9639 9.78962C15.9984 9.78962 17.4152 10.7399 19.1258 11.8976C20.819 13.0552 23.4799 14.8694 25.0349 15.9234C26.6072 16.9773 27.9031 17.9276 27.9376 18.014C27.9549 18.1004 25.2768 19.9492 21.9594 22.1262L15.9293 26.083L15.912 30.4198C15.8947 32.8042 15.9639 34.8603 16.033 34.9812C16.1539 35.154 18.1927 33.8927 24.1192 29.9878C28.4733 27.1196 32.7237 24.3379 33.5531 23.8022L35.0735 22.8347V18.325C35.0735 13.0379 35.5055 13.9364 31.7907 11.431C30.4084 10.498 28.4733 9.1676 27.4711 8.49375C26.469 7.80262 24.5338 6.48948 23.1516 5.55646C21.7693 4.62344 19.5923 3.13751 18.2964 2.25632L15.9639 0.666729L12.5601 2.89561Z" fill="#949494"/>
<path d="M32.7095 44.3637C32.4503 44.6229 32.6231 45.0376 33.0032 45.0376C33.3833 45.0376 33.5561 44.6229 33.2969 44.3637C33.1933 44.2601 33.055 44.1737 33.0032 44.1737C32.9514 44.1737 32.8131 44.2601 32.7095 44.3637Z" fill="#949494"/>
<path d="M0 44.5712C0 44.7094 0.155504 44.865 0.345564 44.9168C0.67385 45.0032 0.691128 45.1587 0.691128 47.353C0.691128 49.5819 0.67385 49.7028 0.345564 49.7028C0.155504 49.7028 0 49.8238 0 49.962C0 50.1694 0.224617 50.2212 0.950301 50.2212C1.67599 50.2212 1.9006 50.1694 1.9006 49.962C1.9006 49.8238 1.7451 49.7028 1.55504 49.7028C1.22675 49.7028 1.20947 49.5819 1.20947 47.2839C1.20947 44.9513 1.22675 44.865 1.57232 44.865C1.77965 44.865 1.9006 44.7786 1.86605 44.6403C1.7451 44.3293 0 44.2602 0 44.5712Z" fill="#949494"/>
<path d="M3.10938 47.2658C3.10938 50.0131 3.12665 50.2377 3.42038 50.1858C3.66228 50.134 3.73139 49.9094 3.76595 49.0455L3.81778 47.9742H4.49163C5.51104 47.9742 5.99483 47.6805 6.32312 46.8339C6.47862 46.4019 6.54774 46.0045 6.46134 45.8663C6.37495 45.7453 6.30584 45.538 6.30584 45.3998C6.30584 44.9333 5.45921 44.5186 4.26701 44.3976L3.10938 44.294V47.2658ZM5.56288 45.3998C5.92572 45.8317 5.96028 46.2291 5.66655 46.8511C5.47649 47.2658 5.32098 47.3522 4.28429 47.5077L3.8005 47.5768V46.2119V44.8469L4.52619 44.9333C5.00998 44.9851 5.37282 45.1579 5.56288 45.3998Z" fill="#949494"/>
<path d="M9.59059 44.5194C9.46964 44.7094 9.17591 49.9102 9.27958 50.083C9.31414 50.1694 9.46964 50.2212 9.60787 50.2212C9.79793 50.2212 9.84976 49.9275 9.88432 48.8735C9.88432 48.1478 9.91887 47.4567 9.93615 47.3703C9.97071 47.2666 9.98799 46.8519 10.0053 46.42L10.0398 45.6425L10.6446 47.1111C11.7331 49.772 11.8368 49.7892 12.7007 47.5085C13.0635 46.5755 13.4091 45.7461 13.4782 45.677C13.5646 45.5906 13.6337 46.5237 13.6337 47.7331C13.6682 49.8411 13.8065 50.4976 14.152 50.1175C14.2211 50.0311 14.2557 48.718 14.1866 47.1975C14.0829 44.5885 14.0656 44.433 13.7374 44.433C13.4609 44.433 13.2536 44.7958 12.6316 46.3854C11.8713 48.286 11.5949 48.5625 11.4566 47.5949C11.4221 47.3876 11.3357 47.163 11.2666 47.1111C11.1975 47.0593 11.1283 46.9038 11.0938 46.7656C10.9901 46.2299 10.299 44.6058 10.1262 44.4848C9.86704 44.312 9.71154 44.312 9.59059 44.5194Z" fill="#949494"/>
<path d="M16.0709 46.3854C15.207 47.2493 15.1725 48.9944 15.9846 49.8065C16.4165 50.2385 16.9867 50.3249 17.6605 50.0657C18.1098 49.8929 18.4208 49.9102 18.3689 50.083C18.3344 50.1694 18.4381 50.2212 18.5763 50.2212C18.8009 50.2212 18.8355 49.8583 18.8355 48.0614C18.8355 46.2645 18.8009 45.9016 18.5763 45.9016C18.4381 45.9016 18.3171 46.0226 18.3171 46.1781C18.3171 46.42 18.2826 46.42 17.937 46.1781C17.3323 45.7461 16.6238 45.8325 16.0709 46.3854ZM17.816 46.5928C18.0925 46.7483 18.1443 46.9729 18.1443 47.975C18.1443 49.3227 17.9197 49.7028 17.1076 49.7028C16.4338 49.7028 16.0709 49.1499 16.0709 48.0787C16.0709 46.7656 16.8657 46.0917 17.816 46.5928Z" fill="#949494"/>
<path d="M20.6977 46.2468C20.1448 46.6788 19.8338 47.8364 20.0412 48.7176C20.3176 49.9444 21.1297 50.4282 22.2009 49.9789C22.9094 49.6679 22.9785 49.8234 22.5638 50.8256C22.2873 51.4476 22.1146 51.5167 20.9569 51.4476C20.404 51.413 20.1967 51.6376 20.5768 51.8623C20.6632 51.9314 21.1124 51.9832 21.5444 52.0005C22.2355 52.0005 22.4083 51.9314 22.8402 51.4476C23.1858 51.0502 23.324 50.7046 23.3586 50.169C23.3586 49.7716 23.3931 49.0978 23.4104 48.6658C23.4795 47.2835 23.2895 45.9013 23.0476 45.9013C22.9094 45.9013 22.8057 46.0222 22.8057 46.1777C22.8057 46.4196 22.7711 46.4196 22.4256 46.1777C21.8899 45.7976 21.2161 45.8322 20.6977 46.2468ZM22.3737 46.6615C22.5983 46.8343 22.7193 47.1799 22.7711 47.9574C22.823 48.5794 22.9266 49.0114 23.0476 49.0114C23.1512 49.0286 22.9094 49.1841 22.4947 49.3742C21.2161 49.9617 20.4386 49.3396 20.6114 47.8537C20.7496 46.6442 21.5789 46.0741 22.3737 46.6615Z" fill="#949494"/>
<path d="M24.9507 46.4892C24.4151 47.0248 24.3633 47.163 24.3633 48.1479C24.3633 49.0982 24.4151 49.271 24.8643 49.7202C25.4345 50.2904 26.022 50.3595 26.7822 49.9621C27.2487 49.7202 27.3006 49.7202 27.3006 49.9794C27.3006 50.1176 27.4042 50.2213 27.5079 50.1867C27.6807 50.1176 27.7153 49.5647 27.6634 48.0442C27.6461 46.9211 27.577 45.9536 27.5252 45.9017C27.4906 45.8499 27.3524 45.9536 27.2142 46.1263C27.0241 46.3855 26.9723 46.3855 26.7822 46.1609C26.4021 45.6944 25.59 45.8499 24.9507 46.4892ZM26.7477 46.6965C27.076 46.9211 27.1278 47.1112 27.1278 48.0097C27.1278 49.2364 26.8341 49.7029 26.0738 49.7029C25.1408 49.7029 24.6225 48.5107 25.0544 47.3358C25.4 46.4546 26.0393 46.1954 26.7477 46.6965Z" fill="#949494"/>
<path d="M28.8555 46.1608C28.8555 46.3682 29.0801 46.42 29.8058 46.42C30.3241 46.42 30.7561 46.5064 30.7561 46.5928C30.7561 46.6964 30.3241 47.4394 29.8058 48.2342C29.2874 49.0463 28.8555 49.8238 28.8555 49.962C28.8555 50.1694 29.1319 50.2212 30.2377 50.2212C31.3435 50.2212 31.62 50.1694 31.62 49.962C31.62 49.7547 31.3954 49.7028 30.6697 49.7028C30.0995 49.7028 29.7194 49.6337 29.7194 49.5128C29.7194 49.4091 30.1513 48.6662 30.6697 47.8886C31.188 47.0938 31.62 46.3163 31.62 46.1781C31.62 45.9535 31.3781 45.9016 30.2377 45.9016C29.1319 45.9016 28.8555 45.9535 28.8555 46.1608Z" fill="#949494"/>
<path d="M32.7772 46.0053C32.7081 46.0744 32.6562 47.0593 32.6562 48.1824C32.6562 50.1175 32.6735 50.2212 33.0018 50.2212C33.3474 50.2212 33.3474 50.1348 33.3128 48.1133C33.261 46.1608 33.14 45.6597 32.7772 46.0053Z" fill="#949494"/>
<path d="M34.7134 46.0226C34.6789 46.2645 34.6789 46.9729 34.7134 48.6143C34.7307 49.9102 34.7825 50.2212 34.9899 50.2212C35.1972 50.2212 35.249 49.9275 35.2836 48.7007C35.2836 47.8714 35.3009 47.0938 35.3009 46.9902C35.2836 46.7137 36.4931 46.3682 36.8905 46.5237C37.3224 46.6964 37.4952 47.3357 37.4952 48.8562C37.4952 49.962 37.547 50.2212 37.7544 50.2212C37.9617 50.2212 38.0136 49.9102 38.0136 48.4934C38.0136 46.8692 37.979 46.7137 37.5816 46.3336C37.0978 45.8325 36.2166 45.7634 35.6292 46.1781C35.2836 46.42 35.249 46.42 35.249 46.1781C35.249 45.9016 34.748 45.7807 34.7134 46.0226Z" fill="#949494"/>
<path d="M39.9298 46.1777C38.7549 47.007 38.8067 49.4778 40.0162 50.0307C40.5518 50.2726 41.554 50.2726 42.0032 50.048C42.6252 49.7024 42.3661 49.5296 41.3985 49.6333C40.6037 49.737 40.4309 49.7024 40.1026 49.3741C39.9125 49.1841 39.7398 48.8558 39.7398 48.6657C39.7398 48.3547 39.8607 48.3202 41.1393 48.3202H42.5561L42.4524 47.5081C42.2969 46.1258 40.9838 45.4347 39.9298 46.1777ZM41.3985 46.5578C41.6231 46.696 41.9859 47.3526 41.9859 47.6118C41.9859 47.7327 41.5367 47.8018 40.8628 47.8018C39.6188 47.8018 39.4806 47.6463 40.1026 46.8688C40.4482 46.4369 41.0184 46.2986 41.3985 46.5578Z" fill="#949494"/>
</svg>
