<svg width="86" height="89" viewBox="0 0 86 89" fill="none" xmlns="http://www.w3.org/2000/svg">
<path d="M84.8246 87.6245H1.07422V88.1713H84.8246V87.6245Z" fill="#949494"/>
<path d="M46.3447 12.6059C46.5453 12.9522 46.7002 13.6358 47.0557 13.6358L49.398 10.9015H49.6532C49.6988 16.4703 49.8081 21.6016 49.7534 27.2706C49.6988 27.4164 49.4982 27.3162 49.3433 27.3709C48.5321 22.0391 48.3225 16.5159 45.4789 12.0226C45.0232 11.3846 44.4125 10.9927 43.7016 10.8468C43.0454 10.701 42.4803 11.1932 42.1795 11.7309L41.8241 12.9066L41.8788 50.3477C41.979 50.9311 42.289 51.5235 42.8996 51.7696C43.41 51.8698 44.0662 51.8698 44.5219 51.5235C45.1326 51.0313 45.0597 50.3022 45.0597 49.5639V33.1857C44.7042 32.7482 43.5558 33.3316 43.6105 32.648C46.4541 32.648 49.2613 32.4475 52.1049 32.6024C52.0047 33.1402 51.1388 32.7027 50.8836 33.1857V51.323C50.7287 51.4688 51.0386 52.0065 50.5829 51.8151L48.2952 48.2424H48.1403C47.4749 49.81 46.3083 51.8152 44.3214 52.0521C42.0338 52.4896 39.8007 51.6146 38.4701 49.6551C35.9819 45.2074 35.9819 39.7297 35.672 34.407C35.5717 28.0544 35.5171 21.556 37.4493 15.887C38.2149 13.6358 39.9375 10.8559 42.6899 10.464C44.4125 10.1633 45.5791 11.339 46.3447 12.6059Z" fill="#949494"/>
<path d="M79.0476 10.9916C78.3276 11.183 77.5164 10.8914 76.8602 11.2377V51.1761C77.5164 51.568 78.3823 51.2217 79.0476 51.2217C81.0345 49.9548 81.6452 47.658 82.3469 45.6529C83.468 42.1804 84.1242 38.5165 84.4888 34.7523C84.589 34.6521 84.744 34.7068 84.8442 34.7068C85.0994 40.2755 84.9445 46.3729 84.9992 51.7959C79.9682 51.9417 73.8069 51.8414 69.2863 51.7959V51.5225C69.8423 51.3766 70.5076 51.7138 70.9086 51.2308C70.8631 37.9879 70.9633 24.7905 70.9086 11.2468C70.3982 11.0007 69.6418 11.2013 69.1314 11.0554C69.0311 10.7091 69.4868 10.8093 69.742 10.7638C72.7953 10.6635 75.9488 10.7638 79.0476 10.7182V10.9916Z" fill="#949494"/>
<path d="M11.0465 10.7554C11.247 10.8556 11.2014 11.1017 11.1467 11.1928C10.3811 11.2384 9.28744 11.0015 8.67679 11.4389V51.2224C9.28744 51.6143 9.87075 51.2224 10.5817 51.3682C11.7483 50.9308 12.2131 49.7094 12.7691 48.7798C14.756 44.4779 15.6218 39.7385 16.2324 34.8989H16.6426C16.6973 40.4677 16.7429 46.3372 16.5423 51.8148L0.875043 51.7692C0.865929 51.0492 2.29686 51.5049 2.75257 51.113V11.2475L1.23048 11.1473V10.7554H11.0465Z" fill="#949494"/>
<path d="M33.8587 26.5415H33.4212C32.6556 21.7018 31.9447 16.8622 29.7573 12.6059C28.8914 11.3846 27.26 11.0929 25.9384 11.339L25.6924 11.5851V30.4971C25.6924 30.5973 25.6833 30.7431 25.8291 30.8434C27.0504 30.652 27.7613 29.4216 28.217 28.501C29.0282 26.104 29.5933 23.6158 29.7938 20.9727C29.894 20.8724 29.9943 20.9271 30.1492 20.9271C30.2039 27.6261 30.2039 34.5164 30.1492 41.2609C30.0489 41.4067 29.8485 41.4067 29.7391 41.4067C29.4839 40.3313 29.4383 39.1555 29.2834 38.0345C28.6272 35.6921 28.6727 32.6115 25.9749 31.4358H25.6833V51.0313C25.6833 51.2227 25.6741 51.4232 25.8746 51.4232C28.5178 51.7696 29.5841 48.8804 30.5047 47.2216C31.9265 43.4574 32.6921 39.4472 33.2481 35.3914C33.403 35.2911 33.5762 35.2455 33.7311 35.3458V51.6693L33.558 51.8152L17.8906 51.7696V51.4232C18.401 51.2318 19.3398 51.5691 19.7499 51.1316V11.3481C19.2395 11.0018 18.6562 11.3481 18.2005 11.0565V10.9106C23.2315 10.8104 28.6545 10.8104 33.8405 10.9106V26.5415H33.8587Z" fill="#949494"/>
<path d="M67.3453 51.3223C66.6344 47.5126 63.2258 11.5844 63.2258 11.5844L63.0708 10.8462C62.05 10.7459 60.8834 10.7459 59.8626 10.8462L59.252 14.6559L54.3121 48.3784C54.1115 49.4083 53.9019 50.6297 52.7353 51.1674C52.4801 51.5137 51.4593 51.1674 51.8695 51.8054L57.0554 51.7598C57.3106 51.2221 56.5998 51.3223 56.3446 51.2221C55.2782 50.7846 54.9683 49.7547 54.868 48.7795C55.1779 46.8746 55.2235 44.8695 55.7339 43.0102L60.1634 42.9646L60.4186 43.156C60.6738 45.8903 60.9746 48.3876 61.0748 51.1765C60.6191 51.4682 60.054 51.3679 59.498 51.4682C59.5527 51.5684 59.4525 51.7143 59.5527 51.7598L68.3479 51.7142V51.3679L67.3453 51.3223ZM60.0722 42.518C58.6504 42.4724 57.1739 42.6183 55.7977 42.3722L58.7507 22.3757L60.3275 42.3175L60.0722 42.518Z" fill="#949494"/>
<path d="M25.2826 54.4484C24.5717 57.8206 21.4182 61.5301 17.654 62.0678C13.8443 62.6603 9.66998 62.3139 5.85113 61.922L5.69617 62.3139L5.1311 67.2538L5.23137 67.3541C10.1166 64.2735 18.0004 64.1277 22.8856 67.2538C25.5834 69.1587 26.9049 71.9476 26.3945 75.1741C25.9844 78.2547 22.9858 81.0892 19.9873 81.873C14.3456 83.4862 7.42789 82.9485 2.95282 79.3757C1.53101 78.2547 1.12087 76.5412 1.47633 74.8277C1.83178 73.3603 3.25357 71.9476 4.73007 71.5557C6.15189 71.1638 7.72866 71.4099 8.90439 72.1937C10.2259 73.2236 10.9915 74.5452 10.9368 76.1037C10.8822 77.7625 9.77024 79.3301 8.19348 80.1049C7.6284 80.3509 6.97217 80.3965 6.4162 80.6426C8.95906 81.9641 12.1126 82.1555 15.2205 82.0097V65.7864C11.4017 65.3398 7.94739 66.47 4.93971 68.3749L4.32904 68.0285C4.73918 63.435 5.34985 58.7412 5.85113 54.1476L6.00605 54.1021C12.0579 55.0317 19.2399 55.9158 25.2826 54.4484Z" fill="#949494"/>
<path d="M82.6112 59.2427C80.3691 56.4081 77.3159 54.6491 73.816 54.3027C68.785 53.8106 64.4557 55.8704 61.5027 59.826C58.3492 63.736 58.094 70.043 60.0809 74.5363C61.9129 78.8837 66.5884 82.5021 71.4736 82.7482C76.9148 82.9487 81.6998 79.4215 83.8872 74.8826C86.266 70.1341 85.9196 63.4443 82.6112 59.2427ZM74.1077 81.7183C72.7861 82.1102 71.3096 82.1102 69.988 81.7183V55.2233C71.2093 54.9316 72.8317 54.7311 74.1077 55.1777V81.7183Z" fill="#949494"/>
<path d="M54.0301 61.3852C53.064 59.3345 51.2321 57.2291 49.0902 56.0533C45.3261 53.8021 39.4839 53.6563 35.7653 56.1536C30.9803 59.2342 28.6471 64.0739 29.0481 69.5971C29.4036 74.9744 33.1677 80.3518 38.6089 82.1564C43.7493 83.7241 48.7803 81.6642 52.1343 77.8089C55.7527 73.507 56.7735 66.3706 54.0301 61.3852ZM44.3053 81.6734C43.0384 82.0197 41.5619 82.0197 40.2403 81.6734V55.2786C41.4616 54.9414 43.1387 54.9414 44.3053 55.2786V81.6734Z" fill="#949494"/>
<path d="M36.9752 6.52631C36.9205 6.79062 36.7929 7.36481 36.802 7.62912C36.8293 8.1304 37.2759 8.03927 37.7407 8.03927L37.6678 8.40383C37.1118 8.39472 36.5559 8.36737 35.9999 8.35826C35.4531 8.36737 34.888 8.39472 34.3412 8.40383L34.4141 8.03927C35.2708 8.04838 35.3346 7.91166 35.5077 7.01847L36.5012 1.78693H36.3645C35.2434 1.78693 34.7239 1.89629 34.3593 3.19051H33.9766L34.3593 1.28564C35.3163 1.29476 36.2825 1.31299 37.2395 1.33122C38.1144 1.3221 38.9894 1.29476 39.8917 1.28564C39.8917 1.5773 39.8917 1.87807 39.8917 2.16972C39.919 2.5434 39.9555 2.90797 39.9828 3.29077H39.5909C39.4087 2.13326 39.0896 1.78693 38.0233 1.78693H37.8683L36.9752 6.52631Z" fill="#949494"/>
<path d="M41.6536 2.94439C41.7174 2.66185 41.9452 1.64106 41.9452 1.34941C41.9452 0.9575 41.4166 0.957506 41.1706 0.957506L41.2526 0.611162L43.367 0.465332L42.2643 5.16826L42.2825 5.25028C42.6106 4.49381 43.5038 3.63708 44.3241 3.63708C45.0168 3.63708 45.2902 4.06545 45.2902 4.40267C45.2902 4.74901 45.2264 5.12269 45.1261 5.4508L44.798 6.6083C44.7524 6.77236 44.6157 7.22807 44.6157 7.37389C44.6157 7.51061 44.6977 7.68379 44.8162 7.68379C45.1717 7.68379 45.4907 6.92731 45.6456 6.62654L45.837 6.69033C45.5636 7.43769 44.962 8.44025 44.1691 8.44025C43.7681 8.44025 43.4217 8.0848 43.4217 7.62909C43.4217 7.27364 43.5493 6.83616 43.6496 6.49894L43.9686 5.35966C44.0324 5.14092 44.1509 4.72167 44.1509 4.49382C44.1509 4.26596 44.0415 4.12013 43.8228 4.12013C43.4491 4.12013 42.884 4.73079 42.7017 5.04979C42.401 5.57841 42.0546 6.11614 41.8814 6.70856L41.444 8.23975H40.3594L41.6536 2.94439Z" fill="#949494"/>
<path d="M50.6665 6.78128C50.0011 7.8841 49.3723 8.35803 48.1236 8.35803C47.194 8.35803 46.6562 7.71093 46.6562 6.65368C46.6562 4.94933 48.0051 3.61865 49.5819 3.61865C50.1105 3.61865 50.8579 3.67334 50.8579 4.39336C50.8579 5.54175 48.8436 6.37115 47.8775 6.64457C47.8502 6.86331 47.7773 7.22787 47.7773 7.44661C47.7773 7.89321 48.1965 8.00258 48.4608 8.00258C49.4543 8.00258 50.1288 7.0547 50.466 6.58988L50.6665 6.78128ZM49.9556 4.31133C49.9556 3.96499 49.7277 3.87386 49.3176 3.93765C48.5155 4.05614 48.078 5.56909 47.9322 6.19797C48.6249 5.961 49.9556 5.21363 49.9556 4.31133Z" fill="#949494"/>
<path d="M31.2617 5.65088H1.06641V6.19774H31.2617V5.65088Z" fill="#949494"/>
<path d="M84.9167 5.65088H53.3906V6.19774H84.9167V5.65088Z" fill="#949494"/>
</svg>
