<svg width="198" height="58" viewBox="0 0 198 58" fill="none" xmlns="http://www.w3.org/2000/svg">
<g id="Group 34805">
<g id="Group">
<path id="Vector" d="M0 29.0005V58.0005H29H58V29.0005V0.000488281H29H0V29.0005ZM14.1979 16.0109V21.7505H13.1406H12.0833V17.0682V12.3859H10.1198H8.15625V17.0682V21.7505H7.09896H6.04167V16.0109V10.2713H10.1198H14.1979V16.0109ZM22.6865 10.9661C24.0458 11.8724 24.5896 13.4734 24.076 15.014C23.5625 16.5547 22.5052 17.2494 20.3 17.4307L18.4271 17.6119V19.6661V21.7505H17.2188H16.0104V16.0109V10.2713H18.85C21.2667 10.2713 21.8104 10.3619 22.6865 10.9661ZM31.5073 15.8297C32.625 18.8807 33.5312 21.4786 33.5312 21.5692C33.5312 21.6599 33.0479 21.7505 32.474 21.7505C31.5677 21.7505 31.3562 21.6297 30.9937 20.6932C30.5406 19.6359 30.5406 19.6359 28.5771 19.6359H26.6437L26.2812 20.6932C25.949 21.6599 25.8281 21.7505 24.7708 21.7505H23.5927L24.1667 20.1494C24.8917 18.0651 27.0365 12.1442 27.4594 11.0869C27.701 10.4526 27.9729 10.2713 28.6375 10.2713C29.4833 10.2713 29.5437 10.3922 31.5073 15.8297ZM41.0833 10.7244C42.201 11.2984 42.5938 12.0234 42.5938 13.5338C42.5938 14.3494 42.4125 14.8932 41.9594 15.2859C41.4458 15.739 41.4156 15.8901 41.7781 16.1619C43.1375 17.1588 43.2583 19.213 42.0198 20.6026L41.1437 21.5994H37.851H34.5885L34.4979 15.9203L34.4375 10.2713H37.3073C39.301 10.2713 40.4792 10.4224 41.0833 10.7244ZM50.599 10.8755C51.9885 11.7213 52.4115 12.9901 52.4115 16.1619C52.4115 18.3067 52.2906 19.0922 51.8375 19.8172C50.2667 22.4151 46.2792 22.4151 44.7083 19.8474C44.225 19.0619 44.1042 18.3369 44.1042 16.0109C44.1042 14.3192 44.2552 12.839 44.4969 12.3859C45.4937 10.4224 48.6052 9.63695 50.599 10.8755ZM16.5542 26.2515C18.699 27.3692 19.9375 29.3932 19.9375 31.8401C19.9375 33.5922 19.5448 34.6192 18.4271 35.6463L17.5208 36.4922L18.3969 37.1265C20.8135 38.8484 20.874 43.7724 18.4875 46.1588C15.4969 49.1494 9.09271 48.6057 7.12917 45.2224C6.70625 44.5276 6.28333 43.4401 6.19271 42.8057L5.98125 41.688H8.12604C10.0896 41.688 10.2708 41.7484 10.2708 42.2922C10.2708 43.3797 11.6 44.4067 12.9896 44.4067C14.6208 44.4067 15.376 43.9838 15.8896 42.7151C16.7958 40.5703 15.4062 38.3651 13.1406 38.3651C12.4156 38.3651 12.3854 38.3047 12.3854 36.5526C12.3854 34.7401 12.3854 34.7401 13.2615 34.7401C13.775 34.7401 14.5302 34.438 14.9833 34.0453C16.0708 33.1088 16.1313 31.1453 15.1042 30.0578C13.775 28.638 10.5729 29.4234 10.5729 31.1755C10.5729 31.6588 10.301 31.7192 8.45833 31.7192C6.525 31.7192 6.34375 31.6588 6.34375 31.1151C6.34375 30.2088 7.15937 28.3661 7.94479 27.5505C9.90833 25.4359 13.8354 24.8619 16.5542 26.2515ZM32.4437 26.3724C33.1083 26.7349 34.075 27.6411 34.5885 28.3359L35.4948 29.6651V36.8547V44.0442L34.5885 45.3432C33.2896 47.1557 31.4469 48.0619 28.9094 48.0619C26.5833 48.0619 25.0427 47.3974 23.6229 45.7963C22.2031 44.1651 21.9917 42.9265 22.1125 36.1297C22.2031 30.1484 22.2031 30.0276 23.0187 28.6682C23.925 27.1276 24.8917 26.3724 26.7344 25.7682C28.3354 25.2547 30.9031 25.5265 32.4437 26.3724ZM47.0042 25.8286C48.6656 26.3119 50.1156 27.4901 50.9312 29.0307C51.4146 29.9067 51.5052 30.9338 51.5958 35.7974C51.7469 42.4734 51.475 44.2255 50.0552 45.8265C47.2156 49.0588 41.5667 48.8172 39.1198 45.3432L38.2135 44.0442L38.1229 37.5192C38.0021 30.4505 38.1531 29.3328 39.4521 27.7922C41.2042 25.7078 44.1042 24.9526 47.0042 25.8286Z" fill="#949494"/>
<path id="Vector_2" d="M18.4258 13.8963V15.4067H19.7549C21.2654 15.4067 22.0508 14.8328 22.0508 13.7755C22.0508 12.7484 21.4768 12.3859 19.8758 12.3859H18.4258V13.8963Z" fill="#949494"/>
<path id="Vector_3" d="M27.8805 15.8602L27.2461 17.8237H28.5753C29.3003 17.8237 29.9044 17.7029 29.9044 17.5821C29.9044 17.1894 28.9378 14.38 28.7263 14.1383C28.6055 13.9873 28.243 14.7727 27.8805 15.8602Z" fill="#949494"/>
<path id="Vector_4" d="M36.8555 13.5945V14.833L38.3961 14.7424C41.2961 14.5611 41.2961 12.6278 38.3961 12.4465L36.8555 12.3559V13.5945Z" fill="#949494"/>
<path id="Vector_5" d="M36.8555 18.2466V19.6362H38.5169C39.9669 19.6362 40.2388 19.5456 40.4503 18.9414C40.9034 17.7935 40.1784 17.0685 38.3961 16.9779L36.8555 16.8873V18.2466Z" fill="#949494"/>
<path id="Vector_6" d="M47.0961 12.6586C46.4315 13.2024 46.3711 13.4742 46.3711 15.9815C46.3711 18.8513 46.5826 19.3649 47.9117 19.7576C48.3044 19.8784 48.818 19.7274 49.3315 19.3044C50.1169 18.7305 50.1471 18.5492 50.1471 16.0117C50.1471 13.4742 50.1169 13.293 49.3617 12.719C48.3648 11.9336 48.0023 11.9336 47.0961 12.6586Z" fill="#949494"/>
<path id="Vector_7" d="M26.9156 30.0871C26.3115 30.8424 26.2812 31.2955 26.2812 36.9142C26.2812 42.8955 26.2812 42.9257 27.0365 43.6507C28.0635 44.708 29.8458 44.6778 30.8427 43.6205C31.5677 42.8653 31.5677 42.7746 31.5677 36.8538C31.5677 30.933 31.5677 30.8424 30.8427 30.0871C29.7854 28.9694 27.7917 28.9694 26.9156 30.0871Z" fill="#949494"/>
<path id="Vector_8" d="M42.8656 30.0882C42.1406 30.8434 42.1406 30.934 42.1406 36.8548C42.1406 42.7757 42.1406 42.8663 42.8656 43.6215C43.7719 44.5882 45.4937 44.6788 46.551 43.8329C47.276 43.259 47.276 43.1382 47.3667 37.0965C47.4573 31.2059 47.4271 30.9038 46.8229 30.1184C45.9167 28.9704 43.9229 28.9704 42.8656 30.0882Z" fill="#949494"/>
</g>
<g id="&#208;&#154;&#208;&#144;&#208;&#162;&#208;&#144;&#208;&#155;&#208;&#158;&#208;&#147; &#208;&#174;&#208;&#160;&#208;&#152;&#208;&#148;&#208;&#152;&#208;&#167;&#208;&#149;&#208;&#161;&#208;&#154;&#208;&#152;&#208;&#165; &#208;&#154;&#208;&#158;&#208;&#156;&#208;&#159;&#208;&#144;&#208;&#157;&#208;&#152;&#208;&#153;">
<path d="M68.7873 15.1309V14.1789L69.78 13.9935V7.27393L68.7873 7.08847V6.1303H72.315V7.08847L71.3534 7.27393V9.96916H72.24L74.0944 7.32338C74.4482 6.8412 74.7666 6.50945 75.0497 6.32812C75.3327 6.14267 75.6532 6.04994 76.0112 6.04994C76.2276 6.04994 76.417 6.07673 76.5794 6.1303C76.7459 6.18388 76.904 6.25806 77.0539 6.35285L76.8041 7.49647C76.7042 7.47586 76.6147 7.45938 76.5357 7.44701C76.4607 7.43053 76.3837 7.42229 76.3046 7.42229C76.1215 7.42229 75.9508 7.47586 75.7927 7.58301C75.6345 7.68604 75.4513 7.87562 75.2432 8.15173L73.6011 10.4019L76.3296 14.0244L77.2412 14.1789V15.1309H73.9008V14.1789L74.494 14.0986L74.4753 14.0738L72.4648 11.3477H71.3534V13.9935L72.315 14.1789V15.1309H68.7873Z" fill="#949494"/>
<path d="M80.2763 15.1309V14.1789L80.9382 14.0862L83.9476 6.1303H85.4773L88.4493 14.0862L89.1111 14.1789V15.1309H86.2203V14.1789L86.8696 14.0615L86.3889 12.6459H83.0048L82.5116 14.0615L83.1671 14.1789V15.1309H80.2763ZM83.4169 11.4528H85.983L84.803 8.12082L84.7218 7.87974H84.6843L84.5969 8.13319L83.4169 11.4528Z" fill="#949494"/>
<path d="M93.2763 15.1309V14.1789L94.2691 13.9935V7.32338H92.4397L92.3023 8.47318H91.1223V6.1303H98.9955V8.47318H97.8092L97.6719 7.32338H95.8425V13.9935L96.8352 14.1789V15.1309H93.2763Z" fill="#949494"/>
<path d="M100.894 15.1309V14.1789L101.556 14.0862L104.566 6.1303H106.095L109.067 14.0862L109.729 14.1789V15.1309H106.838V14.1789L107.488 14.0615L107.007 12.6459H103.623L103.13 14.0615L103.785 14.1789V15.1309H100.894ZM104.035 11.4528H106.601L105.421 8.12082L105.34 7.87974H105.302L105.215 8.13319L104.035 11.4528Z" fill="#949494"/>
<path d="M112.933 15.1309V13.9317H113.176C113.459 13.9152 113.695 13.8451 113.882 13.7215C114.073 13.5937 114.225 13.3918 114.338 13.1157C114.45 12.8354 114.535 12.4645 114.594 12.003C114.652 11.5414 114.689 10.9706 114.706 10.2906L114.781 7.26774L113.819 7.08847V6.1303H121.718V7.08847L120.725 7.27393V13.9935L121.718 14.1789V15.1309H118.165V14.1789L119.158 13.9935V7.33574H116.348L116.273 10.2906C116.252 11.1519 116.182 11.8896 116.061 12.5037C115.94 13.1136 115.761 13.6143 115.524 14.0058C115.287 14.3932 114.987 14.6776 114.625 14.8589C114.267 15.0402 113.834 15.1309 113.326 15.1309H112.933Z" fill="#949494"/>
<path d="M128.917 15.2607C128.314 15.2607 127.768 15.1495 127.281 14.9269C126.794 14.7003 126.376 14.3829 126.026 13.9749C125.681 13.5669 125.415 13.0848 125.227 12.5284C125.04 11.972 124.946 11.3621 124.946 10.6986V10.5626C124.946 9.90322 125.04 9.29535 125.227 8.739C125.415 8.18264 125.681 7.70047 126.026 7.29247C126.376 6.88036 126.794 6.56303 127.281 6.34048C127.768 6.11382 128.312 6.00049 128.911 6.00049C129.531 6.00049 130.087 6.11382 130.578 6.34048C131.069 6.56303 131.488 6.88036 131.833 7.29247C132.179 7.70047 132.443 8.18264 132.626 8.739C132.809 9.29535 132.901 9.90322 132.901 10.5626V10.6986C132.901 11.3621 132.809 11.972 132.626 12.5284C132.443 13.0848 132.179 13.5669 131.833 13.9749C131.488 14.3829 131.069 14.7003 130.578 14.9269C130.087 15.1495 129.533 15.2607 128.917 15.2607ZM128.917 14.0244C129.467 14.0244 129.918 13.8863 130.272 13.6102C130.63 13.33 130.894 12.9405 131.065 12.4419C131.24 11.9432 131.327 11.3621 131.327 10.6986V10.5502C131.327 9.89498 131.24 9.32008 131.065 8.82554C130.89 8.331 130.624 7.94361 130.266 7.66338C129.912 7.38314 129.46 7.24302 128.911 7.24302C128.387 7.24302 127.947 7.38314 127.594 7.66338C127.24 7.94361 126.973 8.331 126.794 8.82554C126.615 9.32008 126.526 9.89498 126.526 10.5502V10.6986C126.526 11.358 126.615 11.9391 126.794 12.4419C126.973 12.9405 127.24 13.33 127.594 13.6102C127.952 13.8863 128.393 14.0244 128.917 14.0244Z" fill="#949494"/>
<path d="M136.435 15.1309V14.1789L137.428 13.9935V7.27393L136.435 7.08847V6.1303H143.203V8.28773H141.948L141.867 7.33574H139.001V13.9935L139.988 14.1789V15.1309H136.435Z" fill="#949494"/>
<path d="M76.2547 33.5953C75.5263 33.5953 74.8748 33.4304 74.3004 33.1007C73.726 32.771 73.2598 32.3157 72.9019 31.7346C72.5481 31.1494 72.3295 30.4756 72.2463 29.7132H71.1536V32.3157L72.1464 32.5011V33.4531H68.5938V32.5011L69.5865 32.3157V25.5961L68.5938 25.4107V24.4525H72.1464V25.4107L71.1536 25.5961V28.5077H72.2213C72.2713 27.7 72.471 26.9829 72.8207 26.3565C73.1703 25.7259 73.6386 25.2314 74.2255 24.8729C74.8166 24.5143 75.4909 24.335 76.2484 24.335C77.0601 24.335 77.7761 24.5349 78.3963 24.9347C79.0165 25.3303 79.4993 25.8722 79.8448 26.5605C80.1903 27.2487 80.363 28.0297 80.363 28.9033V29.0332C80.363 29.911 80.1903 30.694 79.8448 31.3822C79.4993 32.0705 79.0165 32.6124 78.3963 33.008C77.7802 33.3995 77.0664 33.5953 76.2547 33.5953ZM76.2547 32.3651C76.8041 32.3651 77.2682 32.225 77.647 31.9448C78.0258 31.6645 78.3109 31.2751 78.5024 30.7764C78.698 30.2778 78.7959 29.6967 78.7959 29.0332V28.891C78.7959 28.2357 78.696 27.6588 78.4962 27.1601C78.3005 26.6614 78.0133 26.272 77.6345 25.9917C77.2558 25.7115 76.7937 25.5714 76.2484 25.5714C75.7115 25.5714 75.2599 25.7115 74.8936 25.9917C74.5273 26.272 74.2505 26.6614 74.0632 27.1601C73.8759 27.6546 73.7822 28.2316 73.7822 28.891V29.0332C73.7822 29.6967 73.8759 30.2798 74.0632 30.7826C74.2505 31.2813 74.5273 31.6707 74.8936 31.9509C75.264 32.2271 75.7177 32.3651 76.2547 32.3651Z" fill="#949494"/>
<path d="M83.6417 33.4531V32.5011L84.6344 32.3157V25.5961L83.6417 25.4107V24.4525H84.6344H87.9061C88.5845 24.4525 89.1652 24.5699 89.648 24.8049C90.135 25.0398 90.5076 25.3674 90.7656 25.7877C91.0237 26.204 91.1528 26.6923 91.1528 27.2528C91.1528 27.8133 91.0237 28.3037 90.7656 28.7241C90.5076 29.1403 90.135 29.4638 89.648 29.6946C89.1652 29.9254 88.5845 30.0408 87.9061 30.0408H86.2078V32.3157L87.2005 32.5011V33.4531H83.6417ZM86.2078 28.8353H87.9061C88.4638 28.8353 88.8822 28.687 89.161 28.3903C89.4399 28.0935 89.5794 27.7185 89.5794 27.2652C89.5794 26.8036 89.4399 26.4203 89.161 26.1154C88.8822 25.8104 88.4638 25.6579 87.9061 25.6579H86.2078V28.8353Z" fill="#949494"/>
<path d="M94.3253 33.4531V32.5011L95.318 32.3157V25.5961L94.3253 25.4107V24.4525H95.318H96.8914H97.8841V25.4107L96.8914 25.5961V30.1891L96.9289 30.2015L100.887 26.1216V25.5961L99.9008 25.4107V24.4525H100.887H102.467H103.453V25.4107L102.467 25.5961V32.3157L103.453 32.5011V33.4531H99.9008V32.5011L100.887 32.3157V27.8524L100.85 27.8401L96.8914 31.92V32.3157L97.8841 32.5011V33.4531H94.3253Z" fill="#949494"/>
<path d="M106.838 35.6662L106.682 32.2538H107.413C107.629 32.0437 107.831 31.7655 108.018 31.4193C108.206 31.0731 108.36 30.6322 108.48 30.0964C108.605 29.5565 108.678 28.8972 108.699 28.1183L108.861 25.5837L107.943 25.4107V24.4525H115.648V25.4107L114.662 25.5961V32.2538H115.81L115.661 35.6662H114.237V33.4531H108.249V35.6662H106.838ZM109.18 32.2538H113.088V25.6579H110.428L110.285 28.1183C110.26 28.7447 110.199 29.3155 110.104 29.8306C110.008 30.3416 109.881 30.7991 109.723 31.2029C109.569 31.6027 109.388 31.953 109.18 32.2538Z" fill="#949494"/>
<path d="M119.089 33.4531V32.5011L120.082 32.3157V25.5961L119.089 25.4107V24.4525H120.082H121.655H122.648V25.4107L121.655 25.5961V30.1891L121.693 30.2015L125.651 26.1216V25.5961L124.665 25.4107V24.4525H125.651H127.231H128.217V25.4107L127.231 25.5961V32.3157L128.217 32.5011V33.4531H124.665V32.5011L125.651 32.3157V27.8524L125.614 27.8401L121.655 31.92V32.3157L122.648 32.5011V33.4531H119.089Z" fill="#949494"/>
<path d="M136.566 33.4531V32.5011L137.558 32.3157V29.8739C137.221 29.9645 136.89 30.0305 136.566 30.0717C136.241 30.1129 135.871 30.1335 135.454 30.1335C134.385 30.1335 133.565 29.9048 132.994 29.4473C132.424 28.9899 132.139 28.2646 132.139 27.2714V25.5961L131.146 25.4107V24.4525H134.699V25.4107L133.712 25.5961V27.2714C133.712 27.8978 133.85 28.3305 134.124 28.5695C134.399 28.8086 134.842 28.9281 135.454 28.9281C135.808 28.9281 136.162 28.9054 136.516 28.8601C136.87 28.8147 137.217 28.7488 137.558 28.6623V25.5961L136.566 25.4107V24.4525H140.125V25.4107L139.132 25.5961V32.3157L140.125 32.5011V33.4531H136.566Z" fill="#949494"/>
<path d="M143.303 33.4531V32.5011L144.296 32.3157V25.5961L143.303 25.4107V24.4525H150.228V26.7706H149.004L148.898 25.6518H145.869V28.1986H149.06V29.4041H145.869V32.2662H149.066L149.172 31.1226H150.384V33.4531H143.303Z" fill="#949494"/>
<path d="M158.139 33.5829C157.244 33.5829 156.478 33.3954 155.841 33.0204C155.209 32.6412 154.724 32.1137 154.387 31.4379C154.054 30.7579 153.887 29.9687 153.887 29.0703V28.8415C153.887 27.9637 154.054 27.1869 154.387 26.511C154.72 25.831 155.196 25.2973 155.816 24.9099C156.437 24.5184 157.177 24.3227 158.039 24.3227C158.643 24.3227 159.202 24.4113 159.719 24.5885C160.235 24.7657 160.684 25.015 161.067 25.3365V27.4135H159.868L159.706 26.0227C159.569 25.9237 159.417 25.8393 159.25 25.7692C159.084 25.6991 158.901 25.6456 158.701 25.6085C158.505 25.5714 158.291 25.5528 158.058 25.5528C157.513 25.5528 157.044 25.6888 156.653 25.9608C156.266 26.2328 155.97 26.614 155.766 27.1045C155.562 27.5949 155.46 28.1698 155.46 28.8292V29.0703C155.46 29.7544 155.569 30.3437 155.785 30.8382C156.002 31.3286 156.312 31.7057 156.715 31.9695C157.123 32.2332 157.61 32.3651 158.176 32.3651C158.451 32.3651 158.722 32.3342 158.988 32.2724C159.259 32.2065 159.496 32.122 159.7 32.0189L159.868 30.7579H161.055V32.8226C160.705 33.0492 160.276 33.2326 159.769 33.3727C159.265 33.5129 158.722 33.5829 158.139 33.5829Z" fill="#949494"/>
<path d="M164.596 33.4531V32.5011L165.588 32.3157V25.5961L164.596 25.4107V24.4525H168.123V25.4107L167.162 25.5961V28.2914H168.048L169.903 25.6456C170.257 25.1634 170.575 24.8316 170.858 24.6503C171.141 24.4649 171.462 24.3721 171.82 24.3721C172.036 24.3721 172.225 24.3989 172.388 24.4525C172.554 24.5061 172.712 24.5802 172.862 24.675L172.612 25.8187C172.513 25.798 172.423 25.7816 172.344 25.7692C172.269 25.7527 172.192 25.7445 172.113 25.7445C171.93 25.7445 171.759 25.7981 171.601 25.9052C171.443 26.0082 171.26 26.1978 171.052 26.4739L169.409 28.7241L172.138 32.3466L173.05 32.5011V33.4531H169.709V32.5011L170.302 32.4208L170.284 32.396L168.273 29.6699H167.162V32.3157L168.123 32.5011V33.4531H164.596Z" fill="#949494"/>
<path d="M176.203 33.4531V32.5011L177.196 32.3157V25.5961L176.203 25.4107V24.4525H177.196H178.769H179.762V25.4107L178.769 25.5961V30.1891L178.807 30.2015L182.765 26.1216V25.5961L181.779 25.4107V24.4525H182.765H184.345H185.332V25.4107L184.345 25.5961V32.3157L185.332 32.5011V33.4531H181.779V32.5011L182.765 32.3157V27.8524L182.728 27.8401L178.769 31.92V32.3157L179.762 32.5011V33.4531H176.203Z" fill="#949494"/>
<path d="M188.51 33.4531V32.5011L189.303 32.3528L191.982 28.9466L189.478 25.559L188.716 25.4107V24.4525H192.013V25.4107L191.151 25.491L192.906 27.9143L194.61 25.491L193.749 25.4107V24.4525H197.027V25.4107L196.209 25.559L193.824 28.8539L196.49 32.3528L197.326 32.5011V33.4531H193.961V32.5011L194.791 32.4208L192.906 29.8677L191.001 32.4208L191.794 32.5011V33.4531H188.51Z" fill="#949494"/>
<path d="M68.7873 51.7753V50.8233L69.78 50.6379V43.9183L68.7873 43.7329V42.7747H72.315V43.7329L71.3534 43.9183V46.6135H72.24L74.0944 43.9678C74.4482 43.4856 74.7666 43.1538 75.0497 42.9725C75.3327 42.787 75.6532 42.6943 76.0112 42.6943C76.2276 42.6943 76.417 42.7211 76.5794 42.7747C76.7459 42.8283 76.904 42.9024 77.0539 42.9972L76.8041 44.1408C76.7042 44.1202 76.6147 44.1038 76.5357 44.0914C76.4607 44.0749 76.3837 44.0667 76.3046 44.0667C76.1215 44.0667 75.9508 44.1202 75.7927 44.2274C75.6345 44.3304 75.4513 44.52 75.2432 44.7961L73.6011 47.0463L76.3296 50.6688L77.2412 50.8233V51.7753H73.9008V50.8233L74.494 50.7429L74.4753 50.7182L72.4648 47.9921H71.3534V50.6379L72.315 50.8233V51.7753H68.7873Z" fill="#949494"/>
<path d="M83.6604 51.9051C83.0568 51.9051 82.5116 51.7938 82.0246 51.5713C81.5376 51.3446 81.1192 51.0273 80.7696 50.6193C80.4241 50.2113 80.1577 49.7291 79.9704 49.1728C79.7831 48.6164 79.6894 48.0065 79.6894 47.343V47.207C79.6894 46.5476 79.7831 45.9397 79.9704 45.3834C80.1577 44.827 80.4241 44.3448 80.7696 43.9369C81.1192 43.5247 81.5376 43.2074 82.0246 42.9849C82.5116 42.7582 83.0548 42.6449 83.6541 42.6449C84.2744 42.6449 84.83 42.7582 85.3212 42.9849C85.8124 43.2074 86.2307 43.5247 86.5762 43.9369C86.9217 44.3448 87.186 44.827 87.3691 45.3834C87.5523 45.9397 87.6438 46.5476 87.6438 47.207V47.343C87.6438 48.0065 87.5523 48.6164 87.3691 49.1728C87.186 49.7291 86.9217 50.2113 86.5762 50.6193C86.2307 51.0273 85.8124 51.3446 85.3212 51.5713C84.83 51.7938 84.2764 51.9051 83.6604 51.9051ZM83.6604 50.6688C84.2098 50.6688 84.6615 50.5307 85.0153 50.2546C85.3732 49.9743 85.6375 49.5849 85.8082 49.0862C85.983 48.5876 86.0704 48.0065 86.0704 47.343V47.1946C86.0704 46.5394 85.983 45.9645 85.8082 45.4699C85.6334 44.9754 85.367 44.588 85.009 44.3078C84.6552 44.0275 84.2036 43.8874 83.6541 43.8874C83.1297 43.8874 82.6905 44.0275 82.3367 44.3078C81.9829 44.588 81.7165 44.9754 81.5376 45.4699C81.3586 45.9645 81.2691 46.5394 81.2691 47.1946V47.343C81.2691 48.0024 81.3586 48.5835 81.5376 49.0862C81.7165 49.5849 81.9829 49.9743 82.3367 50.2546C82.6947 50.5307 83.1359 50.6688 83.6604 50.6688Z" fill="#949494"/>
<path d="M91.191 51.7753V50.8233L92.1775 50.6379V43.9183L91.191 43.7329V42.7747H92.1775H94.4314L97.0974 49.284H97.1349L99.7198 42.7747H102.998V43.7329L102.005 43.9183V50.6379L102.998 50.8233V51.7753H99.4451V50.8233L100.488 50.6379V48.5422L100.5 44.6045L100.469 44.5983L97.6531 51.5713H96.5105L93.6135 44.6354L93.5823 44.6416L93.6634 48.4372V50.6379L94.7436 50.8233V51.7753H91.191Z" fill="#949494"/>
<path d="M106.295 51.7753V50.8233L107.288 50.6379V43.9183L106.295 43.7329V42.7747H115.43V43.7329L114.437 43.9183V50.6379L115.43 50.8233V51.7753H111.877V50.8233L112.87 50.6379V43.9801H108.861V50.6379L109.848 50.8233V51.7753H106.295Z" fill="#949494"/>
<path d="M118.558 51.7753V50.8233L119.22 50.7306L122.23 42.7747H123.759L126.731 50.7306L127.393 50.8233V51.7753H124.502V50.8233L125.152 50.7058L124.671 49.2902H121.287L120.794 50.7058L121.449 50.8233V51.7753H118.558ZM121.699 48.0972H124.265L123.085 44.7652L123.004 44.5241H122.966L122.879 44.7776L121.699 48.0972Z" fill="#949494"/>
<path d="M130.572 51.7753V50.8233L131.565 50.6379V43.9183L130.572 43.7329V42.7747H134.131V43.7329L133.138 43.9183V46.7248H137.115V43.9183L136.122 43.7329V42.7747H137.115H138.682H139.675V43.7329L138.682 43.9183V50.6379L139.675 50.8233V51.7753H136.122V50.8233L137.115 50.6379V47.9364H133.138V50.6379L134.131 50.8233V51.7753H130.572Z" fill="#949494"/>
<path d="M142.966 51.7753V50.8233L143.959 50.6379V43.9183L142.966 43.7329V42.7747H143.959H145.532H146.525V43.7329L145.532 43.9183V48.5113L145.57 48.5237L149.528 44.4438V43.9183L148.542 43.7329V42.7747H149.528H151.108H152.094V43.7329L151.108 43.9183V50.6379L152.094 50.8233V51.7753H148.542V50.8233L149.528 50.6379V46.1746L149.491 46.1623L145.532 50.2422V50.6379L146.525 50.8233V51.7753H142.966Z" fill="#949494"/>
<path d="M155.336 51.7753V50.8233L156.328 50.6379V43.9183L155.336 43.7329V42.7747H156.328H157.902H158.894V43.7329L157.902 43.9183V48.5113L157.939 48.5237L161.898 44.4438V43.9183L160.911 43.7329V42.7747H161.898H163.477H164.464V43.7329L163.477 43.9183V50.6379L164.464 50.8233V51.7753H160.911V50.8233L161.898 50.6379V46.1746L161.86 46.1623L157.902 50.2422V50.6379L158.894 50.8233V51.7753H155.336ZM159.906 42.1689C159.261 42.1689 158.751 42.004 158.376 41.6743C158.006 41.3446 157.825 40.9181 157.833 40.3947L157.846 40.3576H158.957C158.957 40.6214 159.032 40.8377 159.182 41.0067C159.336 41.1757 159.577 41.2602 159.906 41.2602C160.226 41.2602 160.464 41.1777 160.618 41.0129C160.772 40.8439 160.849 40.6255 160.849 40.3576H161.96L161.973 40.3947C161.981 40.9181 161.798 41.3446 161.423 41.6743C161.053 42.004 160.547 42.1689 159.906 42.1689Z" fill="#949494"/>
</g>
</g>
</svg>
