<svg width="314" height="314" viewBox="0 0 314 314" fill="none" xmlns="http://www.w3.org/2000/svg">
<path d="M257.163 197.5L256.713 198.772L253.319 197.571L253.74 196.383L256.013 197.188L259.017 188.704L256.744 187.899L257.164 186.711L260.558 187.913L260.215 188.88C260.855 189.985 262.131 190.876 264.043 191.553L270.558 193.86L267.921 201.309L257.163 197.5ZM259.717 190.289L257.584 196.312L267.221 199.725L269.018 194.652L263.588 192.729C261.71 192.064 260.42 191.251 259.717 190.289Z" fill="#0D0D0D"/>
<path d="M254.506 203.367L251.75 208.832L250.689 208.297L254.012 201.707L265.263 207.38L261.98 213.89L260.92 213.355L263.635 207.97L259.649 205.961L257.136 210.943L256.076 210.408L258.588 205.426L254.506 203.367Z" fill="#0D0D0D"/>
<path d="M248.602 212.088L249.528 212.711C248.939 213.37 248.798 214.064 249.104 214.791C249.414 215.534 250.305 216.402 251.779 217.393L257.588 221.302L253.026 228.082L242.572 221.048L243.276 220.002L252.743 226.374L255.899 221.684L251.046 218.418C250.1 217.782 249.359 217.175 248.822 216.597C248.285 216.018 247.948 215.466 247.811 214.94C247.676 214.43 247.677 213.946 247.812 213.487C247.95 213.045 248.214 212.578 248.602 212.088Z" fill="#0D0D0D"/>
<path d="M235.103 239.078C234.483 239.322 233.855 239.378 233.219 239.248C232.583 239.135 232.024 238.835 231.543 238.349C230.859 237.659 230.519 236.83 230.523 235.863C230.527 234.896 230.875 234.07 231.565 233.386L235.465 229.521L244.334 238.471L240.729 242.044C240.064 242.703 239.26 243.026 238.319 243.013C237.385 243.009 236.593 242.679 235.943 242.022C235.115 241.187 234.835 240.206 235.103 239.078ZM239.892 241.2L242.603 238.514L239.511 235.394L236.801 238.08C236.383 238.494 236.177 238.994 236.183 239.58C236.189 240.182 236.407 240.701 236.838 241.135C237.26 241.562 237.773 241.78 238.375 241.791C238.969 241.811 239.475 241.614 239.892 241.2ZM232.401 234.229C231.958 234.669 231.739 235.198 231.745 235.817C231.751 236.454 231.982 237.002 232.438 237.463C232.885 237.914 233.428 238.146 234.064 238.157C234.692 238.177 235.227 237.967 235.67 237.528L238.675 234.55L235.406 231.252L232.401 234.229Z" fill="#0D0D0D"/>
<path d="M215.407 246.079C217 245.028 218.664 244.684 220.399 245.049C222.135 245.413 223.505 246.356 224.51 247.879C225.515 249.401 225.843 251.032 225.496 252.771C225.148 254.51 224.178 255.905 222.585 256.956C221.614 257.597 220.567 257.95 219.445 258.014C218.33 258.089 217.291 257.876 216.328 257.376L216.903 256.22C217.656 256.643 218.484 256.83 219.386 256.781C220.288 256.732 221.13 256.45 221.911 255.934C223.223 255.068 224.014 253.935 224.284 252.535C224.553 251.135 224.278 249.814 223.458 248.573C222.639 247.331 221.532 246.558 220.139 246.256C218.746 245.953 217.393 246.234 216.081 247.1C215.3 247.616 214.71 248.279 214.31 249.089C213.91 249.899 213.756 250.734 213.849 251.593L212.57 251.682C212.479 250.606 212.688 249.562 213.199 248.55C213.7 247.544 214.436 246.72 215.407 246.079Z" fill="#0D0D0D"/>
<path d="M204.763 266.465L203.595 267.027L203.101 256.337C203.042 255.246 203.208 254.36 203.599 253.679C203.99 252.998 204.632 252.476 205.522 252.114L206.022 253.151C205.386 253.378 204.93 253.704 204.655 254.13C204.375 254.571 204.251 255.157 204.283 255.887L204.314 256.532L212.19 262.887L211.023 263.45L204.388 258.054L204.763 266.465Z" fill="#0D0D0D"/>
<path d="M185.963 261.123L184.681 261.545L183.557 258.125L184.754 257.731L185.507 260.023L194.057 257.212L193.304 254.921L194.501 254.527L195.625 257.947L194.65 258.268C194.167 259.45 194.242 261.004 194.875 262.931L197.034 269.497L189.527 271.964L185.963 261.123ZM193.231 258.734L187.16 260.73L190.353 270.442L195.466 268.762L193.667 263.29C193.045 261.397 192.9 259.879 193.231 258.734Z" fill="#0D0D0D"/>
<path d="M179.893 262.56L173.886 263.73L173.659 262.564L180.903 261.153L183.312 273.521L176.156 274.914L175.929 273.748L181.848 272.595L180.995 268.214L175.517 269.28L175.29 268.114L180.767 267.048L179.893 262.56Z" fill="#0D0D0D"/>
<path d="M160.81 269.376C160.993 269.176 161.223 269.069 161.498 269.056C161.774 269.043 162.012 269.128 162.213 269.311C162.414 269.494 162.52 269.723 162.533 269.999C162.546 270.275 162.461 270.513 162.278 270.713C162.096 270.914 161.866 271.021 161.591 271.034C161.315 271.047 161.077 270.962 160.876 270.779C160.675 270.596 160.568 270.367 160.555 270.091C160.543 269.815 160.628 269.577 160.81 269.376Z" fill="#0D0D0D"/>
<path d="M138.763 275.155L140.184 262.635L141.436 262.777L140.149 274.116L146.587 274.847L147.875 263.508L149.127 263.651L147.705 276.17L138.763 275.155Z" fill="#0D0D0D"/>
<path d="M123.517 260.4C125.062 259.511 126.714 259.304 128.476 259.779C130.237 260.253 131.562 261.263 132.451 262.807C133.336 264.363 133.544 266.016 133.072 267.766C132.601 269.515 131.593 270.834 130.049 271.723C128.501 272.624 126.847 272.837 125.086 272.362C123.324 271.888 122.001 270.872 121.115 269.316C120.226 267.772 120.018 266.125 120.489 264.375C120.96 262.626 121.97 261.301 123.517 260.4ZM131.374 263.412C130.666 262.165 129.594 261.348 128.157 260.961C126.72 260.574 125.383 260.741 124.144 261.464C122.902 262.198 122.09 263.278 121.706 264.703C121.322 266.128 121.484 267.464 122.192 268.712C122.896 269.97 123.967 270.793 125.404 271.18C126.841 271.567 128.18 271.394 129.422 270.66C130.66 269.937 131.472 268.863 131.856 267.438C132.24 266.013 132.079 264.671 131.374 263.412Z" fill="#0D0D0D"/>
<path d="M104.128 250.079L99.4385 259.204L110.372 253.287L111.332 253.781L105.573 264.988L104.453 264.412L109.142 255.286L98.2089 261.203L97.2483 260.71L103.007 249.503L104.128 250.079Z" fill="#0D0D0D"/>
<path d="M84.371 252.122L83.3418 251.395L90.6108 241.103L91.64 241.83L88.2444 246.638L93.8314 250.584L97.227 245.776L98.2562 246.503L90.9872 256.795L89.958 256.068L93.146 251.555L87.559 247.608L84.371 252.122Z" fill="#0D0D0D"/>
<path d="M72.981 242.263L73.7836 241.387L76.6367 244.002L84.3473 235.589L85.2762 236.441L77.5656 244.854L80.4186 247.468L79.6159 248.344L72.981 242.263Z" fill="#0D0D0D"/>
<path d="M77.0292 229.97L73.0012 225.362L73.8956 224.58L78.7529 230.136L69.2667 238.429L64.4687 232.941L65.3631 232.159L69.3318 236.699L72.6926 233.761L69.0201 229.56L69.9145 228.778L73.587 232.979L77.0292 229.97Z" fill="#0D0D0D"/>
<path d="M71.1713 221.218L70.2466 221.843C69.8555 221.05 69.2657 220.659 68.4769 220.671C67.6715 220.679 66.5331 221.181 65.0615 222.175L59.2599 226.095L54.6845 219.324L65.1244 212.27L65.8299 213.314L56.3743 219.703L59.5388 224.386L64.3859 221.111C65.3305 220.472 66.1713 220.013 66.9084 219.732C67.6456 219.451 68.2839 219.346 68.8235 219.416C69.3465 219.482 69.7953 219.664 70.1699 219.961C70.5279 220.255 70.8617 220.674 71.1713 221.218Z" fill="#0D0D0D"/>
<path d="M63.0616 208.692L62.0597 209.183C61.7816 208.344 61.2511 207.876 60.4683 207.779C59.6694 207.676 58.4728 208.016 56.8784 208.798L50.5922 211.883L46.9926 204.546L58.3044 198.996L58.8594 200.127L48.6142 205.154L51.1038 210.228L56.3557 207.651C57.3791 207.149 58.2752 206.81 59.044 206.633C59.8128 206.456 60.4596 206.44 60.9844 206.583C61.4932 206.721 61.9127 206.963 62.2428 207.309C62.5569 207.65 62.8298 208.111 63.0616 208.692Z" fill="#0D0D0D"/>
<path d="M55.2661 194.285L53.2702 188.5L54.3932 188.112L56.8001 195.089L44.889 199.198L42.5115 192.307L43.6346 191.919L45.6012 197.62L49.8211 196.164L48.0012 190.889L49.1243 190.501L50.9441 195.776L55.2661 194.285Z" fill="#0D0D0D"/>
<path d="M51.0278 174.089L51.3804 175.707L46.6754 182.775L52.6375 181.476L52.9058 182.707L40.5947 185.389L40.3264 184.158L45.9543 182.932L39.1076 178.566L38.755 176.948L46.0224 181.554L51.0278 174.089Z" fill="#0D0D0D"/>
<path d="M37.3523 164.635L38.5345 164.517L38.9178 168.368L50.2737 167.238L50.3985 168.492L39.0426 169.622L39.426 173.473L38.2438 173.591L37.3523 164.635Z" fill="#0D0D0D"/>
<path d="M37.2375 150.98L37.2555 149.685L47.0422 154.015C48.0443 154.449 48.7628 154.993 49.1977 155.647C49.6327 156.301 49.8135 157.108 49.7401 158.067L48.5883 158.051C48.6696 157.38 48.5813 156.827 48.3233 156.391C48.0535 155.943 47.5846 155.571 46.9167 155.273L46.3263 155.013L37.1228 159.224L37.1409 157.928L44.9307 154.4L37.2375 150.98Z" fill="#0D0D0D"/>
<path d="M50.1196 146.63L49.0157 146.466C49.2633 145.617 49.0924 144.931 48.5031 144.406C47.9037 143.868 46.7256 143.469 44.9689 143.208L38.043 142.178L39.2448 134.095L51.7078 135.948L51.5225 137.194L40.2346 135.516L39.4034 141.106L45.1898 141.967C46.3174 142.134 47.2478 142.364 47.981 142.655C48.7142 142.946 49.2561 143.299 49.6067 143.715C49.9472 144.118 50.1552 144.555 50.2306 145.027C50.2958 145.486 50.2588 146.02 50.1196 146.63Z" fill="#0D0D0D"/>
<path d="M55.0585 123.467L51.7591 123.728L50.0934 129.467L52.7406 131.453L52.3694 132.733L41.6183 124.571L41.9795 123.326L55.4298 122.188L55.0585 123.467ZM49.078 128.704L50.4928 123.829L43.3029 124.385L49.078 128.704Z" fill="#0D0D0D"/>
<path d="M56.7768 118.38L55.7565 117.927C56.2212 117.175 56.2394 116.468 55.8111 115.805C55.3767 115.127 54.3477 114.428 52.7241 113.708L46.3228 110.871L49.6346 103.4L61.1536 108.506L60.6429 109.658L50.2101 105.033L47.9195 110.2L53.2676 112.571C54.3098 113.033 55.1455 113.502 55.7746 113.978C56.4038 114.454 56.8319 114.939 57.059 115.433C57.28 115.912 57.3639 116.389 57.3108 116.864C57.2515 117.323 57.0735 117.829 56.7768 118.38Z" fill="#0D0D0D"/>
<path d="M59.194 96.0933C59.7807 95.1299 60.5935 94.5219 61.6324 94.2694C62.6713 94.0169 63.6725 94.184 64.6359 94.7707C65.5993 95.3574 66.2073 96.1702 66.4598 97.2091C66.7123 98.248 66.5452 99.2491 65.9585 100.213L63.6181 104.056L52.8564 97.5027L53.5117 96.4266L57.5089 98.8606L59.194 96.0933ZM64.9439 99.5947C65.3495 98.9285 65.4631 98.2459 65.2845 97.5471C65.1019 96.8318 64.6673 96.265 63.9806 95.8469C63.2939 95.4287 62.596 95.3058 61.8869 95.4781C61.1738 95.634 60.6144 96.045 60.2087 96.7112L58.5236 99.4785L63.2587 102.362L64.9439 99.5947Z" fill="#0D0D0D"/>
<path d="M66.0478 78.7808L66.8387 77.7999L76.647 85.7093L75.8561 86.6901L71.2742 82.9953L66.9806 88.3198L71.5624 92.0146L70.7715 92.9954L60.9632 85.0861L61.7542 84.1053L66.0558 87.5741L70.3494 82.2496L66.0478 78.7808Z" fill="#0D0D0D"/>
<path d="M87.1478 73.2259C87.0676 75.006 86.3543 76.5112 85.0078 77.7417C83.6614 78.9721 82.0981 79.5473 80.318 79.4671C78.5298 79.3781 77.0245 78.6648 75.8021 77.3272C74.5798 75.9895 74.0087 74.4307 74.0888 72.6506C74.1609 70.8616 74.8702 69.3519 76.2166 68.1215C77.5631 66.891 79.1305 66.3203 80.9187 66.4093C82.6988 66.4895 84.2 67.1984 85.4223 68.536C86.6447 69.8736 87.2198 71.4369 87.1478 73.2259ZM80.3862 78.2343C81.8184 78.3073 83.0837 77.8419 84.1821 76.8381C85.2806 75.8343 85.8578 74.616 85.9138 73.183C85.9618 71.7412 85.4879 70.4755 84.4922 69.386C83.4965 68.2964 82.2826 67.7151 80.8504 67.6421C79.4101 67.5603 78.1408 68.0212 77.0423 69.025C75.9439 70.0288 75.3707 71.2516 75.3228 72.6934C75.2668 74.1263 75.7366 75.3876 76.7323 76.4772C77.728 77.5668 78.9459 78.1525 80.3862 78.2343Z" fill="#0D0D0D"/>
<path d="M87.7805 57.3592L87.1991 56.4921L91.0863 53.8859L91.6677 54.7531L87.7805 57.3592ZM100.383 65.8132L94.6697 57.2913L94.5525 69.7225L93.6554 70.3239L86.6388 59.8584L87.6853 59.1567L93.3989 67.6787L93.5161 55.2475L94.4132 54.6461L101.43 65.1116L100.383 65.8132Z" fill="#0D0D0D"/>
<path d="M116.596 57.8849C114.829 58.605 113.13 58.6171 111.499 57.9212C109.868 57.2254 108.708 56.0329 108.019 54.3438C107.331 52.6547 107.327 50.9912 108.007 49.3534C108.687 47.7156 109.911 46.5366 111.678 45.8166C112.756 45.3773 113.851 45.2354 114.964 45.3908C116.073 45.5352 117.05 45.9467 117.897 46.6253L117.108 47.6466C116.451 47.0848 115.676 46.74 114.782 46.6121C113.887 46.4842 113.007 46.5968 112.14 46.9501C110.684 47.5433 109.687 48.5002 109.15 49.8207C108.613 51.1411 108.625 52.4903 109.186 53.8683C109.748 55.2463 110.682 56.2196 111.99 56.7883C113.297 57.357 114.678 57.3447 116.134 56.7514C117.001 56.3982 117.709 55.8632 118.26 55.1466C118.81 54.4299 119.123 53.6413 119.2 52.7806L120.472 52.9429C120.351 54.0155 119.942 54.9986 119.244 55.8923C118.557 56.7814 117.674 57.4456 116.596 57.8849Z" fill="#0D0D0D"/>
<path d="M136.619 49.8935C135.684 51.4104 134.329 52.3795 132.554 52.8007C130.78 53.2219 129.134 52.9651 127.617 52.0301C126.097 51.0835 125.128 49.7286 124.71 47.9656C124.291 46.2026 124.549 44.5626 125.484 43.0457C126.417 41.5171 127.77 40.5422 129.545 40.121C131.319 39.6998 132.967 39.9625 134.486 40.9091C136.003 41.8441 136.971 43.1931 137.389 44.9561C137.808 46.7191 137.551 48.3649 136.619 49.8935ZM128.276 50.9858C129.492 51.7454 130.824 51.9534 132.272 51.6098C133.719 51.2662 134.816 50.4818 135.561 49.2565C136.304 48.0197 136.504 46.6832 136.163 45.2471C135.823 43.811 135.044 42.7131 133.828 41.9534C132.609 41.1821 131.275 40.9683 129.827 41.3119C128.38 41.6555 127.285 42.4458 126.542 43.6827C125.797 44.9079 125.595 46.2385 125.936 47.6746C126.276 49.1107 127.056 50.2145 128.276 50.9858Z" fill="#0D0D0D"/>
<path d="M147.562 42.5952C148.601 42.4995 149.52 42.7887 150.317 43.4625C151.126 44.1352 151.578 44.9854 151.672 46.0131C151.768 47.0527 151.479 47.977 150.806 48.786C150.145 49.582 149.294 50.0278 148.254 50.1234L143.594 50.552L142.44 38.005L149.789 37.3291L149.898 38.5121L143.803 39.0726L144.156 42.9084L147.562 42.5952ZM148.145 48.9404C148.838 48.8766 149.407 48.5713 149.851 48.0244C150.294 47.4774 150.483 46.8454 150.417 46.1285C150.353 45.4234 150.052 44.8425 149.516 44.3857C148.979 43.9169 148.364 43.7144 147.671 43.7782L144.265 44.0914L144.74 49.2536L148.145 48.9404Z" fill="#0D0D0D"/>
<path d="M161.447 50.1123C159.541 50.0278 157.993 49.3285 156.802 48.0145C155.611 46.7004 155.056 45.1323 155.137 43.3101C155.217 41.4879 155.909 39.975 157.212 38.7715C158.514 37.5681 160.119 37.0086 162.025 37.0931C163.188 37.1447 164.242 37.4737 165.188 38.0802C166.135 38.6747 166.851 39.4572 167.336 40.4277L166.193 41.0256C165.831 40.2408 165.271 39.6034 164.512 39.1133C163.753 38.6232 162.906 38.3574 161.97 38.3159C160.4 38.2463 159.095 38.6989 158.054 39.6738C157.014 40.6486 156.461 41.8794 156.395 43.3659C156.329 44.8524 156.771 46.1273 157.721 47.1904C158.671 48.2535 159.931 48.8199 161.502 48.8895C162.437 48.931 163.304 48.7412 164.103 48.3202C164.903 47.8992 165.517 47.3139 165.947 46.5642L167.034 47.243C166.476 48.1672 165.694 48.8892 164.686 49.4091C163.69 49.9295 162.61 50.1639 161.447 50.1123Z" fill="#0D0D0D"/>
<path d="M181.254 39.6757L181.048 40.8457L177.237 40.1738L175.255 51.4124L174.015 51.1937L175.996 39.955L172.185 39.2831L172.391 38.1131L181.254 39.6757Z" fill="#0D0D0D"/>
<path d="M192.384 48.9807C192.891 49.4127 193.238 49.9396 193.423 50.5615C193.624 51.1754 193.624 51.8093 193.423 52.4632C193.138 53.3924 192.568 54.0835 191.713 54.5366C190.859 54.9897 189.967 55.0736 189.038 54.7883L183.789 53.1769L187.488 41.1319L192.34 42.6218C193.235 42.8965 193.899 43.452 194.333 44.2881C194.77 45.1128 194.853 45.9667 194.582 46.85C194.237 47.9742 193.504 48.6844 192.384 48.9807ZM191.992 43.7575L188.344 42.6374L187.054 46.8359L190.702 47.956C191.264 48.1286 191.802 48.074 192.315 47.7923C192.844 47.5026 193.198 47.0652 193.377 46.4802C193.554 45.9066 193.504 45.3517 193.23 44.8155C192.966 44.2827 192.554 43.9301 191.992 43.7575ZM189.386 53.6527C189.983 53.8358 190.553 53.7786 191.096 53.4809C191.654 53.1753 192.029 52.7128 192.219 52.0934C192.405 51.4854 192.354 50.8983 192.063 50.332C191.784 49.7693 191.346 49.3964 190.749 49.2132L186.706 47.9716L185.343 52.4111L189.386 53.6527Z" fill="#0D0D0D"/>
<path d="M198.404 56.9083L203.999 59.3885L203.518 60.4746L196.771 57.4837L201.877 45.9648L208.542 48.9192L208.06 50.0052L202.548 47.5615L200.738 51.6425L205.84 53.9039L205.358 54.9899L200.257 52.7286L198.404 56.9083Z" fill="#0D0D0D"/>
<path d="M221.362 56.0479L222.443 56.695L215.971 67.5061L214.89 66.859L217.913 61.8087L212.044 58.2956L209.021 63.3459L207.94 62.6987L214.412 51.8876L215.493 52.5348L212.655 57.2762L218.524 60.7893L221.362 56.0479Z" fill="#0D0D0D"/>
<path d="M235.124 66.3292L236.102 67.1238L228.156 76.9025L227.178 76.1079L230.89 71.5399L225.582 67.2264L221.87 71.7944L220.892 70.9999L228.838 61.2212L229.816 62.0158L226.331 66.3044L231.639 70.6179L235.124 66.3292Z" fill="#0D0D0D"/>
<path d="M240.661 87.5035C238.881 87.4168 237.379 86.6979 236.153 85.347C234.928 83.996 234.358 82.4306 234.445 80.6508C234.541 78.8629 235.26 77.3603 236.602 76.1429C237.944 74.9254 239.505 74.3601 241.284 74.4468C243.073 74.5254 244.58 75.2402 245.806 76.5912C247.031 77.9422 247.596 79.5116 247.501 81.2994C247.414 83.0792 246.699 84.5779 245.357 85.7953C244.015 87.0127 242.45 87.5821 240.661 87.5035ZM235.678 80.7236C235.599 82.1555 236.06 83.4225 237.06 84.5246C238.06 85.6267 239.276 86.2084 240.709 86.2697C242.15 86.3229 243.418 85.8537 244.511 84.862C245.604 83.8704 246.19 82.6586 246.268 81.2267C246.355 79.7867 245.899 78.5157 244.899 77.4135C243.899 76.3114 242.679 75.7338 241.237 75.6805C239.804 75.6192 238.541 76.0844 237.448 77.0761C236.355 78.0678 235.765 79.2836 235.678 80.7236Z" fill="#0D0D0D"/>
<path d="M245.902 97.9722C244.852 96.3797 244.508 94.7156 244.872 92.98C245.237 91.2443 246.18 89.8742 247.702 88.8695C249.225 87.8648 250.855 87.5363 252.594 87.8838C254.333 88.2314 255.728 89.2015 256.779 90.7939C257.421 91.7654 257.773 92.8121 257.838 93.9341C257.913 95.0494 257.7 96.0884 257.2 97.0513L256.044 96.4768C256.467 95.7232 256.654 94.8954 256.605 93.9932C256.556 93.091 256.273 92.2493 255.758 91.4681C254.892 90.1561 253.759 89.3653 252.359 89.0959C250.959 88.8264 249.638 89.1015 248.396 89.9211C247.154 90.7407 246.382 91.8471 246.079 93.2402C245.777 94.6333 246.058 95.9859 246.924 97.298C247.44 98.0792 248.103 98.6697 248.913 99.0695C249.723 99.4694 250.558 99.623 251.417 99.5305L251.506 100.809C250.43 100.9 249.386 100.691 248.373 100.18C247.367 99.6797 246.544 98.9437 245.902 97.9722Z" fill="#0D0D0D"/>
<path d="M265.842 107.55L264.775 108.073L263.071 104.599L252.825 109.626L252.27 108.495L262.516 103.468L260.811 99.9937L261.877 99.4704L265.842 107.55Z" fill="#0D0D0D"/>
<path d="M259.369 126.069L269.08 122.758L257.104 119.424L256.756 118.402L268.682 114.336L269.088 115.529L259.377 118.839L271.353 122.173L271.702 123.196L259.776 127.261L259.369 126.069Z" fill="#0D0D0D"/>
</svg>
