<svg width="314" height="314" viewBox="0 0 314 314" fill="none" xmlns="http://www.w3.org/2000/svg">
<path d="M269.806 201.977L259.048 198.167L258.598 199.44L255.204 198.238L255.625 197.051L257.899 197.856L260.903 189.372L258.629 188.567L259.05 187.379L262.443 188.581L262.101 189.548C262.741 190.653 264.016 191.544 265.928 192.221L272.444 194.528L269.806 201.977ZM261.602 190.956L259.469 196.98L269.107 200.393L270.903 195.319L265.474 193.397C263.607 192.736 262.317 191.922 261.602 190.956Z" fill="#0D0D0D"/>
<path d="M260.374 206.326L256.291 204.268L253.536 209.732L252.475 209.197L255.798 202.608L267.049 208.281L263.766 214.79L262.706 214.255L265.421 208.871L261.435 206.861L258.922 211.843L257.861 211.309L260.374 206.326Z" fill="#0D0D0D"/>
<path d="M250.261 213.204L251.187 213.827C250.598 214.487 250.457 215.18 250.764 215.907C251.063 216.644 251.955 217.512 253.438 218.51L259.247 222.419L254.685 229.199L244.231 222.164L244.935 221.119L254.403 227.49L257.558 222.801L252.705 219.535C251.759 218.899 251.018 218.291 250.481 217.713C249.944 217.135 249.612 216.586 249.485 216.066C249.351 215.557 249.351 215.072 249.486 214.614C249.615 214.165 249.873 213.695 250.261 213.204Z" fill="#0D0D0D"/>
<path d="M236.511 240.499C235.882 240.751 235.25 240.811 234.614 240.681C233.978 240.551 233.424 240.247 232.951 239.77C232.266 239.08 231.927 238.251 231.931 237.283C231.935 236.316 232.283 235.49 232.973 234.806L236.873 230.942L245.742 239.891L242.136 243.464C241.48 244.115 240.677 244.438 239.726 244.434C238.793 244.429 238.001 244.099 237.351 243.443C236.523 242.608 236.243 241.626 236.511 240.499ZM241.3 242.621L244.011 239.935L240.919 236.815L238.209 239.501C237.799 239.906 237.594 240.406 237.591 241C237.605 241.611 237.823 242.13 238.246 242.556C238.66 242.974 239.172 243.192 239.783 243.212C240.385 243.223 240.891 243.026 241.3 242.621ZM236.814 232.672L233.809 235.65C233.366 236.089 233.147 236.619 233.153 237.238C233.15 237.866 233.381 238.414 233.846 238.883C234.302 239.343 234.844 239.575 235.472 239.578C236.099 239.598 236.635 239.388 237.078 238.949L240.083 235.971L236.814 232.672Z" fill="#0D0D0D"/>
<path d="M216.509 247.748C218.111 246.69 219.775 246.347 221.501 246.718C223.243 247.092 224.613 248.035 225.612 249.548C226.61 251.06 226.938 252.691 226.597 254.44C226.26 256.172 225.29 257.567 223.687 258.625C222.726 259.259 221.684 259.609 220.562 259.674C219.447 259.748 218.403 259.539 217.43 259.045L218.004 257.889C218.758 258.312 219.586 258.499 220.488 258.45C221.39 258.401 222.232 258.119 223.013 257.603C224.335 256.731 225.126 255.598 225.385 254.205C225.648 252.795 225.373 251.474 224.56 250.242C223.747 249.01 222.641 248.238 221.241 247.925C219.858 247.616 218.505 247.897 217.183 248.77C216.402 249.285 215.811 249.948 215.411 250.758C215.012 251.569 214.858 252.403 214.951 253.262L213.672 253.351C213.581 252.276 213.79 251.232 214.301 250.219C214.811 249.206 215.547 248.383 216.509 247.748Z" fill="#0D0D0D"/>
<path d="M205.256 259.856L205.631 268.267L204.463 268.829L203.969 258.138C203.91 257.048 204.076 256.162 204.467 255.481C204.858 254.8 205.499 254.278 206.39 253.915L206.89 254.953C206.254 255.18 205.798 255.506 205.523 255.931C205.243 256.373 205.119 256.959 205.151 257.689L205.182 258.334L213.058 264.689L211.891 265.252L205.256 259.856Z" fill="#0D0D0D"/>
<path d="M190.151 273.864L186.588 263.023L185.305 263.445L184.181 260.025L185.378 259.631L186.131 261.923L194.681 259.112L193.928 256.821L195.125 256.427L196.249 259.847L195.275 260.168C194.792 261.35 194.867 262.904 195.5 264.831L197.658 271.397L190.151 273.864ZM193.855 260.634L187.785 262.63L190.977 272.342L196.09 270.662L194.292 265.19C193.673 263.309 193.528 261.79 193.855 260.634Z" fill="#0D0D0D"/>
<path d="M181.15 269.011L180.276 264.523L174.269 265.693L174.041 264.527L181.285 263.116L183.694 275.484L176.539 276.877L176.311 275.711L182.23 274.559L181.377 270.177L175.9 271.244L175.673 270.078L181.15 269.011Z" fill="#0D0D0D"/>
<path d="M160.649 272.089C160.636 271.813 160.721 271.575 160.904 271.374C161.086 271.173 161.316 271.067 161.591 271.054C161.867 271.041 162.105 271.126 162.306 271.309C162.507 271.492 162.614 271.721 162.627 271.997C162.639 272.272 162.554 272.511 162.372 272.711C162.189 272.912 161.959 273.019 161.684 273.032C161.408 273.045 161.17 272.96 160.969 272.777C160.768 272.594 160.662 272.365 160.649 272.089Z" fill="#0D0D0D"/>
<path d="M147.48 278.157L138.537 277.142L139.959 264.622L141.211 264.764L139.923 276.104L146.362 276.835L147.649 265.496L148.901 265.638L147.48 278.157Z" fill="#0D0D0D"/>
<path d="M122.997 262.331C124.541 261.443 126.194 261.235 127.955 261.71C129.717 262.184 131.042 263.194 131.93 264.738C132.813 266.306 133.02 267.959 132.552 269.697C132.081 271.446 131.073 272.765 129.528 273.654C127.981 274.555 126.326 274.768 124.565 274.293C122.804 273.819 121.481 272.803 120.595 271.248C119.706 269.703 119.497 268.056 119.969 266.306C120.437 264.568 121.446 263.243 122.997 262.331ZM131.335 269.369C131.722 267.932 131.562 266.59 130.854 265.343C130.146 264.096 129.074 263.279 127.637 262.892C126.2 262.505 124.862 262.672 123.624 263.395C122.385 264.118 121.572 265.198 121.185 266.634C120.801 268.059 120.963 269.396 121.671 270.643C122.376 271.901 123.447 272.724 124.884 273.111C126.32 273.498 127.66 273.325 128.901 272.591C130.14 271.868 130.951 270.794 131.335 269.369Z" fill="#0D0D0D"/>
<path d="M102.093 251.282L103.214 251.858L98.5244 260.983L109.458 255.066L110.418 255.56L104.659 266.767L103.539 266.191L108.228 257.065L97.2948 262.982L96.3342 262.489L102.093 251.282Z" fill="#0D0D0D"/>
<path d="M86.4052 249.242L83.2172 253.756L82.188 253.029L89.457 242.737L90.4862 243.464L87.0906 248.272L92.6776 252.218L96.0732 247.41L97.1024 248.137L89.8334 258.429L88.8042 257.702L91.9922 253.188L86.4052 249.242Z" fill="#0D0D0D"/>
<path d="M78.2646 249.819L71.6296 243.738L72.4323 242.862L75.2853 245.477L82.9959 237.064L83.9248 237.915L76.2142 246.328L79.0673 248.943L78.2646 249.819Z" fill="#0D0D0D"/>
<path d="M72.0813 234.295L75.5234 231.286L71.4954 226.678L72.3899 225.897L77.2471 231.453L67.761 239.746L62.9629 234.257L63.8573 233.475L67.8261 238.015L71.1869 235.077L67.5143 230.876L68.4087 230.094L72.0813 234.295Z" fill="#0D0D0D"/>
<path d="M69.5141 222.338L68.5894 222.963C68.1984 222.17 67.6085 221.779 66.8198 221.791C66.0244 221.792 64.8859 222.294 63.4044 223.295L57.6028 227.215L53.0274 220.444L63.4673 213.389L64.1728 214.433L54.7172 220.823L57.8817 225.506L62.7288 222.231C63.6733 221.592 64.5142 221.133 65.2513 220.852C65.9884 220.571 66.6218 220.469 67.1515 220.545C67.6745 220.612 68.1232 220.794 68.4979 221.091C68.8658 221.378 69.2045 221.794 69.5141 222.338Z" fill="#0D0D0D"/>
<path d="M61.2661 209.573L60.2642 210.064C59.9861 209.225 59.4556 208.757 58.6728 208.66C57.8847 208.552 56.688 208.892 55.0828 209.679L48.7967 212.764L45.1971 205.427L56.5089 199.877L57.0639 201.008L46.8186 206.035L49.3083 211.109L54.5602 208.532C55.5836 208.03 56.4797 207.691 57.2485 207.514C58.0172 207.337 58.6587 207.323 59.1728 207.472C59.6816 207.61 60.101 207.852 60.4312 208.198C60.756 208.533 61.0343 208.992 61.2661 209.573Z" fill="#0D0D0D"/>
<path d="M49.0535 196.429L53.3755 194.938L51.3795 189.152L52.5026 188.765L54.9095 195.741L42.9984 199.85L40.6209 192.959L41.7439 192.572L43.7105 198.272L47.9304 196.816L46.1106 191.541L47.2336 191.154L49.0535 196.429Z" fill="#0D0D0D"/>
<path d="M44.0683 181.98L49.0736 174.515L49.4262 176.133L44.7213 183.201L50.6833 181.901L50.9516 183.132L38.6406 185.815L38.3723 184.584L44.0002 183.358L37.1535 178.992L36.8009 177.373L44.0683 181.98Z" fill="#0D0D0D"/>
<path d="M36.2536 173.789L35.3622 164.833L36.5443 164.715L36.9277 168.566L48.2835 167.436L48.4083 168.69L37.0525 169.82L37.4358 173.671L36.2536 173.789Z" fill="#0D0D0D"/>
<path d="M42.9309 154.372L35.2377 150.953L35.2557 149.657L45.0424 153.987C46.0445 154.421 46.763 154.965 47.1979 155.619C47.6329 156.273 47.8137 157.08 47.7403 158.039L46.5884 158.023C46.6698 157.352 46.5815 156.799 46.3235 156.363C46.0537 155.915 45.5848 155.543 44.9169 155.246L44.3265 154.985L35.123 159.196L35.141 157.9L42.9309 154.372Z" fill="#0D0D0D"/>
<path d="M48.1413 146.336L47.0375 146.172C47.285 145.323 47.1141 144.637 46.5248 144.112C45.9373 143.576 44.7592 143.176 42.9907 142.914L36.0648 141.884L37.2665 133.801L49.7295 135.654L49.5443 136.9L38.2563 135.222L37.4252 140.812L43.2116 141.673C44.3392 141.84 45.2696 142.069 46.0027 142.36C46.7359 142.651 47.2719 143.004 47.6107 143.418C47.9512 143.821 48.1591 144.258 48.2345 144.73C48.3116 145.191 48.2806 145.726 48.1413 146.336Z" fill="#0D0D0D"/>
<path d="M53.5091 121.63L53.1378 122.91L49.8384 123.17L48.1727 128.909L50.8199 130.896L50.4486 132.175L39.6976 124.013L40.0588 122.769L53.5091 121.63ZM41.3821 123.827L47.1572 128.146L48.572 123.271L41.3821 123.827Z" fill="#0D0D0D"/>
<path d="M54.9483 117.569L53.9281 117.117C54.3928 116.365 54.411 115.657 53.9827 114.995C53.5593 114.322 52.5303 113.623 50.8957 112.898L44.4944 110.06L47.8062 102.589L59.3252 107.696L58.8145 108.848L48.3817 104.223L46.0911 109.39L51.4392 111.761C52.4814 112.223 53.3171 112.692 53.9462 113.167C54.5754 113.643 54.998 114.126 55.2142 114.615C55.4352 115.094 55.5191 115.571 55.4659 116.046C55.4176 116.51 55.2451 117.018 54.9483 117.569Z" fill="#0D0D0D"/>
<path d="M55.8007 97.8204L57.4858 95.0531C58.0725 94.0897 58.8853 93.4817 59.9242 93.2292C60.9631 92.9767 61.9643 93.1438 62.9277 93.7305C63.8911 94.3172 64.4991 95.1299 64.7516 96.1688C65.0041 97.2077 64.837 98.2089 64.2503 99.1723L61.9099 103.016L51.1482 96.4625L51.8035 95.3864L55.8007 97.8204ZM61.5505 101.322L63.2357 98.5545C63.6413 97.8883 63.7549 97.2057 63.5763 96.5069C63.404 95.7978 62.9693 95.2311 62.2724 94.8067C61.5857 94.3885 60.8878 94.2656 60.1787 94.4379C59.4656 94.5938 58.9062 95.0048 58.5005 95.671L56.8154 98.4383L61.5505 101.322Z" fill="#0D0D0D"/>
<path d="M68.7926 80.9941L64.4909 77.5253L65.2819 76.5445L75.0902 84.4538L74.2992 85.4347L69.7174 81.7399L65.4237 87.0644L70.0056 90.7592L69.2146 91.74L59.4064 83.8306L60.1973 82.8498L64.4989 86.3186L68.7926 80.9941Z" fill="#0D0D0D"/>
<path d="M85.7986 71.7495C85.7184 73.5296 85.0051 75.0348 83.6587 76.2653C82.3122 77.4957 80.7489 78.0709 78.9688 77.9907C77.1725 77.8928 75.6672 77.1795 74.453 75.8508C73.2306 74.5132 72.6595 72.9543 72.7397 71.1742C72.8117 69.3852 73.521 67.8755 74.8675 66.6451C76.214 65.4146 77.7813 64.8439 79.5695 64.9329C81.3496 65.0131 82.8508 65.722 84.0732 67.0596C85.2874 68.3883 85.8626 69.9516 85.7986 71.7495ZM75.3831 75.0008C76.3869 76.0992 77.6049 76.6849 79.037 76.7579C80.4692 76.8309 81.7345 76.3655 82.833 75.3617C83.9314 74.3579 84.5086 73.1396 84.5647 71.7066C84.6207 70.2737 84.1468 69.008 83.143 67.9096C82.1474 66.82 80.9334 66.2387 79.5012 66.1657C78.061 66.0839 76.7916 66.5449 75.6932 67.5486C74.5947 68.5524 74.0215 69.7752 73.9736 71.217C73.9176 72.6499 74.3874 73.9112 75.3831 75.0008Z" fill="#0D0D0D"/>
<path d="M90.5539 53.0919L86.6667 55.6981L86.0854 54.8309L89.9726 52.2247L90.5539 53.0919ZM100.316 63.4504L99.2695 64.152L93.556 55.6301L93.4387 68.0613L92.5417 68.6627L85.525 58.1972L86.5716 57.4955L92.2851 66.0175L92.4024 53.5863L93.2994 52.9849L100.316 63.4504Z" fill="#0D0D0D"/>
<path d="M115.841 56.0328C114.063 56.7574 112.364 56.7695 110.744 56.0691C109.108 55.3622 107.948 54.1697 107.265 52.4917C106.581 50.8137 106.577 49.1502 107.252 47.5013C107.921 45.868 109.145 44.6891 110.923 43.9645C111.99 43.5297 113.08 43.3901 114.193 43.5455C115.301 43.6899 116.284 44.0991 117.142 44.7732L116.353 45.7945C115.697 45.2327 114.921 44.8879 114.027 44.76C113.132 44.6321 112.252 44.7447 111.385 45.098C109.918 45.6958 108.922 46.6526 108.395 47.9685C107.862 49.3001 107.874 50.6493 108.431 52.0162C108.989 53.383 109.923 54.3564 111.235 54.9362C112.531 55.5094 113.912 55.4971 115.379 54.8993C116.246 54.5461 116.955 54.0111 117.505 53.2945C118.055 52.5778 118.369 51.7892 118.446 50.9285L119.717 51.0907C119.597 52.1634 119.187 53.1465 118.489 54.0402C117.791 54.9338 116.908 55.598 115.841 56.0328Z" fill="#0D0D0D"/>
<path d="M136.157 47.9476C135.222 49.4645 133.867 50.4336 132.092 50.8548C130.318 51.276 128.672 51.0191 127.155 50.0842C125.633 49.1259 124.663 47.771 124.248 46.0197C123.829 44.2567 124.088 42.6167 125.023 41.0998C125.955 39.5712 127.308 38.5963 129.083 38.175C130.858 37.7538 132.505 38.0165 134.024 38.9632C135.541 39.8981 136.509 41.2471 136.928 43.0101C137.343 44.7615 137.086 46.4073 136.157 47.9476ZM125.474 45.7287C125.817 47.1765 126.597 48.2802 127.814 49.0398C129.03 49.7995 130.362 50.0075 131.81 49.6639C133.258 49.3202 134.354 48.5358 135.099 47.3106C135.844 46.0854 136.045 44.7489 135.702 43.3011C135.361 41.865 134.582 40.7671 133.366 40.0075C132.147 39.2362 130.813 39.0223 129.366 39.366C127.918 39.7096 126.823 40.4998 126.08 41.7367C125.335 42.9619 125.133 44.2926 125.474 45.7287Z" fill="#0D0D0D"/>
<path d="M143.973 40.9168L147.379 40.6036C148.406 40.5091 149.325 40.7982 150.134 41.4709C150.943 42.1436 151.394 42.9938 151.489 44.0215C151.585 45.0611 151.296 45.9854 150.623 46.7944C149.961 47.5904 149.111 48.0362 148.071 48.1318L143.411 48.5604L142.257 36.0134L149.606 35.3375L149.714 36.5205L143.62 37.081L143.973 40.9168ZM144.557 47.262L147.962 46.9488C148.655 46.885 149.224 46.5797 149.667 46.0328C150.11 45.4739 150.299 44.8419 150.234 44.1369C150.17 43.4438 149.87 42.8629 149.333 42.3941C148.808 41.9242 148.192 41.7217 147.487 41.7866L144.082 42.0998L144.557 47.262Z" fill="#0D0D0D"/>
<path d="M161.536 48.1143C159.618 48.0292 158.069 47.3299 156.89 46.0164C155.7 44.6904 155.145 43.1223 155.225 41.312C155.305 39.5018 155.997 37.989 157.3 36.7735C158.591 35.5695 160.195 35.01 162.113 35.0951C163.264 35.1461 164.313 35.4749 165.259 36.0814C166.205 36.6759 166.927 37.4587 167.425 38.4296L166.281 39.0276C165.92 38.2428 165.359 37.6053 164.6 37.1152C163.841 36.6251 162.994 36.3593 162.059 36.3179C160.477 36.2477 159.171 36.7003 158.143 37.6757C157.102 38.6626 156.549 39.8933 156.484 41.3679C156.419 42.8424 156.86 44.1172 157.81 45.1923C158.748 46.2549 160.008 46.8213 161.59 46.8915C162.525 46.9329 163.393 46.7432 164.192 46.3222C164.991 45.9012 165.606 45.3158 166.036 44.5661L167.123 45.2449C166.565 46.1692 165.782 46.8912 164.774 47.411C163.766 47.9309 162.687 48.1653 161.536 48.1143Z" fill="#0D0D0D"/>
<path d="M172.738 36.1435L181.601 37.7061L181.395 38.876L177.584 38.2041L175.603 49.4428L174.362 49.2241L176.343 37.9854L172.532 37.3135L172.738 36.1435Z" fill="#0D0D0D"/>
<path d="M192.971 47.0688C193.49 47.5043 193.842 48.033 194.028 48.6549C194.213 49.2767 194.208 49.9089 194.01 50.5513C193.725 51.4805 193.155 52.1716 192.3 52.6247C191.446 53.0778 190.554 53.1617 189.625 52.8764L184.376 51.265L188.075 39.22L192.927 40.7099C193.811 40.9811 194.475 41.5365 194.92 42.3762C195.357 43.2008 195.44 44.0548 195.169 44.9381C194.824 46.0623 194.091 46.7725 192.971 47.0688ZM192.579 41.8456L188.931 40.7255L187.642 44.924L191.289 46.0441C191.84 46.2132 192.378 46.1586 192.903 45.8804C193.434 45.5792 193.788 45.1419 193.964 44.5683C194.137 44.0062 194.088 43.4513 193.817 42.9036C193.542 42.3673 193.129 42.0146 192.579 41.8456ZM185.93 50.4992L189.973 51.7408C190.57 51.9239 191.14 51.8667 191.683 51.569C192.238 51.2749 192.612 50.8124 192.806 50.1815C192.996 49.562 192.944 48.9749 192.65 48.4201C192.371 47.8574 191.933 47.4845 191.336 47.3013L187.293 46.0597L185.93 50.4992Z" fill="#0D0D0D"/>
<path d="M201.068 50.9002L199.215 55.0799L204.81 57.5601L204.328 58.6462L197.581 55.6553L202.688 44.1364L209.352 47.0907L208.871 48.1768L203.358 45.7331L201.549 49.8141L206.65 52.0754L206.169 53.1615L201.068 50.9002Z" fill="#0D0D0D"/>
<path d="M219.551 59.0733L222.389 54.3318L223.47 54.979L216.999 65.7901L215.917 65.1429L218.941 60.0926L213.072 56.5795L210.049 61.6298L208.967 60.9827L215.439 50.1716L216.52 50.8187L213.682 55.5602L219.551 59.0733Z" fill="#0D0D0D"/>
<path d="M232.901 69.0657L236.385 64.7771L237.363 65.5717L229.417 75.3503L228.44 74.5558L232.151 69.9877L226.843 65.6742L223.131 70.2423L222.153 69.4477L230.099 59.669L231.077 60.4636L227.592 64.7522L232.901 69.0657Z" fill="#0D0D0D"/>
<path d="M242.143 86.1597C240.363 86.073 238.86 85.3542 237.635 84.0032C236.409 82.6522 235.84 81.0869 235.926 79.3071C236.031 77.5111 236.75 76.0085 238.083 74.7991C239.425 73.5817 240.986 73.0163 242.766 73.103C244.554 73.1817 246.062 73.8965 247.287 75.2474C248.513 76.5984 249.078 78.1678 248.982 79.9557C248.895 81.7355 248.181 83.2341 246.839 84.4515C245.506 85.6609 243.94 86.2303 242.143 86.1597ZM238.93 75.7324C237.827 76.7321 237.237 77.9479 237.159 79.3798C237.081 80.8117 237.541 82.0787 238.541 83.1809C239.541 84.283 240.757 84.8647 242.19 84.926C243.623 84.9873 244.89 84.518 245.992 83.5183C247.085 82.5266 247.671 81.3148 247.749 79.8829C247.837 78.443 247.38 77.1719 246.38 76.0698C245.381 74.9677 244.16 74.39 242.718 74.3368C241.286 74.2755 240.023 74.7407 238.93 75.7324Z" fill="#0D0D0D"/>
<path d="M247.572 96.8705C246.514 95.268 246.171 93.604 246.542 91.8784C246.916 90.1361 247.859 88.7659 249.371 87.7679C250.884 86.7698 252.515 86.4412 254.264 86.7822C255.996 87.1198 257.391 88.0898 258.449 89.6923C259.083 90.6538 259.433 91.6955 259.497 92.8174C259.572 93.9327 259.363 94.9768 258.869 95.9497L257.713 95.3752C258.136 94.6216 258.323 93.7938 258.274 92.8916C258.225 91.9894 257.943 91.1477 257.427 90.3665C256.555 89.0444 255.422 88.2537 254.028 87.9943C252.618 87.7314 251.297 88.0065 250.066 88.8195C248.834 89.6325 248.061 90.7389 247.749 92.1386C247.439 93.5217 247.721 94.8743 248.593 96.1963C249.109 96.9775 249.772 97.5681 250.582 97.9679C251.392 98.3677 252.227 98.5214 253.086 98.4289L253.175 99.7073C252.099 99.7988 251.055 99.5893 250.043 99.0787C249.03 98.5681 248.206 97.832 247.572 96.8705Z" fill="#0D0D0D"/>
<path d="M263.673 98.5894L267.637 106.669L266.571 107.193L264.866 103.718L254.621 108.745L254.066 107.614L264.311 102.587L262.606 99.1127L263.673 98.5894Z" fill="#0D0D0D"/>
<path d="M261.669 126.616L261.262 125.423L270.974 122.113L258.997 118.779L258.649 117.757L270.575 113.691L270.981 114.884L261.27 118.194L273.246 121.528L273.595 122.55L261.669 126.616Z" fill="#0D0D0D"/>
</svg>
