<svg width="293" height="293" viewBox="0 0 293 293" fill="none" xmlns="http://www.w3.org/2000/svg">
<path d="M265.937 167.386L264.008 176.177L262.848 175.923L263.677 172.143L252.53 169.698L252.8 168.467L263.947 170.912L264.776 167.132L265.937 167.386Z" fill="#0D0D0D"/>
<path d="M248.271 189.055C247.52 187.439 247.458 185.775 248.084 184.061C248.71 182.348 249.831 181.116 251.447 180.365C253.085 179.623 254.75 179.56 256.441 180.178C258.143 180.8 259.369 181.919 260.12 183.535C260.882 185.155 260.95 186.822 260.324 188.535C259.698 190.248 258.571 191.478 256.944 192.225C255.328 192.976 253.669 193.04 251.967 192.418C250.277 191.8 249.045 190.679 248.271 189.055ZM256.008 181.361C254.611 180.851 253.26 180.894 251.956 181.49C250.652 182.087 249.744 183.084 249.234 184.482C248.723 185.879 248.773 187.226 249.386 188.523C249.998 189.82 251.002 190.724 252.4 191.235C253.786 191.741 255.131 191.696 256.435 191.1C257.751 190.507 258.664 189.512 259.175 188.115C259.685 186.717 259.629 185.368 259.006 184.067C258.394 182.77 257.395 181.868 256.008 181.361Z" fill="#0D0D0D"/>
<path d="M246.667 203.141C246.14 203.567 245.553 203.811 244.907 203.874C244.261 203.937 243.642 203.811 243.049 203.494C242.192 203.036 241.623 202.344 241.342 201.418C241.061 200.492 241.15 199.601 241.608 198.744L244.196 193.902L255.308 199.841L252.916 204.317C252.48 205.132 251.808 205.678 250.899 205.954C250.005 206.225 249.151 206.142 248.336 205.707C247.299 205.153 246.743 204.297 246.667 203.141ZM251.868 203.757L253.667 200.392L249.793 198.322L247.995 201.687C247.723 202.195 247.674 202.734 247.846 203.302C248.04 203.882 248.401 204.313 248.93 204.596C249.449 204.873 250.003 204.931 250.593 204.77C251.171 204.603 251.597 204.265 251.868 203.757ZM244.65 195.573L242.656 199.304C242.362 199.854 242.309 200.424 242.497 201.015C242.679 201.615 243.061 202.071 243.643 202.383C244.215 202.688 244.801 202.749 245.402 202.567C246.008 202.401 246.458 202.043 246.752 201.493L248.745 197.762L244.65 195.573Z" fill="#0D0D0D"/>
<path d="M232.285 213.099L233.052 212.011L236.257 212.839L239.701 207.955L237.845 205.214L238.612 204.126L246.119 215.344L245.372 216.403L232.285 213.099ZM244.466 214.971L240.412 209.007L237.487 213.156L244.466 214.971Z" fill="#0D0D0D"/>
<path d="M238.164 225.664L235.131 228.988C234.37 229.822 233.456 230.263 232.388 230.312C231.32 230.361 230.37 230.005 229.536 229.245C228.703 228.485 228.262 227.571 228.213 226.503C228.164 225.434 228.519 224.484 229.28 223.651L231.463 221.257L228.006 218.103L228.855 217.172L238.164 225.664ZM232.341 222.058L230.157 224.451C229.632 225.027 229.39 225.676 229.431 226.396C229.465 227.125 229.783 227.764 230.385 228.314C230.979 228.856 231.641 229.11 232.37 229.077C233.1 229.06 233.727 228.764 234.253 228.188L236.437 225.794L232.341 222.058Z" fill="#0D0D0D"/>
<path d="M218.771 236.72L222.361 240.921L221.403 241.739L213.218 232.16L214.176 231.342L217.999 235.817L223.2 231.373L219.376 226.898L220.334 226.08L228.519 235.659L227.561 236.477L223.971 232.276L218.771 236.72Z" fill="#0D0D0D"/>
<path d="M205.705 237.407L209.505 234.996L216.255 245.635L215.191 246.31L212.684 242.358L209.948 244.094C208.995 244.698 207.997 244.884 206.954 244.651C205.911 244.417 205.087 243.824 204.483 242.872C203.878 241.919 203.693 240.921 203.926 239.878C204.16 238.835 204.752 238.011 205.705 237.407ZM200.157 240.926L201.221 240.251L207.971 250.891L206.907 251.566L200.157 240.926ZM212.047 241.355L209.077 236.674L206.341 238.41C205.683 238.828 205.279 239.389 205.13 240.095C204.97 240.807 205.109 241.508 205.546 242.197C205.977 242.876 206.549 243.295 207.261 243.454C207.969 243.63 208.653 243.509 209.311 243.091L212.047 241.355Z" fill="#0D0D0D"/>
<path d="M193.073 251.668L186.599 247.49L187.908 246.89L193.262 250.354L194.124 244.036L195.433 243.435L194.382 251.068L200.445 254.998L199.152 255.592L194.2 252.399L193.394 258.235L192.102 258.829L193.073 251.668Z" fill="#0D0D0D"/>
<path d="M173.111 258.498C172.371 258.419 171.746 258.168 171.238 257.743C170.729 257.318 170.382 256.752 170.196 256.044C169.927 255.023 170.089 254.081 170.682 253.218C171.265 252.37 172.201 251.777 173.49 251.438C174.604 251.145 175.58 251.156 176.419 251.469C177.259 251.782 177.933 252.318 178.443 253.077L177.554 253.944C177.217 253.325 176.735 252.881 176.106 252.612C175.48 252.355 174.708 252.346 173.791 252.587C172.863 252.831 172.188 253.238 171.767 253.807C171.346 254.377 171.228 255.016 171.414 255.724C171.6 256.432 171.994 256.937 172.594 257.238C173.194 257.539 173.912 257.58 174.748 257.361L176.14 256.995L176.442 258.144L175.485 258.395C174.661 258.612 174.058 258.987 173.678 259.522C173.3 260.067 173.199 260.677 173.376 261.35C173.55 262.012 173.928 262.483 174.511 262.764C175.093 263.046 175.785 263.081 176.586 262.871C178.083 262.477 178.902 261.58 179.042 260.178L180.208 260.505C179.967 262.33 178.861 263.501 176.888 264.02C175.75 264.318 174.736 264.237 173.846 263.776C172.97 263.324 172.406 262.616 172.153 261.653C171.833 260.434 172.152 259.383 173.111 258.498Z" fill="#0D0D0D"/>
<path d="M158.291 261.649L159.045 267.123L157.796 267.295L156.078 254.813L157.326 254.641L158.129 260.472L164.905 259.539L164.102 253.708L165.351 253.536L167.069 266.019L165.821 266.19L165.067 260.716L158.291 261.649Z" fill="#0D0D0D"/>
<path d="M141.558 255.164L142.89 255.159L144.071 258.251L150.047 258.229L151.206 255.129L152.538 255.124L147.742 267.742L146.446 267.747L141.558 255.164ZM147.088 266.178L149.602 259.419L144.526 259.437L147.088 266.178Z" fill="#0D0D0D"/>
<path d="M132.885 260.855L127.474 253.679L129.118 253.876L134.253 260.638L134.98 254.58L136.231 254.73L134.729 267.24L133.478 267.09L134.165 261.371L127.795 266.408L126.151 266.211L132.885 260.855Z" fill="#0D0D0D"/>
<path d="M112.21 251.633C113.754 250.743 115.406 250.534 117.168 251.007C118.93 251.479 120.256 252.487 121.146 254.031C122.03 255.597 122.239 257.25 121.773 258.989C121.303 260.739 120.297 262.059 118.753 262.949C117.206 263.851 115.552 264.066 113.791 263.593C112.029 263.121 110.704 262.107 109.817 260.552C108.927 259.008 108.716 257.361 109.186 255.611C109.652 253.873 110.66 252.547 112.21 251.633ZM120.556 258.662C120.941 257.225 120.78 255.883 120.07 254.637C119.361 253.39 118.288 252.574 116.851 252.189C115.414 251.803 114.076 251.972 112.838 252.696C111.6 253.42 110.788 254.501 110.403 255.938C110.02 257.363 110.184 258.699 110.893 259.946C111.599 261.204 112.671 262.025 114.108 262.411C115.545 262.797 116.884 262.622 118.125 261.886C119.363 261.162 120.173 260.088 120.556 258.662Z" fill="#0D0D0D"/>
<path d="M97.9957 251.239C97.5256 250.751 97.2311 250.188 97.1122 249.55C96.9933 248.912 97.0658 248.284 97.3298 247.666C97.7117 246.773 98.3515 246.146 99.2492 245.785C100.147 245.425 101.043 245.436 101.937 245.818L106.985 247.975L102.035 259.561L97.3671 257.567C96.5174 257.204 95.9156 256.582 95.5616 255.7C95.214 254.834 95.2217 253.976 95.5847 253.126C96.0467 252.044 96.8504 251.416 97.9957 251.239ZM97.8339 256.475L101.343 257.974L103.069 253.935L99.5594 252.436C99.0297 252.21 98.4892 252.207 97.938 252.428C97.3773 252.672 96.9791 253.069 96.7434 253.621C96.5124 254.162 96.5028 254.719 96.7146 255.292C96.9311 255.854 97.3042 256.248 97.8339 256.475ZM105.36 248.572L101.47 246.91C100.896 246.665 100.323 246.662 99.7516 246.9C99.1688 247.134 98.7478 247.555 98.4885 248.162C98.234 248.757 98.2236 249.347 98.4575 249.929C98.6756 250.519 99.0715 250.936 99.6454 251.181L103.535 252.843L105.36 248.572Z" fill="#0D0D0D"/>
<path d="M85.0606 243.984C85.2041 243.748 85.4079 243.598 85.6717 243.534C85.9356 243.47 86.1854 243.51 86.4211 243.654C86.6568 243.797 86.8067 244.001 86.8708 244.265C86.9349 244.529 86.8951 244.778 86.7516 245.014C86.608 245.25 86.4043 245.4 86.1404 245.464C85.8766 245.528 85.6268 245.488 85.3911 245.345C85.1553 245.201 85.0054 244.997 84.9413 244.733C84.8772 244.47 84.917 244.22 85.0606 243.984Z" fill="#0D0D0D"/>
<path d="M72.6329 243.168L65.681 237.452L66.4355 236.534L69.4248 238.992L76.6724 230.177L77.6457 230.977L70.3981 239.792L73.3874 242.25L72.6329 243.168Z" fill="#0D0D0D"/>
<path d="M61.3759 217.529C63.1565 217.598 64.6666 218.301 65.9061 219.639C67.1456 220.977 67.7313 222.536 67.6632 224.317C67.5775 226.114 66.8744 227.624 65.5539 228.847C64.2246 230.078 62.6696 230.66 60.889 230.592C59.0996 230.532 57.5851 229.833 56.3456 228.495C55.1061 227.157 54.5248 225.593 54.6017 223.805C54.6698 222.024 55.3685 220.518 56.6978 219.287C58.0184 218.063 59.5777 217.478 61.3759 217.529ZM64.6976 227.923C65.7893 226.912 66.3667 225.69 66.43 224.257C66.4933 222.824 66.0194 221.562 65.0082 220.471C63.997 219.379 62.7748 218.81 61.3415 218.764C59.9082 218.717 58.6457 219.2 57.5541 220.211C56.4713 221.214 55.8982 222.432 55.8349 223.864C55.7628 225.305 56.2324 226.571 57.2436 227.663C58.2547 228.755 59.4814 229.32 60.9235 229.358C62.3568 229.404 63.6148 228.926 64.6976 227.923Z" fill="#0D0D0D"/>
<path d="M49.5969 209.72C49.4565 209.057 49.5048 208.423 49.7418 207.819C49.9788 207.215 50.3729 206.721 50.9241 206.336C51.7214 205.78 52.5962 205.587 53.5485 205.757C54.5008 205.927 55.255 206.41 55.811 207.208L58.9513 211.711L48.6163 218.918L45.7127 214.755C45.1842 213.997 45.0033 213.15 45.1701 212.214C45.3339 211.295 45.7948 210.572 46.5527 210.043C47.5173 209.37 48.5321 209.263 49.5969 209.72ZM46.6872 214.075L48.87 217.205L52.4725 214.693L50.2897 211.563C49.9602 211.09 49.5031 210.802 48.9183 210.698C48.3139 210.607 47.7656 210.733 47.2735 211.077C46.7912 211.413 46.488 211.88 46.3641 212.479C46.25 213.07 46.3577 213.602 46.6872 214.075ZM57.2561 211.357L54.8365 207.887C54.4796 207.375 53.9955 207.069 53.3842 206.969C52.766 206.859 52.1862 206.992 51.6449 207.37C51.1134 207.74 50.7925 208.235 50.6823 208.853C50.5554 209.468 50.6704 210.032 51.0273 210.544L53.4469 214.013L57.2561 211.357Z" fill="#0D0D0D"/>
<path d="M47.2244 192.311L47.8457 193.489L45.6528 195.968L48.4401 201.254L51.7244 200.845L52.3457 202.023L38.9418 203.617L38.3373 202.471L47.2244 192.311ZM40.0248 202.313L47.1794 201.41L44.8118 196.92L40.0248 202.313Z" fill="#0D0D0D"/>
<path d="M33.4042 191.942L31.8163 187.732C31.4183 186.676 31.4396 185.661 31.8802 184.687C32.3208 183.713 33.0688 183.027 34.1242 182.629C35.1797 182.231 36.1944 182.252 37.1686 182.693C38.1427 183.133 38.8288 183.882 39.2268 184.937L40.3701 187.969L44.7491 186.317L45.1937 187.496L33.4042 191.942ZM39.2585 188.388L38.1153 185.356C37.84 184.626 37.3721 184.117 36.7114 183.827C36.0465 183.526 35.3323 183.52 34.5688 183.808C33.8165 184.092 33.29 184.566 32.9893 185.231C32.6731 185.889 32.6526 186.583 32.9279 187.312L34.0712 190.344L39.2585 188.388Z" fill="#0D0D0D"/>
<path d="M32.3516 169.628L26.9768 170.912L26.684 169.686L38.9392 166.758L39.2319 167.984L33.507 169.352L35.0964 176.004L40.8213 174.637L41.1141 175.862L28.859 178.79L28.5662 177.565L33.9409 176.281L32.3516 169.628Z" fill="#0D0D0D"/>
<path d="M37.6803 157.656L38.0908 162.137L25.5433 163.287L25.4284 162.032L30.0888 161.605L29.7933 158.379C29.6904 157.255 29.9809 156.283 30.6648 155.461C31.3486 154.639 32.2522 154.177 33.3755 154.074C34.4988 153.971 35.4714 154.261 36.2932 154.945C37.115 155.629 37.5774 156.533 37.6803 157.656ZM37.0809 151.113L37.1959 152.368L24.6484 153.518L24.5335 152.263L37.0809 151.113ZM31.2719 161.497L36.7928 160.991L36.4972 157.764C36.4261 156.988 36.1106 156.372 35.5508 155.917C34.9898 155.45 34.3031 155.254 33.4905 155.329C32.6898 155.402 32.0561 155.719 31.5893 156.28C31.1095 156.83 30.9052 157.493 30.9763 158.27L31.2719 161.497Z" fill="#0D0D0D"/>
<path d="M30.7491 140.108L37.4168 136.247L37.3557 137.686L31.8335 140.874L37.0656 144.52L37.0045 145.958L30.688 141.546L24.4273 145.154L24.4876 143.733L29.5855 140.779L24.7564 137.403L24.8167 135.982L30.7491 140.108Z" fill="#0D0D0D"/>
<path d="M33.8543 118.756C34.2637 118.135 34.7737 117.695 35.3845 117.438C35.9952 117.181 36.6578 117.133 37.3721 117.292C38.4027 117.522 39.1655 118.098 39.6604 119.021C40.1462 119.928 40.2438 121.032 39.9535 122.332C39.7023 123.456 39.2451 124.319 38.582 124.921C37.9188 125.523 37.1329 125.876 36.2243 125.981L35.8625 124.793C36.5666 124.779 37.1825 124.553 37.7101 124.118C38.2261 123.68 38.5874 122.998 38.794 122.073C39.0033 121.136 38.9515 120.35 38.6385 119.714C38.3255 119.079 37.8118 118.681 37.0975 118.522C36.3831 118.362 35.7543 118.48 35.2111 118.875C34.6679 119.27 34.3021 119.889 34.1137 120.732L33.7998 122.138L32.6404 121.879L32.8562 120.913C33.0419 120.081 32.9848 119.374 32.6848 118.79C32.3731 118.204 31.8776 117.835 31.1983 117.684C30.5308 117.534 29.9384 117.654 29.4212 118.043C28.9041 118.431 28.5552 119.03 28.3747 119.838C28.0372 121.349 28.459 122.488 29.64 123.256L28.8151 124.141C27.3038 123.091 26.7706 121.57 27.2153 119.579C27.4717 118.431 28.0089 117.567 28.8269 116.988C29.6306 116.417 30.5185 116.241 31.4906 116.458C32.7203 116.732 33.5082 117.499 33.8543 118.756Z" fill="#0D0D0D"/>
<path d="M37.7783 104.244L32.5666 102.407L32.9855 101.218L44.8688 105.407L44.4499 106.595L38.8987 104.639L36.6247 111.09L42.1759 113.046L41.757 114.235L29.8737 110.046L30.2926 108.858L35.5043 110.695L37.7783 104.244Z" fill="#0D0D0D"/>
<path d="M51.2689 92.1138L50.6633 93.3002L47.3739 92.9348L44.6571 98.2575L46.8827 100.707L46.2772 101.894L37.2558 91.8526L37.845 90.6983L51.2689 92.1138ZM38.9452 91.9874L43.8035 97.3167L46.1111 92.7955L38.9452 91.9874Z" fill="#0D0D0D"/>
<path d="M50.0024 82.0517L58.8606 80.5313L57.9316 81.9022L49.5681 83.3664L54.6194 86.7896L53.9126 87.8327L43.4821 80.7641L44.189 79.721L48.9572 82.9524L47.4001 74.9826L48.3291 73.6118L50.0024 82.0517Z" fill="#0D0D0D"/>
<path d="M67.343 68.2095C67.4312 69.9892 66.8631 71.5551 65.6387 72.9071C64.4143 74.2591 62.9123 74.9792 61.1326 75.0673C59.3351 75.1394 57.7692 74.5713 56.435 73.363C55.0919 72.1467 54.3763 70.6487 54.2881 68.869C54.191 67.0812 54.7547 65.5113 55.979 64.1593C57.2034 62.8073 58.7099 62.0913 60.4985 62.0112C62.2783 61.923 63.8397 62.4871 65.1828 63.7034C66.517 64.9116 67.2371 66.4137 67.343 68.2095ZM57.2808 72.4291C58.3837 73.4279 59.6515 73.8961 61.0842 73.8336C62.5169 73.7711 63.7326 73.1884 64.7315 72.0855C65.7303 70.9825 66.19 69.7152 66.1106 68.2833C66.0311 66.8515 65.4399 65.6361 64.337 64.6373C63.2429 63.6465 61.9796 63.1824 60.5469 63.2449C59.1053 63.2993 57.8851 63.878 56.8863 64.9809C55.8875 66.0839 55.4322 67.3553 55.5206 68.7952C55.6 70.227 56.1867 71.4383 57.2808 72.4291Z" fill="#0D0D0D"/>
<path d="M73.9853 55.8326C74.6334 55.635 75.2687 55.6279 75.8912 55.8114C76.5137 55.9949 77.0405 56.3444 77.4714 56.86C78.0947 57.6059 78.3633 58.4605 78.2771 59.424C78.191 60.3874 77.775 61.1809 77.0292 61.8042L72.8167 65.3249L64.7364 55.657L68.6312 52.4018C69.3401 51.8093 70.1679 51.5553 71.1145 51.64C72.0441 51.7231 72.8053 52.1192 73.3978 52.8282C74.152 53.7305 74.3478 54.732 73.9853 55.8326ZM69.393 53.3134L66.465 55.7606L69.2816 59.1305L72.2096 56.6833C72.6516 56.3139 72.899 55.8334 72.9519 55.2418C72.9894 54.6318 72.8158 54.0966 72.431 53.6362C72.0539 53.185 71.5619 52.9238 70.9549 52.8525C70.3556 52.7903 69.835 52.944 69.393 53.3134ZM73.0217 63.6053L76.2673 60.8927C76.7461 60.4925 77.0089 59.9835 77.0556 59.3658C77.1115 58.7404 76.9279 58.1745 76.5046 57.6681C76.0891 57.1709 75.5686 56.8943 74.9432 56.8384C74.3193 56.7655 73.7679 56.9292 73.2891 57.3294L70.0435 60.042L73.0217 63.6053Z" fill="#0D0D0D"/>
<path d="M86.4941 47.4311C86.6385 47.6663 86.6792 47.9159 86.6161 48.18C86.553 48.4441 86.4038 48.6484 86.1687 48.7928C85.9335 48.9373 85.6838 48.9779 85.4197 48.9148C85.1557 48.8517 84.9514 48.7025 84.8069 48.4674C84.6625 48.2322 84.6218 47.9825 84.6849 47.7185C84.748 47.4544 84.8972 47.2501 85.1324 47.1056C85.3676 46.9612 85.6172 46.9205 85.8813 46.9836C86.1454 47.0468 86.3496 47.1959 86.4941 47.4311Z" fill="#0D0D0D"/>
<path d="M92.6692 36.7662L100.916 33.1614L101.392 34.2499L97.8456 35.8L102.416 46.2566L101.262 46.7613L96.6911 36.3047L93.1451 37.8547L92.6692 36.7662Z" fill="#0D0D0D"/>
<path d="M120.845 38.2362C119.975 39.7915 118.663 40.8172 116.907 41.3134C115.152 41.8096 113.497 41.6228 111.942 40.7531C110.38 39.8603 109.354 38.5478 108.864 36.8157C108.372 35.072 108.56 33.4226 109.43 31.8673C110.296 30.3005 111.607 29.269 113.362 28.7728C115.117 28.2766 116.774 28.4692 118.333 29.3504C119.888 30.2202 120.912 31.5269 121.405 33.2705C121.895 35.0026 121.708 36.6579 120.845 38.2362ZM110.077 36.4729C110.482 37.9048 111.308 38.9744 112.555 39.6817C113.803 40.3891 115.142 40.5403 116.574 40.1355C118.006 39.7307 119.068 38.9005 119.761 37.6447C120.453 36.389 120.597 35.0452 120.192 33.6133C119.791 32.1929 118.966 31.1291 117.719 30.4218C116.468 29.7029 115.127 29.5459 113.695 29.9507C112.263 30.3555 111.203 31.1915 110.513 32.4588C109.821 33.7145 109.675 35.0526 110.077 36.4729Z" fill="#0D0D0D"/>
<path d="M133.543 31.2219C134.197 31.4008 134.738 31.734 135.166 32.2215C135.595 32.709 135.853 33.2857 135.942 33.9518C136.071 34.9152 135.842 35.7813 135.255 36.5499C134.668 37.3186 133.892 37.7674 132.929 37.8963L127.488 38.6245L125.816 26.1359L130.847 25.4626C131.763 25.34 132.599 25.5672 133.354 26.1441C134.096 26.7108 134.528 27.452 134.65 28.3678C134.806 29.5334 134.437 30.4848 133.543 31.2219ZM131.005 26.6401L127.223 27.1462L127.805 31.4994L131.588 30.9933C132.159 30.9169 132.624 30.6427 132.985 30.1707C133.342 29.6749 133.481 29.1297 133.402 28.535C133.324 27.9522 133.047 27.4686 132.572 27.0842C132.098 26.7117 131.576 26.5637 131.005 26.6401ZM128.579 37.2799L132.771 36.7188C133.39 36.6361 133.884 36.346 134.253 35.8486C134.634 35.3497 134.781 34.7731 134.694 34.1189C134.608 33.4766 134.315 32.9649 133.816 32.5837C133.328 32.1891 132.774 32.0331 132.156 32.1159L127.963 32.6769L128.579 37.2799Z" fill="#0D0D0D"/>
<path d="M150.128 37.0824L148.796 37.0923L147.603 34.0051L141.627 34.0496L140.48 37.1542L139.148 37.1642L143.896 24.5285L145.192 24.5188L150.128 37.0824ZM144.556 26.0896L142.068 32.8583L147.144 32.8205L144.556 26.0896Z" fill="#0D0D0D"/>
<path d="M156.515 24.9209L160.985 25.4399C162.105 25.57 162.998 26.0541 163.661 26.8923C164.325 27.7304 164.592 28.7097 164.462 29.8302C164.332 30.9507 163.848 31.8428 163.009 32.5066C162.171 33.1703 161.192 33.4372 160.072 33.3071L156.853 32.9334L156.313 37.5821L155.062 37.4368L156.515 24.9209ZM156.99 31.7533L160.209 32.127C160.983 32.2169 161.651 32.0347 162.211 31.5803C162.783 31.1272 163.116 30.4954 163.21 29.6849C163.303 28.8863 163.123 28.2009 162.67 27.6288C162.23 27.0462 161.623 26.7099 160.848 26.62L157.63 26.2463L156.99 31.7533Z" fill="#0D0D0D"/>
<path d="M177.292 34.2692L178.621 28.9054L179.844 29.2084L176.813 41.4386L175.59 41.1355L177.006 35.4223L170.367 33.7771L168.951 39.4904L167.728 39.1873L170.759 26.9572L171.982 27.2602L170.653 32.624L177.292 34.2692Z" fill="#0D0D0D"/>
<path d="M185.677 44.5346L181.506 42.8457L186.235 31.1667L187.403 31.6396L185.646 35.9775L188.649 37.1935C189.695 37.6168 190.426 38.3207 190.843 39.3052C191.26 40.2897 191.257 41.3047 190.834 42.3502C190.41 43.3958 189.706 44.1271 188.722 44.5441C187.738 44.9611 186.723 44.9579 185.677 44.5346ZM191.767 47.0003L190.599 46.5274L195.328 34.8484L196.495 35.3213L191.767 47.0003ZM185.2 37.0787L183.12 42.2174L186.123 43.4334C186.846 43.7262 187.538 43.728 188.199 43.4388C188.87 43.1542 189.36 42.6337 189.666 41.8774C189.968 41.1321 189.976 40.4235 189.691 39.7516C189.422 39.073 188.926 38.5874 188.203 38.2947L185.2 37.0787Z" fill="#0D0D0D"/>
<path d="M203.971 46.1389L204.357 53.834L203.105 53.1221L202.793 46.753L197.16 49.7405L195.908 49.0286L202.719 45.427L202.372 38.2096L203.608 38.9126L203.906 44.7972L209.115 42.0449L210.351 42.7479L203.971 46.1389Z" fill="#0D0D0D"/>
<path d="M221.654 58.7019C222.019 59.3505 222.176 60.0052 222.125 60.6658C222.074 61.3264 221.814 61.9378 221.345 62.4997C220.668 63.3105 219.806 63.7247 218.76 63.7423C217.731 63.7585 216.705 63.3398 215.682 62.4863C214.798 61.7481 214.24 60.9465 214.008 60.0813C213.777 59.2161 213.823 58.3557 214.146 57.5002L215.368 57.7223C215.058 58.3551 214.976 59.0057 215.122 59.6742C215.275 60.3334 215.715 60.9668 216.443 61.5742C217.18 62.1893 217.903 62.5033 218.611 62.5161C219.32 62.529 219.908 62.2544 220.377 61.6924C220.846 61.1304 221.03 60.5175 220.927 59.8537C220.825 59.1899 220.442 58.5811 219.778 58.0275L218.673 57.1048L219.434 56.1928L220.194 56.8271C220.848 57.373 221.503 57.6462 222.159 57.6467C222.823 57.638 223.378 57.3665 223.824 56.8321C224.262 56.307 224.427 55.7256 224.319 55.0879C224.21 54.4502 223.838 53.866 223.202 53.3355C222.014 52.3436 220.808 52.1967 219.584 52.8949L219.175 51.7561C220.801 50.8938 222.397 51.1163 223.963 52.4234C224.866 53.1769 225.388 54.05 225.529 55.0427C225.668 56.0184 225.418 56.8886 224.78 57.6533C223.972 58.6207 222.931 58.9702 221.654 58.7019Z" fill="#0D0D0D"/>
<path d="M232.5 68.5437L236.513 64.7443L237.379 65.6593L228.229 74.3224L227.363 73.4074L231.637 69.3605L226.934 64.3937L222.66 68.4406L221.794 67.5257L230.943 58.8626L231.81 59.7775L227.797 63.5769L232.5 68.5437Z" fill="#0D0D0D"/>
<path d="M237.212 86.0963L236.43 85.0178L238.25 82.2536L234.743 77.4147L231.55 78.2842L230.768 77.2056L243.812 73.7323L244.573 74.7817L237.212 86.0963ZM242.924 75.176L235.969 77.082L238.948 81.1921L242.924 75.176Z" fill="#0D0D0D"/>
<path d="M246.883 89.7308L244.212 98.3124L243.413 96.8619L245.91 88.7465L240.565 91.6905L239.957 90.5869L250.993 84.5077L251.601 85.6114L246.556 88.3904L254.363 90.6251L255.162 92.0756L246.883 89.7308Z" fill="#0D0D0D"/>
<path d="M251.336 111.423C249.709 110.695 248.571 109.478 247.921 107.774C247.271 106.07 247.311 104.405 248.039 102.778C248.79 101.144 250.006 100.005 251.688 99.3641C253.381 98.7184 255.041 98.7598 256.667 99.4881C258.304 100.212 259.448 101.426 260.098 103.131C260.748 104.835 260.703 106.502 259.963 108.133C259.235 109.759 258.024 110.895 256.331 111.541C254.649 112.182 252.984 112.143 251.336 111.423ZM252.137 100.541C250.746 101.072 249.754 101.989 249.16 103.295C248.567 104.6 248.535 105.948 249.065 107.338C249.595 108.728 250.516 109.713 251.829 110.291C253.141 110.87 254.492 110.894 255.882 110.363C257.262 109.838 258.248 108.922 258.842 107.617C259.447 106.307 259.484 104.957 258.954 103.567C258.424 102.176 257.497 101.194 256.174 100.62C254.862 100.042 253.516 100.015 252.137 100.541Z" fill="#0D0D0D"/>
<path d="M259.412 123.249C259.293 123.916 259.009 124.485 258.563 124.956C258.116 125.426 257.565 125.736 256.909 125.885C255.961 126.1 255.078 125.95 254.26 125.434C253.441 124.919 252.924 124.187 252.709 123.239L251.493 117.886L263.781 115.095L264.905 120.045C265.109 120.946 264.958 121.799 264.452 122.603C263.954 123.393 263.255 123.89 262.354 124.095C261.207 124.355 260.227 124.073 259.412 123.249ZM263.746 120.308L262.901 116.587L258.618 117.56L259.463 121.281C259.591 121.843 259.906 122.282 260.408 122.598C260.934 122.91 261.49 122.999 262.075 122.866C262.648 122.736 263.105 122.417 263.445 121.909C263.773 121.404 263.874 120.87 263.746 120.308ZM252.931 118.851L253.868 122.976C254.006 123.585 254.339 124.05 254.868 124.373C255.399 124.708 255.987 124.802 256.63 124.656C257.262 124.513 257.745 124.175 258.08 123.644C258.429 123.122 258.535 122.556 258.396 121.948L257.46 117.823L252.931 118.851Z" fill="#0D0D0D"/>
</svg>
