<svg width="261" height="263" viewBox="0 0 261 263" fill="none" xmlns="http://www.w3.org/2000/svg">
<path d="M249.877 160.546L247.401 169.198L235.287 165.732L235.633 164.521L246.605 167.66L248.388 161.43L237.416 158.291L237.763 157.079L249.877 160.546Z" fill="#0D0D0D"/>
<path d="M229.365 180.073L229.906 178.856L233.21 179.044L235.637 173.583L233.283 171.257L233.824 170.04L243.372 179.582L242.845 180.766L229.365 180.073ZM241.678 179.538L236.54 174.477L234.479 179.116L241.678 179.538Z" fill="#0D0D0D"/>
<path d="M238.804 189.186L234.199 196.919L233.178 196.311L235.158 192.986L225.353 187.147L225.998 186.064L235.803 191.903L237.783 188.578L238.804 189.186Z" fill="#0D0D0D"/>
<path d="M224.853 198.415L221.206 195.658L217.516 200.54L216.568 199.824L221.019 193.937L231.07 201.535L226.673 207.35L225.726 206.634L229.362 201.824L225.801 199.132L222.436 203.583L221.488 202.867L224.853 198.415Z" fill="#0D0D0D"/>
<path d="M212.175 215.051L216.137 218.903L215.259 219.806L206.224 211.024L207.102 210.121L211.323 214.223L216.09 209.318L211.87 205.216L212.748 204.312L221.783 213.095L220.905 213.998L216.942 210.146L212.175 215.051Z" fill="#0D0D0D"/>
<path d="M211.54 223.144L204.519 228.775L203.776 227.848L206.795 225.427L199.655 216.525L200.637 215.736L207.778 224.638L210.797 222.217L211.54 223.144Z" fill="#0D0D0D"/>
<path d="M184.118 228.923C184.549 227.194 185.547 225.86 187.11 224.921C188.674 223.982 190.32 223.728 192.049 224.159C193.79 224.611 195.124 225.608 196.051 227.151C196.984 228.704 197.235 230.345 196.804 232.074C196.379 233.814 195.385 235.153 193.821 236.092C192.257 237.031 190.608 237.28 188.873 236.839C187.144 236.407 185.813 235.415 184.88 233.862C183.953 232.319 183.699 230.673 184.118 228.923ZM194.971 227.8C194.205 226.524 193.127 225.709 191.738 225.354C190.348 224.998 189.016 225.204 187.74 225.97C186.465 226.736 185.658 227.816 185.319 229.21C184.98 230.603 185.194 231.938 185.96 233.213C186.72 234.478 187.795 235.289 189.184 235.644C190.58 236.009 191.915 235.809 193.191 235.043C194.466 234.277 195.27 233.192 195.603 231.788C195.942 230.394 195.731 229.065 194.971 227.8Z" fill="#0D0D0D"/>
<path d="M173.92 238.88C173.242 238.877 172.633 238.697 172.092 238.338C171.552 237.979 171.151 237.49 170.892 236.87C170.516 235.974 170.511 235.078 170.877 234.183C171.244 233.287 171.875 232.652 172.772 232.276L177.835 230.154L182.706 241.774L178.024 243.736C177.172 244.094 176.306 244.092 175.427 243.732C174.563 243.379 173.953 242.776 173.595 241.924C173.141 240.839 173.249 239.824 173.92 238.88ZM177.565 242.641L181.085 241.166L179.387 237.115L175.867 238.59C175.336 238.813 174.958 239.199 174.733 239.749C174.517 240.321 174.525 240.883 174.757 241.437C174.985 241.979 175.378 242.374 175.937 242.621C176.491 242.857 177.034 242.863 177.565 242.641ZM177.132 231.736L173.231 233.372C172.655 233.613 172.254 234.022 172.028 234.598C171.79 235.179 171.798 235.774 172.054 236.383C172.304 236.981 172.72 237.398 173.301 237.636C173.876 237.89 174.451 237.896 175.026 237.655L178.927 236.019L177.132 231.736Z" fill="#0D0D0D"/>
<path d="M150.729 245.858L151.812 251.276L150.577 251.523L148.106 239.168L149.341 238.921L150.496 244.693L157.203 243.351L156.049 237.58L157.284 237.333L159.755 249.688L158.52 249.935L157.436 244.516L150.729 245.858Z" fill="#0D0D0D"/>
<path d="M133.635 240.366L134.964 240.281L136.328 243.297L142.292 242.919L143.263 239.755L144.593 239.671L140.558 252.552L139.265 252.634L133.635 240.366ZM139.812 251.03L141.918 244.133L136.852 244.454L139.812 251.03Z" fill="#0D0D0D"/>
<path d="M119.908 252.321L115.441 251.775C114.321 251.638 113.432 251.148 112.773 250.306C112.115 249.464 111.854 248.483 111.991 247.363C112.128 246.244 112.618 245.354 113.46 244.696C114.302 244.037 115.283 243.776 116.403 243.913L119.619 244.307L120.187 239.662L121.438 239.815L119.908 252.321ZM119.474 245.486L116.258 245.093C115.484 244.998 114.816 245.176 114.253 245.627C113.678 246.076 113.341 246.706 113.242 247.516C113.144 248.314 113.32 249.001 113.77 249.576C114.206 250.161 114.811 250.501 115.585 250.596L118.801 250.989L119.474 245.486Z" fill="#0D0D0D"/>
<path d="M106.928 243.341L108 238.897L102.051 237.461L102.33 236.306L109.504 238.037L106.548 250.286L99.4615 248.576L99.7402 247.421L105.602 248.835L106.649 244.496L101.225 243.187L101.504 242.032L106.928 243.341Z" fill="#0D0D0D"/>
<path d="M92.7363 246.494L86.1435 244.083L86.5515 242.967L91.9611 244.946L95.881 234.228L97.0643 234.661L92.7363 246.494Z" fill="#0D0D0D"/>
<path d="M77.2267 225.818L78.3477 226.393L73.6629 235.521L84.5932 229.598L85.554 230.092L79.8008 241.301L78.6798 240.726L83.3646 231.598L72.4344 237.521L71.4735 237.028L77.2267 225.818Z" fill="#0D0D0D"/>
<path d="M68.3566 219.677C69.9174 220.795 70.8332 222.226 71.1041 223.97C71.3777 225.731 70.9868 227.348 69.9315 228.821C68.8762 230.294 67.4708 231.184 65.7155 231.491C63.9769 231.796 62.3273 231.389 60.7665 230.27C59.8301 229.599 59.131 228.752 58.6694 227.727C58.2008 226.712 58.023 225.662 58.1362 224.577L59.4208 224.7C59.2954 225.555 59.4169 226.395 59.7854 227.22C60.1539 228.045 60.7185 228.73 61.4794 229.275C62.767 230.198 64.1078 230.531 65.5017 230.275C66.9124 230.016 68.0476 229.287 68.9073 228.087C69.7669 226.887 70.0925 225.578 69.8839 224.159C69.6781 222.757 68.9314 221.594 67.6437 220.672C66.8829 220.127 66.0526 219.812 65.153 219.729C64.2534 219.645 63.4189 219.8 62.6497 220.194L62.1095 219.032C63.0811 218.562 64.131 218.384 65.2594 218.498C66.3878 218.613 67.4202 219.006 68.3566 219.677Z" fill="#0D0D0D"/>
<path d="M52.504 223.621L45.9151 217.49L46.7243 216.62L49.5576 219.257L57.3313 210.902L58.2538 211.76L50.48 220.115L53.3133 222.751L52.504 223.621Z" fill="#0D0D0D"/>
<path d="M41.4557 212.759L38.5267 209.343C37.7925 208.486 37.4663 207.525 37.5482 206.459C37.6301 205.393 38.0992 204.493 38.9555 203.759C39.8119 203.025 40.773 202.698 41.8391 202.78C42.9051 202.862 43.8052 203.331 44.5394 204.188L46.6482 206.647L50.2012 203.601L51.0213 204.558L41.4557 212.759ZM45.7463 207.421L43.6375 204.961C43.1298 204.369 42.516 204.049 41.7963 204.002C41.0687 203.947 40.3951 204.184 39.7756 204.715C39.1653 205.239 38.8321 205.864 38.7762 206.592C38.7034 207.318 38.9209 207.977 39.4286 208.569L41.5375 211.029L45.7463 207.421Z" fill="#0D0D0D"/>
<path d="M37.8404 186.845L38.5718 187.959L36.6266 190.636L39.9077 195.631L43.1377 194.909L43.869 196.022L30.6796 198.894L29.968 197.81L37.8404 186.845ZM31.6327 197.492L38.6677 195.907L35.8807 191.665L31.6327 197.492Z" fill="#0D0D0D"/>
<path d="M20.0307 179.572L30.3122 174.619L29.7264 173.403L32.9697 171.841L33.5165 172.976L31.3435 174.023L35.2881 182.212L23.9363 187.68L23.3895 186.545L33.671 181.593L30.859 175.755L20.5775 180.707L20.0307 179.572Z" fill="#0D0D0D"/>
<path d="M26.2377 159.212L26.6186 160.413L16.8387 163.515L28.741 167.104L29.0675 168.134L17.0571 171.943L16.6762 170.742L26.4561 167.64L14.5538 164.05L14.2273 163.021L26.2377 159.212Z" fill="#0D0D0D"/>
<path d="M23.3923 144.303L23.6016 145.546L13.4841 147.25L24.7677 152.468L24.9471 153.533L12.5222 155.626L12.3129 154.384L22.4303 152.679L11.1467 147.461L10.9673 146.396L23.3923 144.303Z" fill="#0D0D0D"/>
<path d="M16.4422 130.477C16.7182 130.476 16.9527 130.57 17.1458 130.761C17.3388 130.952 17.4361 131.186 17.4377 131.462C17.4392 131.738 17.3445 131.972 17.1536 132.165C16.9626 132.358 16.7292 132.456 16.4532 132.457C16.1772 132.459 15.9427 132.364 15.7496 132.173C15.5565 131.982 15.4592 131.749 15.4577 131.473C15.4562 131.197 15.5509 130.962 15.7418 130.769C15.9327 130.576 16.1662 130.479 16.4422 130.477Z" fill="#0D0D0D"/>
<path d="M10.9386 116.658L12.3401 107.768L24.7864 109.73L24.5902 110.975L13.3174 109.197L12.3083 115.598L23.5811 117.375L23.3849 118.62L10.9386 116.658Z" fill="#0D0D0D"/>
<path d="M28.7067 95.3024L28.3257 96.5787L25.0244 96.8142L23.315 102.541L25.947 104.547L25.566 105.824L14.8774 97.5798L15.2481 96.3379L28.7067 95.3024ZM16.5634 97.4068L22.3054 101.77L23.7573 96.9056L16.5634 97.4068Z" fill="#0D0D0D"/>
<path d="M18.1816 87.4174L21.7753 79.166L22.8645 79.6404L21.3192 83.1884L31.7819 87.7453L31.2788 88.9004L20.8161 84.3436L19.2708 87.8917L18.1816 87.4174Z" fill="#0D0D0D"/>
<path d="M30.8965 76.3905L34.8588 78.6716L37.9122 73.3678L38.9418 73.9605L35.2597 80.3563L24.34 74.0699L27.9772 67.752L29.0067 68.3447L25.9982 73.5706L29.8669 75.7978L32.6509 70.962L33.6805 71.5547L30.8965 76.3905Z" fill="#0D0D0D"/>
<path d="M41.3833 58.3029L36.9751 54.9704L37.735 53.9653L47.786 61.5637L47.0262 62.5688L42.3309 59.0193L38.2061 64.4756L42.9013 68.0251L42.1415 69.0302L32.0904 61.4318L32.8503 60.4267L37.2584 63.7592L41.3833 58.3029Z" fill="#0D0D0D"/>
<path d="M40.9119 50.2458L47.1848 43.7922L48.0367 44.6202L45.3393 47.3953L53.5226 55.3494L52.6444 56.2529L44.4611 48.2988L41.7637 51.0739L40.9119 50.2458Z" fill="#0D0D0D"/>
<path d="M67.3689 41.0959C67.1551 42.8649 66.3305 44.3123 64.8953 45.4379C63.4601 46.5636 61.858 47.0195 60.089 46.8057C58.3051 46.573 56.8578 45.7485 55.7469 44.3321C54.6286 42.9064 54.1764 41.309 54.3902 39.5399C54.5967 37.7614 55.4175 36.3094 56.8527 35.1837C58.2879 34.058 59.8937 33.6068 61.6702 33.8301C63.4392 34.0439 64.8829 34.8637 66.0011 36.2895C67.112 37.7058 67.5679 39.308 67.3689 41.0959ZM56.7383 43.5545C57.6566 44.7254 58.8271 45.401 60.2497 45.5815C61.6724 45.762 62.9691 45.3931 64.1399 44.4748C65.3108 43.5565 65.978 42.385 66.1417 40.9604C66.3053 39.5357 65.928 38.2379 65.0097 37.0671C64.0988 35.9057 62.932 35.2348 61.5094 35.0543C60.0794 34.8643 58.7789 35.2285 57.6081 36.1468C56.4372 37.0651 55.7737 38.2413 55.6175 39.6754C55.4538 41.1001 55.8274 42.3931 56.7383 43.5545Z" fill="#0D0D0D"/>
<path d="M76.4903 29.751C77.1631 29.6708 77.7897 29.7759 78.3701 30.0662C78.9505 30.3566 79.4074 30.7936 79.7407 31.3771C80.2227 32.2211 80.3364 33.1097 80.0817 34.0429C79.827 34.9761 79.2776 35.6837 78.4335 36.1658L73.6663 38.8886L67.4173 27.9473L71.8251 25.4299C72.6274 24.9716 73.487 24.8676 74.4038 25.1179C75.3043 25.3637 75.9836 25.8877 76.4419 26.6901C77.0251 27.7113 77.0413 28.7316 76.4903 29.751ZM72.4143 26.4615L69.1006 28.354L71.2789 32.1678L74.5925 30.2753C75.0927 29.9896 75.4209 29.5603 75.5774 28.9873C75.7219 28.3934 75.6453 27.836 75.3478 27.315C75.0561 26.8044 74.6179 26.4605 74.033 26.2832C73.454 26.1164 72.9144 26.1758 72.4143 26.4615ZM74.1712 37.2321L77.8444 35.1342C78.3862 34.8247 78.7346 34.3701 78.8895 33.7703C79.0549 33.1645 78.9739 32.5751 78.6466 32.002C78.3252 31.4393 77.8616 31.0753 77.2559 30.9099C76.6546 30.7282 76.083 30.7921 75.5412 31.1016L71.868 33.1994L74.1712 37.2321Z" fill="#0D0D0D"/>
<path d="M97.9769 20.1195L96.2075 14.8844L97.4012 14.481L101.436 26.4177L100.242 26.8211L98.3572 21.245L91.8773 23.435L93.7619 29.0111L92.5683 29.4146L88.534 17.4779L89.7276 17.0745L91.497 22.3095L97.9769 20.1195Z" fill="#0D0D0D"/>
<path d="M115.653 23.3339L114.345 23.5852L112.612 20.7655L106.743 21.8928L106.178 25.1539L104.87 25.4051L107.248 12.118L108.521 11.8735L115.653 23.3339ZM108.18 13.5336L106.961 20.6412L111.946 19.6837L108.18 13.5336Z" fill="#0D0D0D"/>
<path d="M128.094 9.66335L132.594 9.65574C133.722 9.65383 134.664 10.0302 135.422 10.785C136.179 11.5397 136.558 12.481 136.56 13.609C136.562 14.737 136.186 15.6797 135.431 16.4369C134.676 17.1942 133.735 17.5738 132.607 17.5757L129.367 17.5812L129.375 22.2612L128.115 22.2633L128.094 9.66335ZM129.365 16.3932L132.605 16.3877C133.385 16.3864 134.027 16.1273 134.53 15.6105C135.045 15.0936 135.302 14.4272 135.3 13.6112C135.299 12.8072 135.04 12.1476 134.523 11.6325C134.018 11.1053 133.376 10.8424 132.596 10.8437L129.356 10.8492L129.365 16.3932Z" fill="#0D0D0D"/>
<path d="M142.199 16.9394L141.679 21.4817L147.759 22.1782L147.624 23.3584L140.292 22.5186L141.726 10.0005L148.968 10.83L148.833 12.0103L142.842 11.3241L142.334 15.7591L147.878 16.3941L147.743 17.5744L142.199 16.9394Z" fill="#0D0D0D"/>
<path d="M156.099 12.0663L162.942 13.6348L162.676 14.7928L157.062 13.5058L154.512 24.6293L153.284 24.3477L156.099 12.0663Z" fill="#0D0D0D"/>
<path d="M173.999 30.6176L172.816 30.1848L176.34 20.549L166.223 27.7735L165.209 27.4025L169.537 15.5691L170.72 16.0019L167.196 25.6377L177.313 18.4133L178.327 18.7842L173.999 30.6176Z" fill="#0D0D0D"/>
<path d="M183.528 35.5609C181.839 34.6464 180.752 33.3409 180.265 31.6443C179.774 29.9314 179.96 28.2783 180.823 26.6851C181.686 25.0918 182.969 24.0332 184.672 23.5092C186.359 22.99 188.047 23.1876 189.735 24.1021C190.748 24.6508 191.547 25.4046 192.133 26.3635C192.725 27.3118 193.033 28.3314 193.056 29.4222L191.766 29.4604C191.783 28.5965 191.558 27.7783 191.089 27.0058C190.621 26.2333 189.975 25.6242 189.152 25.1784C187.759 24.4239 186.387 24.2608 185.036 24.689C183.669 25.122 182.634 25.9874 181.931 27.2852C181.228 28.5831 181.068 29.9229 181.452 31.3047C181.832 32.6702 182.718 33.7302 184.111 34.4847C184.934 34.9305 185.797 35.1387 186.7 35.1093C187.603 35.0798 188.411 34.8218 189.125 34.3351L189.806 35.4206C188.901 36.0084 187.882 36.3159 186.748 36.3431C185.614 36.3704 184.541 36.1096 183.528 35.5609Z" fill="#0D0D0D"/>
<path d="M198.662 29.5695L205.959 34.838L205.263 35.8012L202.126 33.5357L195.445 42.788L194.424 42.0504L201.104 32.7981L197.966 30.5326L198.662 29.5695Z" fill="#0D0D0D"/>
<path d="M211.416 39.3214L214.733 42.3627C215.564 43.125 216.003 44.0403 216.049 45.1084C216.096 46.1766 215.738 47.1263 214.975 47.9577C214.213 48.7891 213.298 49.2279 212.229 49.2742C211.161 49.3205 210.212 48.9624 209.38 48.2001L206.992 46.0103L203.829 49.4597L202.9 48.6081L211.416 39.3214ZM207.795 45.1347L210.183 47.3245C210.758 47.8516 211.405 48.0954 212.126 48.0557C212.855 48.0241 213.495 47.7076 214.046 47.1062C214.59 46.5136 214.846 45.8528 214.814 45.1237C214.8 44.3939 214.505 43.7655 213.93 43.2383L211.542 41.0486L207.795 45.1347Z" fill="#0D0D0D"/>
<path d="M217.982 64.398L217.119 63.3836L218.718 60.4861L214.845 55.9351L211.729 57.0507L210.866 56.0363L223.599 51.5574L224.439 52.5443L217.982 64.398ZM222.827 53.0658L216.041 55.5078L219.331 59.3734L222.827 53.0658Z" fill="#0D0D0D"/>
<path d="M236.706 69.6476L227.1 75.8084L227.829 76.9448L224.798 78.8883L224.118 77.8276L226.148 76.5255L221.241 68.8739L231.847 62.0718L232.527 63.1324L222.921 69.2932L226.42 74.7478L236.026 68.587L236.706 69.6476Z" fill="#0D0D0D"/>
<path d="M233.018 90.5364L232.492 89.3913L241.816 85.1109L229.563 83.0114L229.113 82.0299L240.564 76.7732L241.089 77.9183L231.765 82.1988L244.018 84.2982L244.469 85.2798L233.018 90.5364Z" fill="#0D0D0D"/>
<path d="M237.623 104.721L237.26 103.514L247.086 100.56L235.239 96.7915L234.928 95.7573L246.994 92.1291L247.357 93.3358L237.532 96.2901L249.378 100.058L249.689 101.093L237.623 104.721Z" fill="#0D0D0D"/>
</svg>
