<svg width="358" height="358" viewBox="0 0 358 358" fill="none" xmlns="http://www.w3.org/2000/svg">
<g clip-path="url(#clip0_1138_32093)">
<circle cx="179" cy="179" r="179" fill="#274497"/>
</g>
<path d="M177.766 178.595C177.884 177.886 178.239 175.404 178.239 174.813C178.239 173.749 178.239 171.74 177.057 171.74C174.457 171.74 169.021 178.358 168.666 178.713C168.312 178.713 167.484 177.176 167.484 176.467C168.784 174.222 176.939 165.24 182.612 165.24C185.212 165.24 187.221 167.84 187.221 171.386C187.221 172.331 186.866 175.167 186.393 177.767L180.366 204.595C180.13 205.776 179.893 207.786 179.893 208.376C179.893 209.44 179.893 211.331 181.075 211.331C183.675 211.331 188.993 204.949 189.348 204.595C189.703 204.595 190.648 206.013 190.648 206.722C189.348 208.967 180.603 217.949 174.93 217.949C172.33 217.949 170.912 215.231 170.912 211.686C170.912 210.74 171.266 208.022 171.739 205.422L177.766 178.595ZM184.621 139.949C187.221 139.949 188.875 142.195 188.875 144.795C188.875 148.458 186.157 151.886 182.493 151.886C179.893 151.886 178.357 149.404 178.357 146.804C178.357 143.258 181.075 139.949 184.621 139.949Z" fill="white"/>
<defs>
<clipPath id="clip0_1138_32093">
<rect width="358" height="358" rx="179" fill="white"/>
</clipPath>
</defs>
</svg>
