<svg width="250" height="250" viewBox="0 0 250 250" fill="none" xmlns="http://www.w3.org/2000/svg">
<g id="&#209;&#129;&#208;&#181;&#209;&#128;&#209;&#139;&#208;&#185;">
<g id="Group 34965">
<g id="Group 34804">
<path id="Vector" d="M151.52 149.515H99.0453V149.857H151.52V149.515Z" fill="#949494"/>
<path id="Vector_2" d="M127.41 102.509C127.536 102.726 127.633 103.154 127.856 103.154L129.323 101.441H129.483C129.512 104.93 129.58 108.145 129.546 111.697C129.512 111.789 129.386 111.726 129.289 111.76C128.781 108.419 128.649 104.959 126.868 102.143C126.582 101.744 126.2 101.498 125.754 101.407C125.343 101.315 124.989 101.624 124.8 101.961L124.578 102.697L124.612 126.157C124.675 126.522 124.869 126.893 125.252 127.048C125.571 127.11 125.983 127.11 126.268 126.893C126.651 126.585 126.605 126.128 126.605 125.666V115.404C126.382 115.129 125.663 115.495 125.697 115.067C127.479 115.067 129.238 114.941 131.019 115.038C130.957 115.375 130.414 115.101 130.254 115.404V126.768C130.157 126.859 130.351 127.196 130.066 127.076L128.632 124.838H128.535C128.118 125.82 127.387 127.076 126.142 127.225C124.709 127.499 123.31 126.95 122.476 125.723C120.917 122.936 120.917 119.504 120.723 116.169C120.66 112.188 120.626 108.117 121.837 104.565C122.316 103.154 123.396 101.412 125.12 101.167C126.2 100.978 126.931 101.715 127.41 102.509Z" fill="#949494"/>
<path id="Vector_3" d="M147.901 101.5C147.45 101.62 146.941 101.437 146.53 101.654V126.678C146.941 126.924 147.484 126.707 147.901 126.707C149.146 125.913 149.528 124.474 149.968 123.217C150.67 121.042 151.082 118.746 151.31 116.388C151.373 116.325 151.47 116.359 151.533 116.359C151.693 119.848 151.596 123.669 151.63 127.066C148.478 127.158 144.617 127.095 141.785 127.066V126.895C142.133 126.804 142.55 127.015 142.801 126.712C142.773 118.415 142.835 110.146 142.801 101.66C142.481 101.506 142.007 101.631 141.688 101.54C141.625 101.323 141.91 101.386 142.07 101.357C143.983 101.294 145.959 101.357 147.901 101.329V101.5Z" fill="#949494"/>
<path id="Vector_4" d="M105.294 101.35C105.419 101.413 105.391 101.567 105.356 101.624C104.877 101.653 104.191 101.504 103.809 101.778V126.705C104.191 126.951 104.557 126.705 105.002 126.797C105.733 126.523 106.024 125.757 106.373 125.175C107.618 122.479 108.16 119.51 108.543 116.477H108.8C108.834 119.967 108.863 123.644 108.737 127.076L98.9204 127.048C98.9147 126.597 99.8113 126.882 100.097 126.637V101.658L99.1431 101.596V101.35H105.294Z" fill="#949494"/>
<path id="Vector_5" d="M119.587 111.242H119.313C118.833 108.21 118.388 105.178 117.017 102.511C116.475 101.745 115.452 101.563 114.624 101.717L114.47 101.871V113.721C114.47 113.783 114.464 113.875 114.556 113.938C115.321 113.818 115.766 113.047 116.052 112.47C116.56 110.968 116.914 109.409 117.04 107.753C117.103 107.69 117.166 107.724 117.263 107.724C117.297 111.922 117.297 116.239 117.263 120.465C117.2 120.556 117.074 120.556 117.006 120.556C116.846 119.882 116.817 119.146 116.72 118.443C116.309 116.976 116.337 115.046 114.647 114.309H114.464V126.587C114.464 126.707 114.459 126.832 114.584 126.832C116.24 127.049 116.909 125.239 117.485 124.2C118.376 121.841 118.856 119.329 119.204 116.787C119.301 116.724 119.41 116.696 119.507 116.759V126.986L119.398 127.078L109.582 127.049V126.832C109.902 126.712 110.49 126.924 110.747 126.65V101.723C110.427 101.506 110.061 101.723 109.776 101.54V101.448C112.928 101.386 116.326 101.386 119.575 101.448V111.242H119.587Z" fill="#949494"/>
<path id="Vector_6" d="M140.568 126.768C140.123 124.381 137.987 101.869 137.987 101.869L137.89 101.407C137.251 101.344 136.52 101.344 135.88 101.407L135.497 103.794L132.402 124.923C132.277 125.569 132.145 126.334 131.414 126.671C131.254 126.888 130.615 126.671 130.872 127.071L134.121 127.042C134.281 126.705 133.836 126.768 133.676 126.705C133.008 126.431 132.813 125.786 132.751 125.175C132.945 123.981 132.973 122.725 133.293 121.56L136.069 121.531L136.228 121.651C136.388 123.364 136.577 124.929 136.64 126.676C136.354 126.859 136 126.796 135.652 126.859C135.686 126.922 135.623 127.013 135.686 127.042L141.197 127.013V126.796L140.568 126.768ZM136.011 121.251C135.121 121.223 134.195 121.314 133.333 121.16L135.183 108.631L136.171 121.126L136.011 121.251Z" fill="#949494"/>
<path id="Vector_7" d="M114.213 128.727C113.768 130.84 111.792 133.164 109.434 133.501C107.047 133.872 104.431 133.655 102.038 133.41L101.941 133.655L101.587 136.751L101.65 136.813C104.711 134.883 109.651 134.792 112.711 136.751C114.402 137.944 115.23 139.692 114.91 141.713C114.653 143.643 112.774 145.419 110.895 145.91C107.361 146.921 103.026 146.584 100.222 144.346C99.3314 143.643 99.0744 142.57 99.2972 141.496C99.5199 140.577 100.411 139.692 101.336 139.446C102.227 139.2 103.215 139.355 103.951 139.846C104.779 140.491 105.259 141.319 105.225 142.296C105.191 143.335 104.494 144.317 103.506 144.803C103.152 144.957 102.741 144.985 102.392 145.14C103.986 145.968 105.961 146.088 107.909 145.996V135.831C105.516 135.551 103.352 136.259 101.467 137.453L101.085 137.236C101.342 134.358 101.724 131.417 102.038 128.539L102.135 128.51C105.927 129.093 110.427 129.647 114.213 128.727Z" fill="#949494"/>
<path id="Vector_8" d="M150.133 131.731C148.729 129.955 146.816 128.853 144.623 128.636C141.47 128.328 138.758 129.618 136.908 132.097C134.932 134.547 134.772 138.498 136.017 141.314C137.165 144.038 140.094 146.305 143.155 146.459C146.564 146.585 149.562 144.375 150.933 141.531C152.423 138.555 152.206 134.364 150.133 131.731ZM144.805 145.814C143.977 146.059 143.052 146.059 142.224 145.814V129.213C142.989 129.03 144.006 128.904 144.805 129.184V145.814Z" fill="#949494"/>
<path id="Vector_9" d="M132.226 133.072C131.62 131.787 130.472 130.468 129.13 129.732C126.772 128.321 123.111 128.23 120.781 129.794C117.783 131.725 116.321 134.757 116.573 138.218C116.795 141.587 119.154 144.956 122.563 146.087C125.784 147.069 128.936 145.778 131.038 143.363C133.305 140.667 133.945 136.196 132.226 133.072ZM126.132 145.784C125.339 146.001 124.413 146.001 123.585 145.784V129.246C124.351 129.035 125.401 129.035 126.132 129.246V145.784Z" fill="#949494"/>
<path id="Vector_10" d="M121.54 98.7009C121.505 98.8665 121.425 99.2262 121.431 99.3918C121.448 99.7059 121.728 99.6488 122.019 99.6488L121.974 99.8773C121.625 99.8715 121.277 99.8544 120.929 99.8487C120.586 99.8544 120.232 99.8715 119.889 99.8773L119.935 99.6488C120.472 99.6545 120.512 99.5689 120.62 99.0092L121.243 95.7313H121.157C120.455 95.7313 120.129 95.7998 119.901 96.6108H119.661L119.901 95.4172C120.5 95.4229 121.106 95.4344 121.705 95.4458C122.253 95.4401 122.802 95.4229 123.367 95.4172C123.367 95.6 123.367 95.7884 123.367 95.9712C123.384 96.2053 123.407 96.4337 123.424 96.6736H123.179C123.064 95.9483 122.864 95.7313 122.196 95.7313H122.099L121.54 98.7009Z" fill="#949494"/>
<path id="Vector_11" d="M124.471 96.4565C124.511 96.2795 124.654 95.6399 124.654 95.4571C124.654 95.2116 124.322 95.2116 124.168 95.2116L124.22 94.9946L125.545 94.9032L124.854 97.8499L124.865 97.9013C125.071 97.4273 125.63 96.8905 126.144 96.8905C126.578 96.8905 126.75 97.1589 126.75 97.3702C126.75 97.5872 126.71 97.8213 126.647 98.0269L126.441 98.7522C126.413 98.855 126.327 99.1405 126.327 99.2319C126.327 99.3175 126.378 99.426 126.453 99.426C126.675 99.426 126.875 98.9521 126.972 98.7636L127.092 98.8036C126.921 99.2718 126.544 99.9 126.047 99.9C125.796 99.9 125.579 99.6773 125.579 99.3918C125.579 99.1691 125.659 98.8949 125.722 98.6837L125.921 97.9698C125.961 97.8328 126.036 97.5701 126.036 97.4273C126.036 97.2845 125.967 97.1932 125.83 97.1932C125.596 97.1932 125.242 97.5758 125.128 97.7757C124.939 98.1069 124.722 98.4438 124.614 98.815L124.34 99.7744H123.66L124.471 96.4565Z" fill="#949494"/>
<path id="Vector_12" d="M130.118 98.8599C129.701 99.5509 129.307 99.8478 128.525 99.8478C127.942 99.8478 127.605 99.4424 127.605 98.7799C127.605 97.7121 128.451 96.8783 129.438 96.8783C129.77 96.8783 130.238 96.9126 130.238 97.3637C130.238 98.0832 128.976 98.6029 128.371 98.7742C128.353 98.9113 128.308 99.1397 128.308 99.2768C128.308 99.5566 128.57 99.6251 128.736 99.6251C129.359 99.6251 129.781 99.0312 129.992 98.74L130.118 98.8599ZM129.673 97.3123C129.673 97.0953 129.53 97.0382 129.273 97.0782C128.77 97.1524 128.496 98.1004 128.405 98.4944C128.839 98.3459 129.673 97.8777 129.673 97.3123Z" fill="#949494"/>
<g id="Group">
<path id="Vector_13" d="M117.96 98.1494H99.0404V98.4921H117.96V98.1494Z" fill="#949494"/>
</g>
<g id="Group_2">
<path id="Vector_14" d="M151.578 98.1494H131.824V98.4921H151.578V98.1494Z" fill="#949494"/>
</g>
</g>
<circle id="Ellipse 66" cx="125" cy="125" r="124.5" stroke="#C0C0C0"/>
</g>
</g>
</svg>
