<svg width="250" height="250" viewBox="0 0 250 250" fill="none" xmlns="http://www.w3.org/2000/svg">
<circle cx="125" cy="125" r="124.5" stroke="#C0C0C0"/>
<path d="M115.747 98.5674L112.014 101.03V109.916V118.801L113.909 120.089C114.951 120.79 116.561 121.908 117.509 122.552C118.437 123.215 119.233 123.746 119.289 123.746C119.346 123.746 119.403 119.786 119.403 114.936C119.403 110.086 119.441 106.127 119.479 106.127C119.517 106.127 121.07 107.169 122.946 108.438C124.803 109.707 127.72 111.697 129.425 112.852C131.149 114.008 132.57 115.05 132.608 115.145C132.627 115.239 129.69 117.267 126.053 119.654L119.441 123.992L119.422 128.747C119.403 131.362 119.479 133.616 119.555 133.749C119.687 133.938 121.923 132.555 128.421 128.274C133.195 125.129 137.856 122.079 138.765 121.491L140.432 120.43V115.486C140.432 109.688 140.906 110.674 136.833 107.926C135.317 106.903 133.195 105.445 132.097 104.706C130.998 103.948 128.876 102.508 127.36 101.485C125.845 100.462 123.457 98.8327 122.037 97.8665L119.479 96.1235L115.747 98.5674Z" fill="#949494"/>
<path d="M137.84 144.035C137.556 144.319 137.746 144.774 138.162 144.774C138.579 144.774 138.769 144.319 138.484 144.035C138.371 143.921 138.219 143.826 138.162 143.826C138.106 143.826 137.954 143.921 137.84 144.035Z" fill="#949494"/>
<path d="M101.975 144.262C101.975 144.414 102.145 144.584 102.354 144.641C102.713 144.736 102.732 144.906 102.732 147.312C102.732 149.756 102.713 149.889 102.354 149.889C102.145 149.889 101.975 150.022 101.975 150.173C101.975 150.401 102.221 150.457 103.017 150.457C103.812 150.457 104.059 150.401 104.059 150.173C104.059 150.022 103.888 149.889 103.68 149.889C103.32 149.889 103.301 149.756 103.301 147.237C103.301 144.679 103.32 144.584 103.699 144.584C103.926 144.584 104.059 144.49 104.021 144.338C103.888 143.997 101.975 143.921 101.975 144.262Z" fill="#949494"/>
<path d="M105.384 147.219C105.384 150.231 105.403 150.478 105.725 150.421C105.99 150.364 106.066 150.118 106.104 149.17L106.161 147.996H106.9C108.017 147.996 108.548 147.674 108.908 146.745C109.078 146.272 109.154 145.836 109.059 145.684C108.965 145.552 108.889 145.324 108.889 145.173C108.889 144.661 107.961 144.207 106.653 144.074L105.384 143.96V147.219ZM108.074 145.173C108.472 145.646 108.51 146.082 108.188 146.764C107.98 147.219 107.809 147.314 106.672 147.484L106.142 147.56V146.063V144.567L106.938 144.661C107.468 144.718 107.866 144.908 108.074 145.173Z" fill="#949494"/>
<path d="M112.491 144.205C112.358 144.414 112.036 150.116 112.15 150.306C112.187 150.401 112.358 150.457 112.51 150.457C112.718 150.457 112.775 150.135 112.813 148.98C112.813 148.184 112.851 147.426 112.87 147.331C112.907 147.218 112.926 146.763 112.945 146.289L112.983 145.437L113.646 147.047C114.84 149.965 114.954 149.984 115.901 147.483C116.299 146.46 116.678 145.551 116.753 145.475C116.848 145.38 116.924 146.403 116.924 147.729C116.962 150.041 117.113 150.761 117.492 150.344C117.568 150.249 117.606 148.809 117.53 147.142C117.416 144.281 117.397 144.111 117.038 144.111C116.734 144.111 116.507 144.509 115.825 146.252C114.991 148.336 114.688 148.639 114.537 147.578C114.499 147.35 114.404 147.104 114.328 147.047C114.253 146.99 114.177 146.82 114.139 146.668C114.025 146.081 113.267 144.3 113.078 144.168C112.794 143.978 112.623 143.978 112.491 144.205Z" fill="#949494"/>
<path d="M119.596 146.252C118.649 147.199 118.611 149.112 119.502 150.003C119.975 150.476 120.6 150.571 121.339 150.287C121.832 150.097 122.173 150.116 122.116 150.306C122.078 150.401 122.192 150.457 122.343 150.457C122.59 150.457 122.628 150.06 122.628 148.089C122.628 146.119 122.59 145.721 122.343 145.721C122.192 145.721 122.059 145.854 122.059 146.024C122.059 146.289 122.021 146.289 121.642 146.024C120.979 145.551 120.203 145.645 119.596 146.252ZM121.51 146.479C121.813 146.649 121.87 146.896 121.87 147.994C121.87 149.472 121.623 149.889 120.733 149.889C119.994 149.889 119.596 149.283 119.596 148.108C119.596 146.668 120.468 145.929 121.51 146.479Z" fill="#949494"/>
<path d="M124.669 146.102C124.063 146.575 123.722 147.845 123.95 148.811C124.253 150.156 125.143 150.686 126.318 150.194C127.094 149.853 127.17 150.023 126.716 151.122C126.412 151.804 126.223 151.88 124.954 151.804C124.347 151.766 124.12 152.013 124.537 152.259C124.632 152.335 125.124 152.392 125.598 152.411C126.356 152.411 126.545 152.335 127.019 151.804C127.398 151.369 127.549 150.99 127.587 150.402C127.587 149.967 127.625 149.228 127.644 148.754C127.72 147.238 127.511 145.723 127.246 145.723C127.094 145.723 126.981 145.855 126.981 146.026C126.981 146.291 126.943 146.291 126.564 146.026C125.977 145.609 125.238 145.647 124.669 146.102ZM126.507 146.556C126.753 146.746 126.886 147.125 126.943 147.977C127 148.659 127.113 149.133 127.246 149.133C127.36 149.152 127.094 149.322 126.64 149.531C125.238 150.175 124.385 149.493 124.575 147.864C124.726 146.537 125.636 145.912 126.507 146.556Z" fill="#949494"/>
<path d="M129.333 146.365C128.746 146.953 128.689 147.104 128.689 148.184C128.689 149.226 128.746 149.416 129.238 149.908C129.863 150.533 130.507 150.609 131.341 150.173C131.853 149.908 131.909 149.908 131.909 150.192C131.909 150.344 132.023 150.458 132.137 150.42C132.326 150.344 132.364 149.738 132.307 148.07C132.288 146.839 132.213 145.778 132.156 145.721C132.118 145.664 131.966 145.778 131.815 145.967C131.606 146.252 131.549 146.252 131.341 146.005C130.924 145.494 130.034 145.664 129.333 146.365ZM131.303 146.593C131.663 146.839 131.72 147.047 131.72 148.032C131.72 149.378 131.398 149.889 130.564 149.889C129.541 149.889 128.973 148.582 129.447 147.294C129.825 146.327 130.526 146.043 131.303 146.593Z" fill="#949494"/>
<path d="M133.614 146.005C133.614 146.233 133.861 146.289 134.656 146.289C135.225 146.289 135.698 146.384 135.698 146.479C135.698 146.593 135.225 147.407 134.656 148.279C134.088 149.169 133.614 150.022 133.614 150.173C133.614 150.401 133.917 150.457 135.13 150.457C136.342 150.457 136.646 150.401 136.646 150.173C136.646 149.946 136.399 149.889 135.604 149.889C134.978 149.889 134.562 149.813 134.562 149.681C134.562 149.567 135.035 148.752 135.604 147.9C136.172 147.028 136.646 146.176 136.646 146.024C136.646 145.778 136.38 145.721 135.13 145.721C133.917 145.721 133.614 145.778 133.614 146.005Z" fill="#949494"/>
<path d="M137.915 145.835C137.839 145.911 137.782 146.99 137.782 148.222C137.782 150.344 137.801 150.457 138.161 150.457C138.54 150.457 138.54 150.363 138.502 148.146C138.445 146.005 138.312 145.456 137.915 145.835Z" fill="#949494"/>
<path d="M140.037 145.854C140 146.119 140 146.896 140.037 148.695C140.056 150.116 140.113 150.457 140.341 150.457C140.568 150.457 140.625 150.135 140.663 148.79C140.663 147.881 140.682 147.028 140.682 146.915C140.663 146.611 141.989 146.233 142.425 146.403C142.898 146.593 143.088 147.294 143.088 148.961C143.088 150.173 143.144 150.457 143.372 150.457C143.599 150.457 143.656 150.116 143.656 148.563C143.656 146.782 143.618 146.611 143.182 146.195C142.652 145.645 141.686 145.569 141.042 146.024C140.663 146.289 140.625 146.289 140.625 146.024C140.625 145.721 140.075 145.588 140.037 145.854Z" fill="#949494"/>
<path d="M145.757 146.027C144.469 146.936 144.526 149.646 145.852 150.252C146.439 150.517 147.538 150.517 148.031 150.271C148.713 149.892 148.429 149.702 147.368 149.816C146.496 149.93 146.307 149.892 145.947 149.532C145.738 149.323 145.549 148.963 145.549 148.755C145.549 148.414 145.682 148.376 147.084 148.376H148.637L148.523 147.486C148.353 145.97 146.913 145.212 145.757 146.027ZM147.368 146.444C147.614 146.595 148.012 147.315 148.012 147.599C148.012 147.732 147.519 147.808 146.78 147.808C145.416 147.808 145.265 147.637 145.947 146.785C146.326 146.311 146.951 146.16 147.368 146.444Z" fill="#949494"/>
</svg>
