<svg width="250" height="250" viewBox="0 0 250 250" fill="none" xmlns="http://www.w3.org/2000/svg">
<circle cx="125" cy="125" r="124.5" stroke="#C0C0C0"/>
<g clip-path="url(#clip0_726_17603)">
<path d="M80.1753 119.245C81.9378 119.245 83.1688 120.567 83.1688 121.949C83.1688 122.462 82.6717 122.505 81.1388 122.505H77.4095C77.63 120.327 78.6622 119.245 80.1753 119.245ZM85.4356 127.833C85.3091 127.833 85.1356 127.953 84.8734 128.136C84.2823 128.551 83.2917 129.241 81.7733 129.241C79.0943 129.241 77.3625 127.133 77.3499 123.531H84.5282C85.2169 123.531 85.5007 123.531 85.5007 122.959C85.5007 122.2 85.1392 121.068 84.5029 120.237C83.4996 118.899 82.2125 118.249 80.5621 118.249C77.7186 118.249 75.3198 121.26 75.3198 124.824C75.3198 128.179 77.6463 130.807 80.6182 130.807C82.321 130.807 83.7292 130.232 85.0506 128.994C85.479 128.585 85.6688 128.301 85.6688 128.066C85.6688 127.871 85.5875 127.833 85.4374 127.833" fill="#949494"/>
<path d="M164.99 119.245C166.753 119.245 167.98 120.567 167.98 121.949C167.98 122.462 167.487 122.505 165.954 122.505H162.215C162.438 120.327 163.468 119.245 164.983 119.245M170.243 127.833C170.117 127.833 169.943 127.953 169.679 128.136C169.088 128.551 168.099 129.241 166.579 129.241C163.902 129.241 162.17 127.133 162.158 123.529H169.329C170.019 123.529 170.303 123.529 170.303 122.959C170.303 122.2 169.941 121.068 169.305 120.237C168.304 118.899 167.015 118.249 165.364 118.249C162.523 118.249 160.122 121.26 160.122 124.824C160.122 128.179 162.449 130.807 165.419 130.807C167.121 130.807 168.53 130.232 169.851 128.994C170.278 128.586 170.469 128.299 170.469 128.066C170.469 127.869 170.388 127.833 170.24 127.833" fill="#949494"/>
<path d="M173.589 118.419L172.59 118.921C172.183 119.098 171.759 119.231 171.324 119.32C170.887 119.416 170.623 119.476 170.623 119.781C170.623 120.139 170.984 120.161 171.359 120.161C172.248 120.161 172.66 120.583 172.66 121.492V127.563C172.66 128.562 172.523 129.124 172.167 129.565C172.018 129.748 171.833 129.898 171.624 130.008C171.4 130.143 171.207 130.259 171.207 130.5C171.207 130.548 171.216 130.595 171.235 130.64C171.254 130.684 171.282 130.724 171.316 130.757C171.351 130.791 171.392 130.817 171.437 130.835C171.483 130.852 171.531 130.86 171.579 130.859L171.787 130.839C172.507 130.751 173.231 130.71 173.956 130.715C174.813 130.715 175.484 130.773 175.972 130.816L176.608 130.859C176.91 130.859 177.12 130.703 177.12 130.48C177.12 130.075 176.8 130.051 176.427 130.024C176.148 130.02 175.874 129.959 175.619 129.845C174.75 129.4 174.663 128.724 174.663 127.168V122.461C174.663 121.367 175.554 120.331 176.496 120.331C176.954 120.35 177.395 120.506 177.761 120.778C177.918 120.904 178.105 120.985 178.304 121.015C178.644 121.015 179.292 120.297 179.292 119.811C179.292 119.293 178.407 118.435 177.467 118.435C176.527 118.435 175.758 119.065 174.683 120.369V118.812C174.683 118.378 174.683 118.094 174.367 118.094C174.197 118.094 173.956 118.223 173.591 118.421" fill="#949494"/>
<path d="M160.592 118.31L160.184 118.346C159.808 118.397 159.43 118.423 159.052 118.425C158.653 118.422 158.254 118.397 157.857 118.35L157.315 118.31C156.979 118.31 156.836 118.425 156.836 118.694C156.836 119.053 157.062 119.073 157.347 119.107L157.691 119.164C158.121 119.279 158.351 119.658 158.351 120.259C158.342 121.064 158.202 121.862 157.937 122.623L156.18 127.409C156.154 127.514 156.105 127.557 156.067 127.557C156.043 127.54 156.023 127.519 156.007 127.494C155.991 127.469 155.98 127.442 155.975 127.413L153.302 120.951C153.162 120.614 153.079 120.256 153.058 119.893C153.058 119.484 153.318 119.229 153.853 119.116L154.008 119.078C154.262 119.021 154.462 118.974 154.462 118.703C154.462 118.432 154.319 118.319 153.983 118.319L153.369 118.368C153.115 118.395 152.826 118.463 152.477 118.479C149.072 118.649 147.371 118.479 146.951 118.421C146.796 118.398 146.651 118.375 146.528 118.352L146.082 118.291C145.756 118.291 145.603 118.423 145.603 118.705C145.603 119.064 145.829 119.083 146.114 119.118L146.458 119.175C146.89 119.29 147.118 119.658 147.118 120.241C147.09 120.995 146.923 121.737 146.624 122.431L144.697 127.375C144.643 127.517 144.574 127.555 144.543 127.555C144.513 127.555 144.468 127.54 144.41 127.375L142.179 120.307C142.128 120.161 142.101 120.008 142.098 119.853C142.098 119.401 142.419 119.257 142.703 119.135C142.931 119.033 143.144 118.938 143.144 118.7C143.144 118.423 143.025 118.316 142.721 118.316L142.387 118.344C141.922 118.401 141.454 118.429 140.986 118.43C140.337 118.43 139.806 118.386 139.42 118.352L138.838 118.316C138.535 118.316 138.359 118.373 138.359 118.674C138.359 118.976 138.607 119.064 138.893 119.177C139.254 119.317 139.695 119.491 139.903 120.106L140.402 121.575C140.48 121.785 140.517 122.007 140.511 122.23C140.497 122.416 140.451 122.598 140.375 122.768L138.274 127.295C138.235 127.38 138.188 127.461 138.133 127.537C138.114 127.537 138.047 127.454 137.989 127.27L135.789 120.682C135.701 120.453 135.655 120.21 135.653 119.964C135.653 119.449 136.015 119.263 136.329 119.096C136.563 118.978 136.787 118.866 136.787 118.637C136.792 118.546 136.762 118.456 136.703 118.386C136.645 118.316 136.561 118.271 136.47 118.26L136.266 118.289C135.55 118.414 134.824 118.474 134.097 118.468C133.745 118.464 133.394 118.435 133.047 118.38L132.474 118.325C132.193 118.325 132.051 118.434 132.051 118.651C132.051 118.956 132.271 119.053 132.502 119.157C132.64 119.212 132.771 119.285 132.889 119.374C133.323 119.806 133.641 120.338 133.815 120.922L136.817 130.197C136.955 130.632 137.042 130.859 137.403 130.859C137.701 130.859 137.794 130.666 137.96 130.321L140.825 123.829C140.899 123.673 140.948 123.592 141.006 123.592C141.038 123.592 141.14 123.66 141.187 123.825L143.336 130.284C143.441 130.642 143.553 130.822 143.867 130.822C144.151 130.822 144.296 130.605 144.424 130.284L148.296 120.54C148.86 119.249 150.449 119.134 151.058 120.583C151.713 122.239 154.269 128.719 154.269 128.719L154.348 128.929C154.589 129.553 154.817 130.145 154.817 130.791C154.817 131.03 154.746 131.794 154.198 133.057L154.173 133.118C153.475 134.733 153.224 134.684 152.416 134.856C150.948 135.169 150.594 135.549 150.657 136.345C150.69 136.76 151.281 137.481 151.982 137.461C153.206 137.431 154.097 136.798 155.026 133.653L155.981 130.929L159.596 120.37C159.808 119.787 160.05 119.403 160.296 119.259C160.409 119.201 160.531 119.162 160.657 119.144C160.865 119.105 161.064 119.066 161.064 118.734C161.064 118.441 160.925 118.321 160.585 118.321" fill="#949494"/>
<path d="M87.2233 121.804C87.2233 123.248 88.0639 124.151 90.2258 125.019L91.0899 125.369C92.9211 126.101 94.0274 126.544 94.0274 127.775C94.0274 129.131 92.8904 130.078 91.258 130.078C89.7215 130.078 88.6441 129.326 88.0602 127.852C87.9646 127.591 87.8902 127.323 87.8379 127.05C87.7493 126.648 87.6951 126.381 87.3643 126.381C87.0335 126.381 86.8943 126.594 86.8943 127.016L86.925 129.348C86.925 129.98 87.1058 130.033 87.5252 130.103C87.6712 130.13 87.8146 130.17 87.9536 130.222L88.2573 130.333C89.1056 130.732 90.0301 130.947 90.9688 130.963C93.7056 130.963 95.6959 129.262 95.6959 126.928C95.6959 125.417 94.8427 124.395 93.0169 123.711L92.5885 123.55C90.262 122.69 88.8538 122.174 88.8538 120.869C88.8538 119.897 89.7414 119.242 91.0682 119.242C91.6142 119.247 92.1522 119.372 92.6437 119.608C93.1351 119.844 93.5675 120.186 93.9099 120.608C94.036 120.778 94.1291 120.97 94.1847 121.174C94.2733 121.438 94.3492 121.664 94.633 121.664C94.9168 121.664 94.9746 121.418 94.9746 121.151L94.9403 119.574C94.9078 118.876 93.7183 118.498 91.5925 118.498C88.9406 118.498 87.2287 119.795 87.2287 121.802" fill="#949494"/>
<path d="M98.5619 116.215C98.3666 116.574 97.8478 117.864 97.2766 118.121C97.0189 118.209 96.7485 118.257 96.4758 118.261C96.3556 118.266 96.242 118.317 96.1588 118.403C96.0756 118.489 96.0292 118.604 96.0293 118.723C96.0298 118.82 96.0494 118.915 96.0871 119.004C96.1248 119.093 96.1799 119.174 96.249 119.242C96.3182 119.31 96.4002 119.363 96.4903 119.4C96.5804 119.436 96.6768 119.454 96.7741 119.454H97.4971V127.114C97.4971 129.782 98.3431 130.824 100.521 130.824C102.316 130.824 103.672 129.812 103.632 129.285C103.62 129.105 103.367 129.009 102.971 129.22C102.449 129.543 101.85 129.719 101.235 129.73C100.046 129.73 99.4277 129.037 99.4277 127.724V119.459H102.783C102.881 119.46 102.978 119.441 103.069 119.404C103.16 119.368 103.243 119.314 103.313 119.245C103.383 119.177 103.438 119.095 103.476 119.005C103.514 118.916 103.534 118.819 103.535 118.722C103.534 118.663 103.522 118.606 103.499 118.552C103.477 118.499 103.443 118.45 103.401 118.409C103.36 118.369 103.31 118.336 103.256 118.314C103.201 118.293 103.143 118.282 103.085 118.282H99.4277V115.833C99.4277 115.614 99.4133 115.474 99.2054 115.474C98.9975 115.474 98.7969 115.79 98.5619 116.224" fill="#949494"/>
<path d="M190.034 119.759C190.038 119.874 190.018 119.988 189.976 120.095C189.933 120.202 189.869 120.299 189.788 120.381C189.706 120.462 189.608 120.526 189.501 120.568C189.393 120.611 189.278 120.631 189.163 120.627C188.99 120.628 188.821 120.577 188.677 120.482C188.533 120.387 188.421 120.252 188.355 120.094C188.288 119.936 188.271 119.762 188.304 119.594C188.337 119.425 188.42 119.271 188.542 119.149C188.664 119.028 188.819 118.945 188.989 118.911C189.158 118.878 189.333 118.894 189.493 118.96C189.653 119.025 189.789 119.136 189.886 119.278C189.982 119.42 190.033 119.588 190.034 119.759ZM188.483 119.759C188.48 119.849 188.496 119.938 188.529 120.022C188.562 120.106 188.612 120.182 188.676 120.246C188.739 120.311 188.815 120.362 188.898 120.396C188.982 120.431 189.072 120.448 189.163 120.448C189.254 120.454 189.345 120.439 189.43 120.407C189.515 120.374 189.592 120.323 189.655 120.258C189.719 120.193 189.767 120.115 189.797 120.029C189.827 119.944 189.838 119.853 189.83 119.763C189.834 119.672 189.82 119.581 189.789 119.496C189.757 119.411 189.708 119.333 189.645 119.267C189.582 119.201 189.506 119.149 189.422 119.113C189.338 119.077 189.248 119.059 189.156 119.059C189.065 119.059 188.974 119.077 188.89 119.113C188.806 119.149 188.73 119.201 188.667 119.267C188.604 119.333 188.555 119.411 188.524 119.496C188.492 119.581 188.478 119.672 188.483 119.763V119.759ZM188.81 120.173V119.318H189.188C189.381 119.318 189.549 119.384 189.549 119.563C189.548 119.608 189.533 119.651 189.506 119.686C189.479 119.722 189.442 119.749 189.399 119.763C189.468 119.79 189.522 119.85 189.522 119.989C189.521 120.049 189.525 120.109 189.533 120.168H189.323C189.31 120.109 189.303 120.049 189.304 119.989C189.304 119.881 189.276 119.834 189.159 119.834H189.029V120.168L188.81 120.173ZM189.029 119.696H189.179C189.264 119.696 189.322 119.671 189.322 119.58C189.322 119.488 189.285 119.467 189.179 119.467H189.029V119.696Z" fill="#949494"/>
<path d="M132.967 129.707C132.04 129.788 131.895 129.294 131.895 127.886V122.647C131.895 119.4 130.671 118.209 127.224 118.25C126.568 118.274 125.922 118.424 125.324 118.693C124.937 118.885 124.568 119.111 124.221 119.368C123.904 119.604 123.63 119.892 123.412 120.22C123.323 120.333 123.258 120.463 123.22 120.601C123.183 120.739 123.173 120.884 123.193 121.026C123.231 121.3 123.296 121.384 123.417 121.399C123.514 121.421 123.616 121.421 123.713 121.399C123.815 121.379 123.914 121.351 124.01 121.313C124.192 121.249 124.367 121.166 124.532 121.067C124.665 120.981 124.767 120.855 124.822 120.708C124.896 120.482 124.989 120.263 125.1 120.053C125.172 119.893 125.27 119.746 125.389 119.617C125.709 119.3 126.382 119.068 127.101 119.068C129.057 119.068 129.858 120.069 129.858 121.774V123.711C124.151 123.478 122.808 125.767 122.793 127.222C122.764 129.375 124.686 130.882 126.486 130.81C128.258 130.744 129.211 130.073 130.084 129.131C130.467 130.146 131.118 130.746 132.141 130.746C133.117 130.746 133.827 130.408 133.827 130.028C133.829 129.562 133.197 129.687 132.967 129.707ZM129.86 127.461C129.476 128.742 128.224 129.77 126.841 129.597C125.129 129.384 124.561 128.342 124.525 127.364C124.5 126.601 124.427 124.77 129.888 124.637L129.86 127.461Z" fill="#949494"/>
<path d="M180.013 121.806C180.013 123.25 180.855 124.153 183.017 125.021L183.88 125.371C185.713 126.103 186.819 126.546 186.819 127.776C186.819 129.133 185.682 130.08 184.05 130.08C182.513 130.08 181.434 129.328 180.852 127.854C180.756 127.593 180.682 127.324 180.629 127.052C180.541 126.65 180.487 126.383 180.156 126.383C179.825 126.383 179.686 126.591 179.686 127.012L179.718 129.344C179.718 129.976 179.899 130.03 180.318 130.1C180.464 130.127 180.607 130.166 180.745 130.218L181.051 130.329C181.899 130.728 182.823 130.943 183.762 130.959C186.497 130.97 188.486 129.269 188.486 126.935C188.486 125.425 187.634 124.402 185.808 123.718L185.38 123.557C183.052 122.698 181.645 122.181 181.645 120.877C181.645 119.904 182.533 119.25 183.86 119.25C184.406 119.254 184.944 119.379 185.435 119.615C185.926 119.852 186.359 120.193 186.701 120.615C186.827 120.785 186.921 120.977 186.976 121.182C187.063 121.445 187.141 121.671 187.424 121.671C187.708 121.671 187.763 121.426 187.763 121.158L187.728 119.581C187.696 118.884 186.504 118.505 184.38 118.505C181.728 118.505 180.015 119.802 180.015 121.81" fill="#949494"/>
<path d="M70.2363 120.3C70.9702 119.909 71.5808 119.323 72.0007 118.609C72.4205 117.895 72.6332 117.079 72.6152 116.253C72.6152 113.35 70.3972 111.622 66.6788 111.622C66.0117 111.622 65.3845 111.658 64.7807 111.694L63.2333 111.76C62.3891 111.76 61.7203 111.703 61.2268 111.665L60.5417 111.622C60.1422 111.622 59.9614 111.685 59.9614 112.039C59.9614 112.344 60.2163 112.397 60.5363 112.458C60.8842 112.504 61.216 112.632 61.5034 112.831C62.1921 113.346 62.3114 114.053 62.3114 115.27V127.11C62.3114 128.285 62.221 128.944 61.7022 129.494C61.4896 129.714 61.2311 129.884 60.9448 129.993C60.6664 130.117 60.4477 130.214 60.4477 130.501C60.4477 130.705 60.6122 130.921 60.7677 130.921L61.1563 130.886C61.9365 130.798 62.7211 130.754 63.5063 130.754C63.9203 130.754 64.4101 130.799 64.9904 130.851C65.7822 130.921 66.6824 130.999 67.7272 130.999C71.7041 130.999 74.1879 128.726 74.1879 125.06C74.2006 122.489 72.796 120.802 70.2363 120.3ZM64.4083 114.089C64.4083 112.815 64.7446 112.623 65.9033 112.623C68.6727 112.623 70.7605 114.523 70.7605 117.044C70.7605 119.111 69.6343 119.99 66.9897 119.99H65.1513C64.4752 119.99 64.4083 119.81 64.4083 119.067V114.089ZM67.4001 129.697C65.0953 129.697 64.4083 129.304 64.4083 127.648V121.968C64.4083 121.122 64.5059 121.018 65.2814 121.018H66.8614C70.2291 121.018 72.1633 122.781 72.1633 125.851C72.1633 128.665 70.5038 129.704 67.4001 129.704V129.697Z" fill="#949494"/>
<path d="M113.886 111.649C113.088 111.744 112.284 111.79 111.48 111.788C110.882 111.781 110.285 111.744 109.691 111.676L109.018 111.621C108.668 111.621 108.49 111.692 108.49 112.067C108.49 112.369 108.711 112.415 108.989 112.475C109.315 112.521 109.623 112.655 109.879 112.86C110.62 113.483 110.62 114.129 110.62 115.306V127.177C110.62 128.21 110.577 128.933 110.005 129.566C109.81 129.772 109.574 129.935 109.311 130.045C109.029 130.176 108.805 130.286 108.805 130.632C108.804 130.717 108.832 130.799 108.886 130.865C108.94 130.93 109.016 130.975 109.1 130.991L109.402 130.969C109.944 130.926 111.245 130.824 113.359 130.824C114.707 130.824 115.824 130.885 116.719 130.933L118.165 130.991C119.517 130.991 120.362 130.596 121.076 129.631C121.656 128.843 121.965 127.821 121.965 127.395C121.965 127.089 121.857 126.891 121.694 126.891C121.531 126.891 121.37 127.089 121.173 127.356C120.884 127.788 120.516 128.163 120.089 128.461C119.185 129.055 117.238 129.747 114.68 129.747C113.115 129.747 112.692 129.389 112.692 128.052V115.306C112.692 114.172 112.719 113.454 113.277 112.914C113.481 112.75 113.717 112.628 113.97 112.555C114.286 112.444 114.559 112.345 114.559 112.017C114.565 111.964 114.559 111.91 114.541 111.859C114.523 111.808 114.494 111.762 114.456 111.724C114.418 111.686 114.371 111.657 114.32 111.639C114.269 111.621 114.215 111.615 114.161 111.621L113.886 111.649Z" fill="#949494"/>
</g>
<defs>
<clipPath id="clip0_726_17603">
<rect width="130.074" height="25.8303" fill="white" transform="translate(59.9631 111.624)"/>
</clipPath>
</defs>
</svg>
