<svg width="250" height="250" viewBox="0 0 250 250" fill="none" xmlns="http://www.w3.org/2000/svg">
<circle cx="125" cy="125" r="124.5" stroke="#C0C0C0"/>
<path d="M70 120.553V136.664H86.1111H102.222V120.553V104.442H86.1111H70V120.553ZM77.8877 113.337V116.525H77.3003H76.713V113.924V111.323H75.6221H74.5312V113.924V116.525H73.9439H73.3565V113.337V110.148H75.6221H77.8877V113.337ZM82.6036 110.534C83.3588 111.037 83.6609 111.927 83.3756 112.783C83.0903 113.639 82.5029 114.025 81.2778 114.125L80.2373 114.226V115.367V116.525H79.566H78.8947V113.337V110.148H80.4722C81.8148 110.148 82.1169 110.198 82.6036 110.534ZM87.504 113.236C88.125 114.931 88.6285 116.374 88.6285 116.425C88.6285 116.475 88.36 116.525 88.0411 116.525C87.5376 116.525 87.4201 116.458 87.2188 115.938C86.967 115.351 86.967 115.351 85.8762 115.351H84.8021L84.6007 115.938C84.4161 116.475 84.349 116.525 83.7616 116.525H83.1071L83.4259 115.636C83.8287 114.478 85.0203 111.188 85.2552 110.601C85.3895 110.249 85.5405 110.148 85.9097 110.148C86.3796 110.148 86.4132 110.215 87.504 113.236ZM92.8241 110.4C93.445 110.719 93.6632 111.121 93.6632 111.96C93.6632 112.414 93.5625 112.716 93.3108 112.934C93.0255 113.186 93.0087 113.27 93.2101 113.421C93.9653 113.974 94.0324 115.116 93.3443 115.888L92.8576 116.441H91.0284H89.2159L89.1655 113.286L89.1319 110.148H90.7263C91.8339 110.148 92.4884 110.232 92.8241 110.4ZM98.1105 110.484C98.8825 110.954 99.1175 111.658 99.1175 113.421C99.1175 114.612 99.0503 115.048 98.7986 115.451C97.9259 116.895 95.7106 116.895 94.838 115.468C94.5694 115.032 94.5023 114.629 94.5023 113.337C94.5023 112.397 94.5862 111.574 94.7205 111.323C95.2743 110.232 97.0029 109.796 98.1105 110.484ZM79.1968 119.026C80.3883 119.647 81.0764 120.771 81.0764 122.131C81.0764 123.104 80.8582 123.675 80.2373 124.245L79.7338 124.715L80.2205 125.068C81.5631 126.024 81.5966 128.76 80.2708 130.085C78.6094 131.747 75.0515 131.445 73.9606 129.565C73.7257 129.179 73.4907 128.575 73.4404 128.223L73.3229 127.602H74.5145C75.6053 127.602 75.706 127.635 75.706 127.937C75.706 128.542 76.4444 129.112 77.2164 129.112C78.1227 129.112 78.5422 128.877 78.8275 128.172C79.331 126.981 78.559 125.756 77.3003 125.756C76.8976 125.756 76.8808 125.722 76.8808 124.749C76.8808 123.742 76.8808 123.742 77.3675 123.742C77.6528 123.742 78.0723 123.574 78.3241 123.356C78.9282 122.835 78.9618 121.745 78.3912 121.14C77.6528 120.352 75.8738 120.788 75.8738 121.761C75.8738 122.03 75.7228 122.063 74.6991 122.063C73.625 122.063 73.5243 122.03 73.5243 121.728C73.5243 121.224 73.9774 120.201 74.4138 119.748C75.5046 118.573 77.6863 118.254 79.1968 119.026ZM88.0243 119.093C88.3935 119.294 88.9306 119.798 89.2159 120.184L89.7193 120.922V124.917V128.911L89.2159 129.632C88.4942 130.639 87.4705 131.143 86.0608 131.143C84.7685 131.143 83.9126 130.774 83.1238 129.884C82.3351 128.978 82.2176 128.29 82.2847 124.514C82.3351 121.191 82.3351 121.124 82.7882 120.368C83.2917 119.513 83.8287 119.093 84.8524 118.757C85.7419 118.472 87.1684 118.623 88.0243 119.093ZM96.1134 118.791C97.0365 119.059 97.842 119.714 98.2951 120.57C98.5637 121.057 98.614 121.627 98.6644 124.329C98.7483 128.038 98.5972 129.011 97.8084 129.901C96.2309 131.697 93.0926 131.562 91.7332 129.632L91.2297 128.911L91.1794 125.286C91.1123 121.359 91.1962 120.738 91.9178 119.882C92.8912 118.724 94.5023 118.304 96.1134 118.791Z" fill="#949494"/>
<path d="M80.2366 112.162V113.001H80.975C81.8141 113.001 82.2505 112.682 82.2505 112.095C82.2505 111.524 81.9316 111.323 81.0421 111.323H80.2366V112.162Z" fill="#949494"/>
<path d="M85.4891 113.254L85.1367 114.344H85.8751C86.2779 114.344 86.6136 114.277 86.6136 114.21C86.6136 113.992 86.0765 112.431 85.9591 112.297C85.8919 112.213 85.6905 112.649 85.4891 113.254Z" fill="#949494"/>
<path d="M90.4753 111.994V112.682L91.3312 112.632C92.9424 112.531 92.9424 111.457 91.3312 111.356L90.4753 111.306V111.994Z" fill="#949494"/>
<path d="M90.4753 114.579V115.351H91.3984C92.2039 115.351 92.355 115.301 92.4724 114.965C92.7242 114.328 92.3214 113.925 91.3312 113.874L90.4753 113.824V114.579Z" fill="#949494"/>
<path d="M96.1645 111.474C95.7953 111.776 95.7617 111.927 95.7617 113.32C95.7617 114.914 95.8792 115.2 96.6176 115.418C96.8358 115.485 97.1211 115.401 97.4064 115.166C97.8427 114.847 97.8595 114.747 97.8595 113.337C97.8595 111.927 97.8427 111.826 97.4232 111.508C96.8694 111.071 96.668 111.071 96.1645 111.474Z" fill="#949494"/>
<path d="M84.953 121.158C84.6174 121.577 84.6006 121.829 84.6006 124.951C84.6006 128.273 84.6006 128.29 85.0201 128.693C85.5907 129.28 86.5809 129.264 87.1347 128.676C87.5375 128.257 87.5375 128.206 87.5375 124.917C87.5375 121.628 87.5375 121.577 87.1347 121.158C86.5473 120.537 85.4397 120.537 84.953 121.158Z" fill="#949494"/>
<path d="M93.8142 121.157C93.4114 121.576 93.4114 121.627 93.4114 124.916C93.4114 128.206 93.4114 128.256 93.8142 128.675C94.3176 129.212 95.2742 129.263 95.8616 128.793C96.2644 128.474 96.2644 128.407 96.3147 125.05C96.3651 121.778 96.3483 121.61 96.0127 121.174C95.5092 120.536 94.4015 120.536 93.8142 121.157Z" fill="#949494"/>
<path d="M108.215 112.849V112.32L108.767 112.217V108.484L108.215 108.381V107.849H110.175V108.381L109.641 108.484V109.982H110.133L111.164 108.512C111.36 108.244 111.537 108.06 111.694 107.959C111.852 107.856 112.03 107.804 112.228 107.804C112.349 107.804 112.454 107.819 112.544 107.849C112.637 107.879 112.724 107.92 112.808 107.973L112.669 108.608C112.613 108.597 112.564 108.587 112.52 108.58C112.478 108.571 112.435 108.567 112.391 108.567C112.29 108.567 112.195 108.597 112.107 108.656C112.019 108.713 111.917 108.819 111.802 108.972L110.89 110.222L112.405 112.235L112.912 112.32V112.849H111.056V112.32L111.386 112.276L111.375 112.262L110.258 110.748H109.641V112.217L110.175 112.32V112.849H108.215Z" fill="#949494"/>
<path d="M114.598 112.849V112.32L114.966 112.269L116.638 107.849H117.487L119.139 112.269L119.506 112.32V112.849H117.9V112.32L118.261 112.255L117.994 111.469H116.114L115.84 112.255L116.204 112.32V112.849H114.598ZM116.343 110.806H117.768L117.113 108.955L117.068 108.821H117.047L116.998 108.962L116.343 110.806Z" fill="#949494"/>
<path d="M121.82 112.849V112.32L122.372 112.217V108.512H121.355L121.279 109.151H120.624V107.849H124.998V109.151H124.338L124.262 108.512H123.246V112.217L123.797 112.32V112.849H121.82Z" fill="#949494"/>
<path d="M126.052 112.849V112.32L126.42 112.269L128.092 107.849H128.942L130.593 112.269L130.961 112.32V112.849H129.355V112.32L129.715 112.255L129.448 111.469H127.568L127.294 112.255L127.658 112.32V112.849H126.052ZM127.797 110.806H129.223L128.567 108.955L128.522 108.821H128.501L128.453 108.962L127.797 110.806Z" fill="#949494"/>
<path d="M132.74 112.849V112.183H132.876C133.033 112.174 133.164 112.135 133.268 112.066C133.374 111.995 133.458 111.883 133.521 111.73C133.583 111.574 133.631 111.368 133.663 111.112C133.696 110.855 133.716 110.538 133.726 110.16L133.767 108.481L133.233 108.381V107.849H137.621V108.381L137.069 108.484V112.217L137.621 112.32V112.849H135.647V112.32L136.199 112.217V108.519H134.638L134.596 110.16C134.585 110.639 134.545 111.049 134.478 111.39C134.411 111.729 134.312 112.007 134.18 112.224C134.048 112.439 133.882 112.597 133.68 112.698C133.482 112.799 133.241 112.849 132.959 112.849H132.74Z" fill="#949494"/>
<path d="M141.621 112.921C141.285 112.921 140.982 112.86 140.712 112.736C140.441 112.61 140.209 112.434 140.015 112.207C139.823 111.98 139.675 111.713 139.571 111.403C139.467 111.094 139.415 110.756 139.415 110.387V110.311C139.415 109.945 139.467 109.607 139.571 109.298C139.675 108.989 139.823 108.721 140.015 108.495C140.209 108.266 140.441 108.089 140.712 107.966C140.982 107.84 141.284 107.777 141.617 107.777C141.962 107.777 142.271 107.84 142.543 107.966C142.816 108.089 143.049 108.266 143.241 108.495C143.433 108.721 143.579 108.989 143.681 109.298C143.783 109.607 143.834 109.945 143.834 110.311V110.387C143.834 110.756 143.783 111.094 143.681 111.403C143.579 111.713 143.433 111.98 143.241 112.207C143.049 112.434 142.816 112.61 142.543 112.736C142.271 112.86 141.963 112.921 141.621 112.921ZM141.621 112.235C141.926 112.235 142.177 112.158 142.373 112.004C142.572 111.849 142.719 111.632 142.814 111.355C142.911 111.078 142.96 110.756 142.96 110.387V110.304C142.96 109.94 142.911 109.621 142.814 109.346C142.717 109.072 142.569 108.856 142.37 108.701C142.173 108.545 141.923 108.467 141.617 108.467C141.326 108.467 141.082 108.545 140.885 108.701C140.689 108.856 140.541 109.072 140.441 109.346C140.342 109.621 140.292 109.94 140.292 110.304V110.387C140.292 110.753 140.342 111.076 140.441 111.355C140.541 111.632 140.689 111.849 140.885 112.004C141.084 112.158 141.329 112.235 141.621 112.235Z" fill="#949494"/>
<path d="M145.797 112.849V112.32L146.349 112.217V108.484L145.797 108.381V107.849H149.558V109.048H148.86L148.815 108.519H147.223V112.217L147.771 112.32V112.849H145.797Z" fill="#949494"/>
<path d="M112.364 123.107C111.959 123.107 111.597 123.016 111.278 122.833C110.959 122.649 110.7 122.396 110.501 122.074C110.305 121.748 110.183 121.374 110.137 120.951H109.53V122.396L110.081 122.499V123.028H108.108V122.499L108.659 122.396V118.663L108.108 118.56V118.028H110.081V118.56L109.53 118.663V120.281H110.123C110.151 119.832 110.262 119.434 110.456 119.086C110.65 118.735 110.91 118.461 111.236 118.262C111.565 118.062 111.939 117.963 112.36 117.963C112.811 117.963 113.209 118.074 113.554 118.296C113.898 118.516 114.166 118.817 114.358 119.199C114.55 119.581 114.646 120.015 114.646 120.501V120.573C114.646 121.06 114.55 121.495 114.358 121.878C114.166 122.26 113.898 122.561 113.554 122.781C113.211 122.999 112.815 123.107 112.364 123.107ZM112.364 122.424C112.669 122.424 112.927 122.346 113.137 122.19C113.348 122.035 113.506 121.818 113.612 121.541C113.721 121.264 113.775 120.941 113.775 120.573V120.494C113.775 120.13 113.72 119.809 113.609 119.532C113.5 119.255 113.341 119.039 113.13 118.883C112.92 118.727 112.663 118.65 112.36 118.65C112.062 118.65 111.811 118.727 111.608 118.883C111.404 119.039 111.25 119.255 111.146 119.532C111.042 119.807 110.99 120.127 110.99 120.494V120.573C110.99 120.941 111.042 121.265 111.146 121.545C111.25 121.822 111.404 122.038 111.608 122.194C111.813 122.347 112.065 122.424 112.364 122.424Z" fill="#949494"/>
<path d="M116.468 123.028V122.499L117.019 122.396V118.663L116.468 118.56V118.028H117.019H118.837C119.214 118.028 119.536 118.093 119.804 118.224C120.075 118.354 120.282 118.536 120.425 118.77C120.569 119.001 120.64 119.272 120.64 119.584C120.64 119.895 120.569 120.168 120.425 120.401C120.282 120.632 120.075 120.812 119.804 120.94C119.536 121.068 119.214 121.133 118.837 121.133H117.893V122.396L118.445 122.499V123.028H116.468ZM117.893 120.463H118.837C119.147 120.463 119.379 120.38 119.534 120.216C119.689 120.051 119.766 119.842 119.766 119.591C119.766 119.334 119.689 119.121 119.534 118.952C119.379 118.782 119.147 118.698 118.837 118.698H117.893V120.463Z" fill="#949494"/>
<path d="M122.403 123.028V122.499L122.954 122.396V118.663L122.403 118.56V118.028H122.954H123.829H124.38V118.56L123.829 118.663V121.215L123.849 121.222L126.049 118.955V118.663L125.5 118.56V118.028H126.049H126.926H127.474V118.56L126.926 118.663V122.396L127.474 122.499V123.028H125.5V122.499L126.049 122.396V119.917L126.028 119.91L123.829 122.177V122.396L124.38 122.499V123.028H122.403Z" fill="#949494"/>
<path d="M129.355 124.258L129.268 122.362H129.674C129.794 122.245 129.906 122.091 130.01 121.898C130.114 121.706 130.2 121.461 130.267 121.163C130.336 120.864 130.377 120.497 130.388 120.065L130.478 118.656L129.969 118.56V118.028H134.249V118.56L133.701 118.663V122.362H134.339L134.256 124.258H133.465V123.028H130.139V124.258H129.355ZM130.655 122.362H132.827V118.698H131.349L131.269 120.065C131.255 120.413 131.222 120.73 131.169 121.016C131.116 121.3 131.045 121.554 130.957 121.778C130.872 122 130.771 122.195 130.655 122.362Z" fill="#949494"/>
<path d="M136.161 123.028V122.499L136.712 122.396V118.663L136.161 118.56V118.028H136.712H137.586H138.138V118.56L137.586 118.663V121.215L137.607 121.222L139.806 118.955V118.663L139.258 118.56V118.028H139.806H140.684H141.232V118.56L140.684 118.663V122.396L141.232 122.499V123.028H139.258V122.499L139.806 122.396V119.917L139.785 119.91L137.586 122.177V122.396L138.138 122.499V123.028H136.161Z" fill="#949494"/>
<path d="M145.87 123.028V122.499L146.421 122.396V121.04C146.234 121.09 146.05 121.127 145.87 121.15C145.689 121.173 145.484 121.184 145.252 121.184C144.658 121.184 144.203 121.057 143.886 120.803C143.569 120.549 143.411 120.146 143.411 119.594V118.663L142.859 118.56V118.028H144.833V118.56L144.285 118.663V119.594C144.285 119.942 144.361 120.182 144.514 120.315C144.666 120.448 144.913 120.514 145.252 120.514C145.449 120.514 145.646 120.502 145.842 120.477C146.039 120.451 146.232 120.415 146.421 120.367V118.663L145.87 118.56V118.028H147.847V118.56L147.296 118.663V122.396L147.847 122.499V123.028H145.87Z" fill="#949494"/>
<path d="M149.613 123.028V122.499L150.165 122.396V118.663L149.613 118.56V118.028H153.46V119.316H152.78L152.721 118.694H151.039V120.109H152.811V120.779H151.039V122.369H152.815L152.874 121.734H153.546V123.028H149.613Z" fill="#949494"/>
<path d="M157.855 123.1C157.358 123.1 156.932 122.996 156.579 122.788C156.227 122.577 155.958 122.284 155.77 121.909C155.585 121.531 155.493 121.093 155.493 120.593V120.466C155.493 119.979 155.585 119.547 155.77 119.172C155.955 118.794 156.22 118.497 156.565 118.282C156.909 118.065 157.321 117.956 157.8 117.956C158.135 117.956 158.446 118.005 158.733 118.104C159.019 118.202 159.269 118.34 159.482 118.519V119.673H158.816L158.726 118.9C158.649 118.845 158.565 118.798 158.472 118.759C158.38 118.721 158.278 118.691 158.167 118.67C158.059 118.65 157.939 118.639 157.81 118.639C157.507 118.639 157.247 118.715 157.029 118.866C156.814 119.017 156.65 119.229 156.537 119.501C156.424 119.774 156.367 120.093 156.367 120.459V120.593C156.367 120.973 156.427 121.301 156.547 121.576C156.668 121.848 156.84 122.058 157.064 122.204C157.291 122.351 157.561 122.424 157.876 122.424C158.028 122.424 158.179 122.407 158.327 122.372C158.477 122.336 158.609 122.289 158.722 122.232L158.816 121.531H159.475V122.678C159.281 122.804 159.042 122.906 158.76 122.984C158.481 123.062 158.179 123.1 157.855 123.1Z" fill="#949494"/>
<path d="M161.442 123.028V122.499L161.994 122.396V118.663L161.442 118.56V118.028H163.402V118.56L162.868 118.663V120.161H163.36L164.39 118.691C164.587 118.423 164.764 118.239 164.921 118.138C165.078 118.035 165.256 117.983 165.455 117.983C165.576 117.983 165.681 117.998 165.771 118.028C165.863 118.058 165.951 118.099 166.035 118.152L165.896 118.787C165.84 118.776 165.791 118.766 165.747 118.759C165.705 118.75 165.662 118.746 165.618 118.746C165.517 118.746 165.422 118.776 165.334 118.835C165.246 118.892 165.144 118.998 165.029 119.151L164.116 120.401L165.632 122.414L166.139 122.499V123.028H164.283V122.499L164.612 122.455L164.602 122.441L163.485 120.927H162.868V122.396L163.402 122.499V123.028H161.442Z" fill="#949494"/>
<path d="M167.891 123.028V122.499L168.442 122.396V118.663L167.891 118.56V118.028H168.442H169.316H169.868V118.56L169.316 118.663V121.215L169.337 121.222L171.536 118.955V118.663L170.988 118.56V118.028H171.536H172.414H172.962V118.56L172.414 118.663V122.396L172.962 122.499V123.028H170.988V122.499L171.536 122.396V119.917L171.516 119.91L169.316 122.177V122.396L169.868 122.499V123.028H167.891Z" fill="#949494"/>
<path d="M174.728 123.028V122.499L175.168 122.417L176.657 120.525L175.266 118.643L174.842 118.56V118.028H176.674V118.56L176.195 118.605L177.17 119.951L178.117 118.605L177.638 118.56V118.028H179.459V118.56L179.005 118.643L177.68 120.473L179.161 122.417L179.626 122.499V123.028H177.756V122.499L178.217 122.455L177.17 121.036L176.112 122.455L176.552 122.499V123.028H174.728Z" fill="#949494"/>
<path d="M108.215 133.207V132.678L108.767 132.575V128.842L108.215 128.739V128.207H110.175V128.739L109.641 128.842V130.34H110.133L111.164 128.87C111.36 128.602 111.537 128.418 111.694 128.317C111.852 128.214 112.03 128.162 112.228 128.162C112.349 128.162 112.454 128.177 112.544 128.207C112.637 128.237 112.724 128.278 112.808 128.331L112.669 128.966C112.613 128.954 112.564 128.945 112.52 128.938C112.478 128.929 112.435 128.925 112.391 128.925C112.29 128.925 112.195 128.954 112.107 129.014C112.019 129.071 111.917 129.177 111.802 129.33L110.89 130.58L112.405 132.593L112.912 132.678V133.207H111.056V132.678L111.386 132.634L111.375 132.62L110.258 131.106H109.641V132.575L110.175 132.678V133.207H108.215Z" fill="#949494"/>
<path d="M116.478 133.279C116.143 133.279 115.84 133.218 115.569 133.094C115.299 132.968 115.066 132.792 114.872 132.565C114.68 132.338 114.532 132.071 114.428 131.761C114.324 131.452 114.272 131.114 114.272 130.745V130.669C114.272 130.303 114.324 129.965 114.428 129.656C114.532 129.347 114.68 129.079 114.872 128.853C115.066 128.624 115.299 128.447 115.569 128.324C115.84 128.198 116.142 128.135 116.475 128.135C116.819 128.135 117.128 128.198 117.401 128.324C117.674 128.447 117.906 128.624 118.098 128.853C118.29 129.079 118.437 129.347 118.538 129.656C118.64 129.965 118.691 130.303 118.691 130.669V130.745C118.691 131.114 118.64 131.452 118.538 131.761C118.437 132.071 118.29 132.338 118.098 132.565C117.906 132.792 117.674 132.968 117.401 133.094C117.128 133.218 116.82 133.279 116.478 133.279ZM116.478 132.593C116.783 132.593 117.034 132.516 117.231 132.362C117.43 132.207 117.576 131.99 117.671 131.713C117.768 131.436 117.817 131.114 117.817 130.745V130.662C117.817 130.298 117.768 129.979 117.671 129.704C117.574 129.43 117.426 129.214 117.227 129.059C117.031 128.903 116.78 128.825 116.475 128.825C116.183 128.825 115.939 128.903 115.743 129.059C115.546 129.214 115.398 129.43 115.299 129.704C115.199 129.979 115.15 130.298 115.15 130.662V130.745C115.15 131.111 115.199 131.434 115.299 131.713C115.398 131.99 115.546 132.207 115.743 132.362C115.942 132.516 116.187 132.593 116.478 132.593Z" fill="#949494"/>
<path d="M120.662 133.207V132.678L121.21 132.575V128.842L120.662 128.739V128.207H121.21H122.462L123.943 131.823H123.964L125.4 128.207H127.221V128.739L126.669 128.842V132.575L127.221 132.678V133.207H125.247V132.678L125.827 132.575V131.411L125.833 129.224L125.816 129.22L124.252 133.094H123.617L122.008 129.241L121.99 129.244L122.035 131.353V132.575L122.635 132.678V133.207H120.662Z" fill="#949494"/>
<path d="M129.053 133.207V132.678L129.604 132.575V128.842L129.053 128.739V128.207H134.128V128.739L133.576 128.842V132.575L134.128 132.678V133.207H132.154V132.678L132.705 132.575V128.877H130.478V132.575L131.027 132.678V133.207H129.053Z" fill="#949494"/>
<path d="M135.866 133.207V132.678L136.233 132.627L137.905 128.207H138.755L140.406 132.627L140.774 132.678V133.207H139.168V132.678L139.529 132.613L139.262 131.827H137.382L137.108 132.613L137.472 132.678V133.207H135.866ZM137.611 131.164H139.036L138.381 129.313L138.335 129.179H138.315L138.266 129.32L137.611 131.164Z" fill="#949494"/>
<path d="M142.54 133.207V132.678L143.091 132.575V128.842L142.54 128.739V128.207H144.517V128.739L143.966 128.842V130.401H146.175V128.842L145.624 128.739V128.207H146.175H147.046H147.597V128.739L147.046 128.842V132.575L147.597 132.678V133.207H145.624V132.678L146.175 132.575V131.075H143.966V132.575L144.517 132.678V133.207H142.54Z" fill="#949494"/>
<path d="M149.426 133.207V132.678L149.977 132.575V128.842L149.426 128.739V128.207H149.977H150.851H151.403V128.739L150.851 128.842V131.394L150.872 131.401L153.071 129.134V128.842L152.523 128.739V128.207H153.071H153.949H154.497V128.739L153.949 128.842V132.575L154.497 132.678V133.207H152.523V132.678L153.071 132.575V130.096L153.05 130.089L150.851 132.356V132.575L151.403 132.678V133.207H149.426Z" fill="#949494"/>
<path d="M156.298 133.207V132.678L156.849 132.575V128.842L156.298 128.739V128.207H156.849H157.723H158.275V128.739L157.723 128.842V131.394L157.744 131.401L159.943 129.134V128.842L159.395 128.739V128.207H159.943H160.821H161.369V128.739L160.821 128.842V132.575L161.369 132.678V133.207H159.395V132.678L159.943 132.575V130.096L159.922 130.089L157.723 132.356V132.575L158.275 132.678V133.207H156.298ZM158.837 127.87C158.478 127.87 158.195 127.779 157.987 127.596C157.781 127.412 157.68 127.176 157.685 126.885L157.692 126.864H158.309C158.309 127.011 158.351 127.131 158.434 127.225C158.52 127.319 158.654 127.366 158.837 127.366C159.015 127.366 159.147 127.32 159.232 127.228C159.318 127.134 159.36 127.013 159.36 126.864H159.978L159.985 126.885C159.989 127.176 159.888 127.412 159.68 127.596C159.474 127.779 159.193 127.87 158.837 127.87Z" fill="#949494"/>
</svg>
