<svg width="250" height="250" viewBox="0 0 250 250" fill="none" xmlns="http://www.w3.org/2000/svg">
<circle cx="125" cy="125" r="124.5" stroke="#C0C0C0"/>
<g clip-path="url(#clip0_726_17632)">
<mask id="mask0_726_17632" style="mask-type:luminance" maskUnits="userSpaceOnUse" x="83" y="112" width="84" height="25">
<path d="M166.425 112.427H83.5852V136.835H166.425V112.427Z" fill="white"/>
</mask>
<g mask="url(#mask0_726_17632)">
<path d="M92.2269 113.908C92.7529 114.126 93.2669 114.43 93.7809 114.831C93.9244 114.94 94.0439 115.001 94.1395 115.001C94.3906 115.001 94.5579 114.612 94.6296 113.847H95.06C95.0122 114.721 94.9883 116.264 94.9883 118.486H94.5579C94.4503 117.539 94.2949 116.822 94.1037 116.324C93.9124 115.826 93.5897 115.389 93.1354 115.025C92.8246 114.721 92.454 114.491 92.0357 114.321C91.6173 114.163 91.1869 114.078 90.7327 114.078C89.4656 114.078 88.5212 114.709 87.8996 115.972C87.278 117.235 86.9792 118.802 86.9792 120.684C86.9792 122.554 87.3019 124.108 87.9474 125.359C88.5929 126.61 89.5492 127.241 90.8164 127.241C91.2467 127.241 91.6651 127.156 92.0954 126.998C92.5138 126.84 92.8724 126.61 93.1593 126.294C93.6255 125.942 93.9483 125.493 94.1276 124.946C94.3069 124.412 94.4503 123.622 94.5579 122.59H94.9883C94.9883 124.91 95.0122 126.513 95.06 127.423H94.6296C94.5938 127.01 94.534 126.719 94.4742 126.549C94.4025 126.379 94.3069 126.294 94.1873 126.294C94.0917 126.294 93.9602 126.343 93.7929 126.452C93.231 126.865 92.6812 127.168 92.1671 127.387C91.6531 127.593 91.0315 127.703 90.3023 127.703C88.9635 127.703 87.804 127.423 86.7999 126.877C85.7957 126.33 85.0187 125.529 84.4689 124.485C83.919 123.44 83.644 122.202 83.644 120.757C83.644 119.348 83.9309 118.109 84.4928 117.016C85.0546 115.936 85.8436 115.086 86.8596 114.491C87.8757 113.896 89.0233 113.592 90.3262 113.592C91.0554 113.58 91.7009 113.689 92.2269 113.908Z" fill="#949494"/>
<path d="M99.5324 119.021C100.094 117.831 101.122 117.236 102.605 117.236C103.585 117.236 104.278 117.491 104.685 117.988C104.9 118.231 105.055 118.547 105.151 118.936C105.246 119.324 105.294 119.834 105.294 120.478V125.639C105.294 126.161 105.378 126.525 105.557 126.72C105.736 126.914 106.047 127.011 106.502 127.011V127.412C105.187 127.363 102.76 127.363 101.553 127.412V127.011C101.935 127.011 102.198 126.914 102.342 126.72C102.497 126.525 102.569 126.161 102.569 125.639V119.676C102.569 119.154 102.485 118.753 102.318 118.486C102.15 118.219 101.84 118.086 101.397 118.086C100.871 118.086 100.429 118.292 100.07 118.705C99.7117 119.118 99.5324 119.652 99.5324 120.284V125.639C99.5324 126.161 99.6042 126.525 99.7596 126.72C99.915 126.914 100.178 127.011 100.549 127.011V127.412C99.3412 127.363 96.9145 127.363 95.5996 127.412V127.011C96.0419 127.011 96.3527 126.914 96.532 126.72C96.7113 126.525 96.8069 126.161 96.8069 125.639V114.722C96.8069 114.139 96.7113 113.702 96.532 113.435C96.3527 113.168 96.0419 113.034 95.5996 113.034V112.633C96.006 112.67 96.3886 112.694 96.7711 112.694C97.8708 112.694 98.7793 112.609 99.5324 112.427V119.021Z" fill="#949494"/>
<path d="M131.208 126.721C131.387 126.915 131.698 127.012 132.14 127.012V127.413C130.885 127.364 128.518 127.364 127.311 127.413V127.012C127.645 127.012 127.884 126.915 128.016 126.721C128.147 126.526 128.219 126.162 128.219 125.628V119.678C128.219 119.143 128.135 118.743 127.98 118.475C127.825 118.208 127.526 118.087 127.083 118.087C126.617 118.087 126.211 118.281 125.864 118.682C125.518 119.083 125.314 119.568 125.255 120.139V120.479V125.64C125.255 126.162 125.338 126.526 125.494 126.721C125.649 126.915 125.936 127.012 126.354 127.012V127.413C125.147 127.364 122.84 127.364 121.633 127.413V127.012C121.967 127.012 122.206 126.915 122.338 126.721C122.469 126.526 122.541 126.162 122.541 125.64V119.678C122.541 119.143 122.469 118.743 122.338 118.475C122.194 118.208 121.931 118.087 121.525 118.087C121.023 118.087 120.593 118.305 120.234 118.73C119.875 119.155 119.696 119.69 119.696 120.309V125.64C119.696 126.162 119.768 126.526 119.899 126.721C120.031 126.915 120.27 127.012 120.605 127.012V127.413C119.493 127.364 117.126 127.364 115.775 127.413V127.012C116.229 127.012 116.54 126.915 116.72 126.721C116.899 126.526 116.982 126.162 116.982 125.64V119.605C116.982 119.022 116.899 118.585 116.72 118.318C116.54 118.05 116.229 117.917 115.775 117.917V117.516C116.182 117.552 116.564 117.577 116.947 117.577C118.07 117.577 118.991 117.492 119.708 117.31V119.034C120.258 117.844 121.238 117.249 122.637 117.249C123.593 117.249 124.286 117.504 124.717 118.002C124.956 118.257 125.111 118.645 125.183 119.155C125.506 118.463 125.936 117.978 126.462 117.686C126.988 117.395 127.609 117.249 128.315 117.249C129.271 117.249 129.964 117.504 130.395 118.002C130.598 118.233 130.741 118.548 130.825 118.937C130.909 119.338 130.957 119.848 130.957 120.491V125.652C130.933 126.162 131.016 126.526 131.208 126.721Z" fill="#949494"/>
<path d="M140.842 118.511C141.475 119.361 141.786 120.587 141.786 122.202C141.786 124.084 141.38 125.469 140.579 126.355C139.778 127.242 138.738 127.691 137.459 127.691C136.586 127.691 135.881 127.472 135.343 127.023C134.889 126.987 134.435 127.035 133.98 127.181C133.526 127.327 133.167 127.509 132.904 127.74L132.618 127.57C132.701 127.254 132.749 126.89 132.749 126.501V114.722C132.749 114.139 132.653 113.702 132.474 113.435C132.295 113.168 131.984 113.034 131.542 113.034V112.633C131.936 112.67 132.319 112.694 132.713 112.694C133.813 112.694 134.721 112.609 135.475 112.427V119.057C135.738 118.474 136.12 118.013 136.622 117.709C137.124 117.393 137.71 117.236 138.355 117.236C139.383 117.236 140.208 117.661 140.842 118.511ZM138.415 126.1C138.75 125.311 138.929 124.097 138.929 122.482C138.929 120.903 138.786 119.786 138.499 119.093C138.212 118.413 137.794 118.073 137.256 118.073C136.849 118.073 136.479 118.219 136.156 118.523C135.821 118.826 135.594 119.227 135.487 119.737V126.78C135.905 127.12 136.371 127.302 136.885 127.302C137.566 127.29 138.081 126.89 138.415 126.1Z" fill="#949494"/>
<path d="M150.359 124.581L150.693 124.691C150.442 125.516 149.988 126.233 149.343 126.816C148.697 127.399 147.884 127.69 146.916 127.69C145.577 127.69 144.525 127.253 143.736 126.391C142.947 125.529 142.553 124.253 142.553 122.565C142.553 120.841 142.971 119.517 143.82 118.607C144.669 117.696 145.78 117.234 147.179 117.234C149.546 117.234 150.729 118.655 150.729 121.497H145.422C145.41 121.691 145.398 121.995 145.398 122.395C145.398 123.233 145.517 123.938 145.744 124.508C145.972 125.067 146.282 125.48 146.653 125.735C147.023 125.99 147.418 126.124 147.848 126.124C148.9 126.124 149.725 125.601 150.359 124.581ZM145.948 118.497C145.649 119.068 145.469 119.942 145.386 121.133H148.35C148.374 120.125 148.279 119.287 148.063 118.631C147.848 117.975 147.514 117.647 147.071 117.647C146.617 117.647 146.246 117.927 145.948 118.497Z" fill="#949494"/>
<path d="M158.618 117.757C158.905 118.097 159.048 118.522 159.048 119.007C159.048 119.481 158.917 119.87 158.642 120.173C158.367 120.477 158.02 120.622 157.578 120.622C157.148 120.622 156.813 120.513 156.562 120.282C156.311 120.064 156.18 119.76 156.18 119.396C156.18 118.777 156.454 118.279 157.004 117.902C156.957 117.89 156.873 117.878 156.777 117.878C156.646 117.878 156.55 117.89 156.478 117.914C156 117.987 155.594 118.291 155.259 118.801C154.924 119.311 154.757 119.833 154.757 120.38V125.468C154.757 126.051 154.9 126.463 155.187 126.694C155.474 126.925 155.917 127.034 156.538 127.034V127.435C156.359 127.435 156.215 127.423 156.108 127.411C154.829 127.374 152.426 127.374 151.219 127.411C151.123 127.423 150.992 127.435 150.836 127.435V127.034C151.29 127.034 151.601 126.937 151.781 126.743C151.96 126.548 152.044 126.184 152.044 125.662V119.602C152.044 119.019 151.96 118.582 151.781 118.315C151.601 118.048 151.29 117.914 150.836 117.914V117.514C151.243 117.55 151.625 117.574 152.008 117.574C153.131 117.574 154.052 117.489 154.769 117.307V119.092C155.008 118.546 155.355 118.097 155.809 117.757C156.263 117.417 156.777 117.247 157.339 117.247C157.901 117.234 158.331 117.417 158.618 117.757Z" fill="#949494"/>
<path d="M163.842 117.417C164.248 117.539 164.547 117.672 164.762 117.83C164.894 117.915 165.001 117.964 165.097 117.964C165.205 117.964 165.312 117.903 165.384 117.781C165.468 117.66 165.515 117.49 165.539 117.259H165.934C165.886 117.915 165.862 119.032 165.862 120.635H165.468C165.36 119.797 165.109 119.081 164.727 118.51C164.344 117.939 163.782 117.66 163.053 117.66C162.67 117.66 162.36 117.769 162.121 117.988C161.87 118.207 161.75 118.51 161.75 118.887C161.75 119.324 161.893 119.7 162.18 120.004C162.467 120.319 162.922 120.696 163.543 121.145L164.093 121.546C164.858 122.129 165.432 122.663 165.79 123.125C166.161 123.586 166.34 124.157 166.34 124.849C166.34 125.408 166.185 125.905 165.862 126.343C165.539 126.78 165.109 127.108 164.571 127.338C164.033 127.569 163.436 127.678 162.778 127.678C162.085 127.678 161.499 127.545 161.009 127.278C160.602 127.071 160.316 126.938 160.136 126.877C160.005 126.84 159.897 126.877 159.802 126.998C159.706 127.12 159.634 127.302 159.586 127.545H159.192C159.24 126.816 159.264 125.541 159.264 123.707H159.658C159.909 126.063 160.758 127.241 162.204 127.241C162.575 127.241 162.886 127.132 163.137 126.901C163.4 126.683 163.519 126.33 163.519 125.881C163.519 125.529 163.436 125.201 163.28 124.922C163.125 124.643 162.921 124.388 162.682 124.169C162.443 123.95 162.085 123.647 161.607 123.27C161.045 122.809 160.614 122.445 160.316 122.153C160.017 121.874 159.766 121.534 159.562 121.157C159.359 120.781 159.252 120.344 159.252 119.87C159.252 119.057 159.562 118.401 160.196 117.927C160.83 117.454 161.595 117.223 162.503 117.223C163.005 117.235 163.436 117.296 163.842 117.417Z" fill="#949494"/>
<path d="M106.2 130.898C105.794 130.898 105.471 130.886 105.244 130.874V131.068C105.495 131.08 105.674 131.117 105.794 131.165C105.913 131.214 105.997 131.311 106.033 131.42C106.069 131.542 106.093 131.724 106.093 131.967V135.076L103.116 130.862C102.877 130.886 102.59 130.886 102.255 130.886C101.885 130.886 101.598 130.874 101.383 130.862V131.056C101.61 131.068 101.765 131.093 101.873 131.129C101.981 131.165 102.04 131.238 102.088 131.348C102.124 131.457 102.148 131.627 102.148 131.87V135.537C102.148 135.78 102.124 135.962 102.088 136.084C102.052 136.205 101.981 136.29 101.873 136.351C101.765 136.399 101.132 136.715 100.749 135.841L98.5617 130.825H98.4183L96.3503 135.574C96.2427 135.816 96.1351 136.023 96.0155 136.169C95.896 136.314 95.7526 136.411 95.5852 136.46V136.654C95.7526 136.63 97.0555 136.63 97.2468 136.654V136.46C96.9958 136.436 96.8045 136.375 96.6969 136.29C96.5774 136.193 96.5296 136.071 96.5296 135.901C96.5296 135.744 96.5774 135.537 96.685 135.294L97.0077 134.578H99.2789L99.7571 135.659C99.8408 135.853 99.8886 135.999 99.8886 136.108C99.8886 136.229 99.8288 136.314 99.7212 136.363C99.6137 136.411 99.4463 136.448 99.2072 136.46V136.654C99.4702 136.63 102.997 136.63 103.212 136.654V136.46C102.961 136.448 102.781 136.411 102.662 136.363C102.542 136.314 102.459 136.217 102.423 136.108C102.387 135.986 102.363 135.804 102.363 135.561V131.457L106.093 136.715H106.308V131.979C106.308 131.736 106.332 131.554 106.368 131.433C106.403 131.311 106.475 131.226 106.583 131.165C106.69 131.117 106.846 131.08 107.073 131.068V130.874C106.87 130.886 106.571 130.898 106.2 130.898ZM97.0794 134.383L98.1433 131.979L99.1953 134.383H97.0794Z" fill="#949494"/>
<path d="M112.105 131.589C112.595 132.063 112.834 132.767 112.834 133.678C112.834 134.273 112.714 134.795 112.475 135.244C112.236 135.694 111.889 136.034 111.447 136.277C110.993 136.519 110.455 136.641 109.821 136.641L109.283 136.629C108.937 136.617 108.674 136.604 108.518 136.604C108.004 136.604 107.622 136.617 107.359 136.629V136.434C107.586 136.422 107.741 136.398 107.849 136.362C107.957 136.325 108.016 136.252 108.064 136.143C108.1 136.034 108.124 135.864 108.124 135.621V131.869C108.124 131.626 108.1 131.456 108.064 131.346C108.028 131.237 107.957 131.164 107.849 131.128C107.741 131.091 107.586 131.067 107.359 131.055V130.861C107.574 130.885 107.873 130.885 108.267 130.885L109.056 130.873C109.475 130.861 109.762 130.849 109.905 130.849C110.885 130.873 111.614 131.116 112.105 131.589ZM109.236 131.104C109.14 131.152 109.068 131.225 109.032 131.346C108.997 131.456 108.973 131.626 108.973 131.856V135.645C108.973 135.876 108.997 136.046 109.032 136.155C109.068 136.264 109.14 136.349 109.236 136.398C109.331 136.447 109.475 136.459 109.678 136.459C110.24 136.459 110.694 136.362 111.017 136.155C111.34 135.949 111.567 135.645 111.698 135.244C111.83 134.844 111.889 134.334 111.889 133.702C111.889 132.779 111.722 132.099 111.387 131.674C111.053 131.249 110.479 131.031 109.666 131.031C109.487 131.043 109.343 131.067 109.236 131.104Z" fill="#949494"/>
<path d="M117.366 133.922V135.634C117.366 135.877 117.39 136.047 117.438 136.156C117.486 136.266 117.569 136.339 117.701 136.375C117.82 136.411 118.024 136.436 118.311 136.448V136.642C117.988 136.618 116.003 136.618 115.74 136.642V136.448C115.968 136.436 116.123 136.411 116.231 136.375C116.338 136.339 116.398 136.266 116.446 136.156C116.482 136.047 116.506 135.877 116.506 135.634V130.935C116.506 130.692 116.482 130.522 116.446 130.413C116.41 130.303 116.338 130.23 116.231 130.194C116.123 130.158 115.968 130.133 115.74 130.121V129.927C116.003 129.951 116.386 129.951 116.876 129.951L117.88 129.939C118 129.927 118.131 129.927 118.287 129.927C119.016 129.927 119.578 130.097 119.96 130.437C120.343 130.777 120.534 131.226 120.534 131.797C120.534 132.149 120.462 132.477 120.307 132.793C120.151 133.108 119.9 133.376 119.53 133.594C119.171 133.813 118.681 133.922 118.083 133.922H117.366ZM117.629 130.182C117.534 130.23 117.462 130.303 117.426 130.425C117.39 130.534 117.366 130.704 117.366 130.935V133.74H117.988C118.597 133.74 119.016 133.57 119.255 133.242C119.494 132.914 119.602 132.465 119.602 131.906C119.602 131.287 119.482 130.838 119.243 130.546C119.004 130.255 118.609 130.109 118.048 130.109C117.868 130.109 117.725 130.133 117.629 130.182Z" fill="#949494"/>
<path d="M135.785 131.989C135.785 132.317 135.797 132.572 135.809 132.766H135.594C135.558 132.329 135.498 131.989 135.415 131.746C135.331 131.515 135.2 131.345 135.02 131.236C134.841 131.127 134.578 131.078 134.243 131.078H133.646V135.523C133.646 135.79 133.67 135.984 133.717 136.106C133.765 136.227 133.849 136.312 133.98 136.348C134.1 136.397 134.303 136.421 134.59 136.433V136.628C134.267 136.603 132.139 136.603 131.841 136.628V136.433C132.116 136.421 132.319 136.397 132.45 136.348C132.57 136.3 132.665 136.227 132.713 136.106C132.761 135.984 132.785 135.79 132.785 135.523V131.078H132.187C131.853 131.078 131.59 131.127 131.41 131.236C131.231 131.345 131.099 131.515 131.016 131.746C130.932 131.977 130.872 132.317 130.836 132.766H130.621C130.645 132.56 130.645 132.305 130.645 131.989C130.645 131.661 130.621 131.285 130.585 130.872C131.099 130.896 131.984 130.896 133.215 130.896C134.447 130.896 135.319 130.884 135.845 130.872C135.809 131.285 135.785 131.661 135.785 131.989Z" fill="#949494"/>
<path d="M141.765 131.067C141.55 131.079 141.382 131.116 141.275 131.164C141.167 131.213 141.095 131.31 141.059 131.431C141.024 131.553 141 131.735 141 131.978V136.689H140.785L137.055 131.431V135.536C137.055 135.779 137.079 135.961 137.115 136.082C137.151 136.204 137.234 136.289 137.354 136.337C137.473 136.386 137.653 136.422 137.904 136.434V136.629C137.677 136.604 136.29 136.604 136.087 136.629V136.434C136.302 136.422 136.469 136.386 136.577 136.337C136.684 136.289 136.756 136.192 136.792 136.07C136.828 135.949 136.852 135.767 136.852 135.524V131.856C136.852 131.614 136.828 131.444 136.792 131.334C136.756 131.225 136.684 131.152 136.577 131.116C136.469 131.079 136.314 131.055 136.087 131.043V130.849C136.29 130.873 136.577 130.873 136.959 130.873C137.294 130.873 137.581 130.861 137.82 130.849L140.796 135.062V131.978C140.796 131.735 140.773 131.553 140.737 131.431C140.701 131.31 140.617 131.225 140.498 131.176C140.378 131.128 140.199 131.091 139.948 131.079V130.885C140.175 130.909 140.486 130.909 140.904 130.909C141.275 130.909 141.562 130.897 141.777 130.885V131.067H141.765Z" fill="#949494"/>
<path d="M146.7 136.64C146.294 136.616 142.636 136.616 142.038 136.64V136.446C142.265 136.433 142.421 136.409 142.528 136.373C142.636 136.336 142.696 136.263 142.744 136.154C142.779 136.045 142.803 135.875 142.803 135.632V131.88C142.803 131.637 142.779 131.467 142.744 131.357C142.708 131.248 142.636 131.175 142.528 131.139C142.421 131.102 142.265 131.078 142.038 131.066V130.872C142.624 130.896 143.497 130.896 144.656 130.896C145.529 130.896 146.15 130.884 146.509 130.872C146.461 131.248 146.449 131.588 146.449 131.892C146.449 132.135 146.461 132.329 146.473 132.475H146.258C146.21 131.952 146.103 131.588 145.935 131.394C145.768 131.187 145.481 131.09 145.099 131.09H144.417C144.19 131.09 144.035 131.102 143.927 131.139C143.819 131.175 143.76 131.248 143.712 131.357C143.676 131.467 143.652 131.637 143.652 131.88V133.64H144.429C144.632 133.64 144.776 133.592 144.883 133.483C144.991 133.373 145.063 133.264 145.099 133.143C145.134 133.021 145.17 132.863 145.206 132.669H145.421C145.397 132.888 145.397 133.118 145.397 133.373V133.738C145.397 133.98 145.421 134.333 145.457 134.794H145.242C145.206 134.49 145.134 134.248 145.027 134.078C144.919 133.908 144.728 133.823 144.441 133.823H143.664V135.62C143.664 135.863 143.688 136.033 143.724 136.142C143.76 136.251 143.831 136.324 143.939 136.361C144.047 136.397 144.202 136.409 144.429 136.409H145.11C145.421 136.409 145.672 136.361 145.852 136.263C146.031 136.166 146.174 135.996 146.258 135.778C146.354 135.559 146.413 135.243 146.449 134.83H146.664C146.641 135 146.641 135.231 146.641 135.51C146.629 135.851 146.653 136.215 146.7 136.64Z" fill="#949494"/>
<path d="M155.318 130.824C155.473 130.885 155.64 130.97 155.808 131.079C155.939 131.164 156.047 131.213 156.131 131.213C156.19 131.213 156.226 131.176 156.262 131.116C156.298 131.055 156.322 130.946 156.334 130.8H156.549C156.513 131.128 156.501 131.711 156.501 132.549H156.286C156.25 132.099 156.107 131.711 155.856 131.395C155.605 131.079 155.234 130.921 154.756 130.921C154.421 130.921 154.158 131.006 153.943 131.189C153.728 131.371 153.62 131.589 153.62 131.857C153.62 132.051 153.668 132.221 153.764 132.367C153.859 132.512 153.979 132.634 154.134 132.743C154.29 132.852 154.505 132.974 154.78 133.132L155.091 133.302C155.473 133.508 155.784 133.702 156.023 133.86C156.262 134.03 156.441 134.212 156.585 134.419C156.728 134.625 156.8 134.88 156.8 135.16C156.8 135.67 156.621 136.07 156.25 136.35C155.892 136.629 155.425 136.775 154.887 136.775C154.589 136.775 154.349 136.738 154.158 136.677C153.967 136.617 153.788 136.532 153.608 136.422C153.477 136.337 153.369 136.289 153.286 136.289C153.226 136.289 153.19 136.325 153.154 136.386C153.118 136.447 153.094 136.556 153.082 136.702H152.867C152.891 136.386 152.903 135.694 152.903 134.613H153.118C153.166 135.196 153.321 135.67 153.584 136.034C153.847 136.398 154.266 136.58 154.816 136.58C155.126 136.58 155.401 136.495 155.629 136.313C155.856 136.131 155.975 135.864 155.975 135.512C155.975 135.305 155.915 135.123 155.796 134.953C155.676 134.795 155.521 134.649 155.318 134.516C155.115 134.394 154.84 134.237 154.481 134.042C153.967 133.775 153.584 133.508 153.309 133.241C153.046 132.974 152.903 132.634 152.903 132.209C152.903 131.735 153.07 131.383 153.417 131.116C153.752 130.861 154.17 130.727 154.66 130.727C154.947 130.739 155.162 130.764 155.318 130.824Z" fill="#949494"/>
<path d="M115.405 126.658C115.214 126.791 115.047 126.852 114.903 126.852C114.736 126.852 114.628 126.791 114.568 126.658C114.509 126.524 114.485 126.318 114.485 126.002V120.78C114.485 120.076 114.437 119.517 114.341 119.117C114.246 118.704 114.066 118.364 113.78 118.085C113.481 117.781 113.098 117.562 112.644 117.429C112.19 117.295 111.652 117.234 111.042 117.234C110.444 117.234 109.906 117.295 109.404 117.405C108.902 117.514 108.484 117.684 108.149 117.878C107.803 118.097 107.54 118.327 107.36 118.582C107.193 118.837 107.109 119.141 107.109 119.493C107.109 119.918 107.229 120.27 107.468 120.55C107.707 120.829 108.042 120.975 108.484 120.975C108.902 120.975 109.249 120.841 109.536 120.586C109.823 120.331 109.966 119.991 109.966 119.554C109.966 119.214 109.871 118.91 109.679 118.655C109.488 118.4 109.213 118.206 108.855 118.085C109.165 117.781 109.632 117.623 110.229 117.623C110.743 117.623 111.126 117.769 111.377 118.072C111.628 118.376 111.747 118.789 111.747 119.323V120.817C111.747 121.157 111.592 121.436 111.269 121.63C110.946 121.825 110.444 122.043 109.751 122.286C109.094 122.517 108.556 122.735 108.137 122.942C107.719 123.148 107.36 123.44 107.061 123.816C106.763 124.193 106.619 124.666 106.619 125.249C106.619 125.941 106.822 126.5 107.217 126.913C107.611 127.326 108.209 127.544 109.022 127.544C110.241 127.544 111.162 127.022 111.795 125.99C111.807 126.464 111.951 126.84 112.226 127.119C112.5 127.399 112.991 127.544 113.684 127.544C114.425 127.544 115.059 127.35 115.585 126.974L115.405 126.658ZM111.759 125.541C111.389 126.063 110.97 126.33 110.48 126.33C110.134 126.33 109.847 126.209 109.632 125.954C109.416 125.699 109.309 125.322 109.309 124.788C109.309 124.193 109.44 123.731 109.691 123.403C109.942 123.088 110.313 122.76 110.803 122.444C111.293 122.14 111.616 121.861 111.771 121.606V125.541H111.759Z" fill="#949494"/>
<path d="M152.499 136.227C152.356 136.373 152.212 136.433 152.093 136.433C151.997 136.433 151.925 136.385 151.866 136.3C151.806 136.203 151.746 136.057 151.698 135.826L151.495 134.964C151.411 134.624 151.28 134.381 151.089 134.235C150.897 134.09 150.634 133.98 150.3 133.932C150.216 133.92 150.108 133.908 149.977 133.895C150.634 133.81 151.113 133.616 151.399 133.313C151.686 133.009 151.83 132.669 151.83 132.305C151.83 131.88 151.639 131.54 151.28 131.272C150.909 131.005 150.371 130.872 149.678 130.872C149.547 130.872 149.415 130.872 149.319 130.884L148.363 130.896C147.861 130.896 147.491 130.884 147.228 130.872V131.066C147.455 131.078 147.61 131.102 147.718 131.139C147.825 131.175 147.885 131.248 147.933 131.357C147.969 131.467 147.993 131.637 147.993 131.88V135.632C147.993 135.875 147.969 136.045 147.933 136.154C147.897 136.263 147.825 136.336 147.718 136.373C147.61 136.409 147.455 136.433 147.228 136.446V136.64C147.491 136.616 149.319 136.616 149.606 136.64V136.446C149.379 136.433 149.224 136.409 149.116 136.373C149.009 136.336 148.949 136.263 148.901 136.154C148.865 136.045 148.841 135.875 148.841 135.632V133.968H149.379C149.714 133.968 149.965 134.029 150.144 134.15C150.312 134.272 150.443 134.503 150.527 134.867L150.814 136.057C150.933 136.543 151.256 136.773 151.77 136.773C151.985 136.773 152.164 136.725 152.32 136.64C152.439 136.567 152.535 136.482 152.631 136.373L152.499 136.227ZM148.841 133.786V131.88C148.841 131.649 148.853 131.479 148.889 131.37C148.925 131.26 148.973 131.175 149.056 131.127C149.14 131.078 149.272 131.066 149.439 131.066C149.953 131.066 150.324 131.175 150.551 131.406C150.778 131.625 150.897 131.965 150.897 132.426C150.897 132.863 150.802 133.203 150.599 133.434C150.395 133.677 150.025 133.786 149.475 133.786H148.841Z" fill="#949494"/>
<path d="M130.78 136.229C130.636 136.374 130.493 136.447 130.373 136.447C130.278 136.447 130.206 136.399 130.146 136.314C130.086 136.217 130.027 136.071 129.979 135.84L129.776 134.978C129.692 134.638 129.56 134.395 129.369 134.249C129.178 134.104 128.915 133.994 128.58 133.946C128.497 133.934 128.389 133.921 128.257 133.909C128.915 133.824 129.393 133.63 129.68 133.326C129.967 133.023 130.11 132.683 130.11 132.319C130.11 131.894 129.919 131.553 129.56 131.286C129.19 131.019 128.652 130.886 127.959 130.886C127.827 130.886 127.696 130.886 127.6 130.898L126.644 130.91C126.142 130.91 125.771 130.898 125.508 130.886V131.08C125.735 131.092 125.891 131.116 125.998 131.153C126.106 131.189 126.166 131.262 126.213 131.371C126.249 131.481 126.273 131.651 126.273 131.894V135.646C126.273 135.889 126.249 136.059 126.213 136.168C126.177 136.277 126.106 136.35 125.998 136.387C125.891 136.423 125.197 136.702 124.875 135.852L122.687 130.837H122.544L120.475 135.585C120.368 135.828 120.26 136.034 120.141 136.18C120.021 136.326 119.878 136.423 119.71 136.472V136.666C119.878 136.642 121.181 136.642 121.372 136.666V136.472C121.121 136.447 120.93 136.387 120.822 136.302C120.703 136.204 120.655 136.083 120.655 135.913C120.655 135.755 120.703 135.549 120.81 135.306L121.133 134.589H123.404L123.882 135.67C123.966 135.864 124.014 136.01 124.014 136.119C124.014 136.241 123.954 136.326 123.846 136.374C123.739 136.423 123.572 136.459 123.332 136.472V136.666C123.595 136.642 127.612 136.642 127.899 136.666V136.472C127.672 136.459 127.516 136.435 127.409 136.399C127.301 136.362 127.241 136.289 127.194 136.18C127.158 136.071 127.134 135.901 127.134 135.658V133.994H127.672C128.006 133.994 128.257 134.055 128.437 134.176C128.604 134.298 128.736 134.529 128.819 134.893L129.106 136.083C129.226 136.569 129.548 136.799 130.062 136.799C130.278 136.799 130.457 136.751 130.612 136.666C130.732 136.593 130.828 136.508 130.923 136.387L130.78 136.229ZM121.193 134.383L122.257 131.979L123.309 134.383H121.193ZM127.134 133.788V131.881C127.134 131.651 127.146 131.481 127.182 131.371C127.217 131.262 127.265 131.177 127.349 131.128C127.433 131.08 127.564 131.068 127.731 131.068C128.246 131.068 128.616 131.177 128.843 131.408C129.07 131.626 129.19 131.966 129.19 132.428C129.19 132.865 129.094 133.205 128.891 133.436C128.688 133.679 128.317 133.788 127.767 133.788H127.134Z" fill="#949494"/>
</g>
</g>
<defs>
<clipPath id="clip0_726_17632">
<rect width="82.8402" height="24.4083" fill="white" transform="translate(83.5798 112.426)"/>
</clipPath>
</defs>
</svg>
